<?xml version="1.0" encoding="UTF-8"?>
<svg width="1200pt" height="1200pt" version="1.1" viewBox="0 0 1200 1200" xmlns="http://www.w3.org/2000/svg">
 <g>
  <path d="m446.91 36.363c-118.91 0-215.45 96.363-215.45 215.45 0 118.91 96.547 215.45 215.45 215.45 14.363 0 28.363-1.4531 42.184-4.1836l164.18 89.816-24.188-185.63c21.09-33.453 33.453-73.09 33.453-115.45 0.003906-119.09-96.543-215.46-215.63-215.46zm2.543 258.36h-118c-10 0-18.184-8.1836-18.184-18.184s8.1836-18.184 18.184-18.184h118c10 0 18.184 8.1836 18.184 18.184 0 10.004-8.1836 18.184-18.184 18.184zm113.09-73.453h-231.09c-10 0-18.184-8.1836-18.184-18.184s8.1836-18.184 18.184-18.184h231.09c10 0 18.184 8.1836 18.184 18.184s-8.1797 18.184-18.18 18.184z"/>
  <path d="m1064.7 504.18h-24.727v23.273c0 50.91-41.453 92.363-92.363 92.363-50.91 0-92.184-41.453-92.184-92.363v-23.273h-24.543c-54.547 0-98.91 44.363-98.91 98.91v208.73h232.91l198.73-0.003906v-208.73c0-54.543-44.363-98.906-98.91-98.906z"/>
  <path d="m785.45 200.91 40.547 4.7266c1.8164 0.18359 3.4531 0.36328 5.2734 0.36328 17.09 0 33.09-6.9102 44.91-19.273 3.8164-3.8164 6.7266-7.6367 9.0898-11.816l32.727-57.637 31.09 58.547c15.816 30 46.727 48.547 80.727 48.547 11.09 0 21.637-1.8164 31.273-5.6367l49.453-19.09v115.82c11.637-16.91 18.727-37.09 18.727-59.09l0.003907-80.004c-0.36328-77.273-56.547-140-125.82-140h-74.727c-40.727 0-74.18 37.09-74.18 82.91v-6c-48.727 0-87.816 43.816-87.816 98v44.91c0 22 7.0898 42.363 18.727 59.273z"/>
  <path d="m891.82 527.45c0 31.09 24.91 56 55.816 56 31.09 0 56-24.91 56-56v-27.09c-17.453 6.3633-36.363 9.8164-56 9.8164-19.637 0-38.363-3.6367-55.816-10.184z"/>
  <path d="m1072 368.91c1.4531-6.9102 2-14 2-21.273v-94.91c-13.816 5.2734-28.727 8.1836-44.363 8.1836-48.91 0-91.453-27.637-112.91-68-3.8164 6.7266-8.7266 13.273-14.363 18.91-17.816 18.727-43.09 30.547-71.273 30.547-3.0898 0-6.1836-0.18359-9.4531-0.54688v105.82c0 70 56.363 126.36 126 126.36 62.547-0.18359 114.36-45.453 124.36-105.09zm-184.18-26.547c-10 0-18.184-8.1836-18.184-18.184s8.1836-18.184 18.184-18.184h2.1836c10 0 18.184 8.1836 18.184 18.184s-8.1836 18.184-18.184 18.184zm98 73.09c-12.363 7.8164-25.273 11.816-38 11.816-12.727 0-25.637-4-38-11.816-8.5469-5.2734-11.09-16.547-5.6367-25.09 5.2734-8.5469 16.547-11.09 25.09-5.6367 12.91 8.1836 24.363 8.1836 37.273 0 8.5469-5.2734 19.816-2.7266 25.09 5.6367 5.2773 8.5469 2.7305 19.637-5.8164 25.09zm22-73.09h-2.1836c-10 0-18.184-8.1836-18.184-18.184s8.1836-18.184 18.184-18.184h2.1836c10 0 18.184 8.1836 18.184 18.184 0 10.004-8 18.184-18.184 18.184z"/>
  <path d="m360.55 863.82h-227.82c-53.273 0-96.363 43.09-96.363 96.363v203.46h420.55v-203.45c0-53.094-43.094-96.367-96.363-96.367z"/>
  <path d="m159.45 827.45h174.36c-18-14.547-50.184-24.184-87.273-24.184-36.906 0.003907-69.09 9.8203-87.09 24.184z"/>
  <path d="m183.82 775.64c18.91-5.6367 40.184-8.7266 62.727-8.7266 22.547 0 44 3.0898 63.09 8.7266l5.0898-19.816c38-40.547 63.273-107.64 63.273-155.45 0-72.363-58.727-131.45-131.45-131.45-72.363 0-131.45 59.09-131.45 131.45 0 47.816 25.637 114.73 63.453 155.45z"/>
 </g>
</svg>
