<?xml version="1.0" encoding="UTF-8"?>
<svg width="1200pt" height="1200pt" version="1.1" viewBox="0 0 1200 1200" xmlns="http://www.w3.org/2000/svg">
 <path d="m825 581.25c74.594 0 146.13-29.633 198.88-82.375 52.742-52.746 82.375-124.28 82.375-198.88s-29.633-146.13-82.375-198.88c-52.746-52.742-124.28-82.375-198.88-82.375s-146.13 29.633-198.88 82.375c-52.742 52.746-82.375 124.28-82.375 198.88 0.085938 74.566 29.742 146.05 82.469 198.78s124.21 82.383 198.78 82.469zm-131.25-281.25c0.042969-6.2695 0.47266-12.531 1.293-18.75h-20.043c-6.6992 0-12.887-3.5742-16.238-9.375-3.3477-5.8008-3.3477-12.949 0-18.75 3.3516-5.8008 9.5391-9.375 16.238-9.375h29.793c11.219-27.672 30.43-51.367 55.18-68.066 24.754-16.699 53.918-25.641 83.777-25.684 30.867-0.17969 60.992 9.4766 86.008 27.562 4.0898 2.8945 6.8516 7.3047 7.6719 12.25 0.81641 4.9414-0.37891 10.008-3.3203 14.066-2.9414 4.0547-7.3867 6.7656-12.34 7.5273-4.9531 0.75781-10.004-0.49609-14.027-3.4883-18.621-13.43-41.035-20.582-63.992-20.418-40.137 0.054688-77.207 21.488-97.273 56.25h116.02c6.6992 0 12.887 3.5742 16.238 9.375 3.3477 5.8008 3.3477 12.949 0 18.75-3.3516 5.8008-9.5391 9.375-16.238 9.375h-129.56c-2.25 12.398-2.25 25.102 0 37.5h129.56c6.6992 0 12.887 3.5742 16.238 9.375 3.3477 5.8008 3.3477 12.949 0 18.75-3.3516 5.8008-9.5391 9.375-16.238 9.375h-116.02c20.066 34.762 57.137 56.195 97.273 56.25 22.969 0.10547 45.395-7.0039 64.105-20.324 5.4531-3.8945 12.57-4.5781 18.664-1.8047 6.0977 2.7773 10.25 8.5938 10.895 15.262 0.64453 6.668-2.3164 13.176-7.7695 17.066-25.062 17.883-55.109 27.43-85.895 27.301-29.859-0.042969-59.023-8.9844-83.777-25.684-24.75-16.699-43.961-40.395-55.18-68.066h-29.793c-6.6992 0-12.887-3.5742-16.238-9.375-3.3477-5.8008-3.3477-12.949 0-18.75 3.3516-5.8008 9.5391-9.375 16.238-9.375h20.043c-0.82031-6.2188-1.25-12.48-1.293-18.75zm468.75 353.06c0 19.051-7.5508 37.32-21 50.812l-246.94 246.94c-3.5742 3.4531-8.3398 5.4023-13.312 5.4375h-386.06l-48.375 48.562-232.88-232.88 129-129c3.5742-3.4531 8.3398-5.4023 13.312-5.4375h384.38c23.445 0 45.109 12.508 56.832 32.812 11.723 20.305 11.723 45.32 0 65.625-11.723 20.305-33.387 32.812-56.832 32.812h-196.88c-6.6992 0-12.887 3.5742-16.238 9.375-3.3477 5.8008-3.3477 12.949 0 18.75 3.3516 5.8008 9.5391 9.375 16.238 9.375h292.31l203.81-204c13.699-13.047 31.895-20.32 50.812-20.32s37.113 7.2734 50.812 20.32c13.48 13.469 21.035 31.758 21 50.812zm-699.24 421.18c3.5117 3.5195 5.4883 8.2852 5.4883 13.258s-1.9766 9.7383-5.4883 13.258l-56.25 56.25c-3.5195 3.5117-8.2852 5.4883-13.258 5.4883s-9.7383-1.9766-13.258-5.4883l-318.75-318.75c-3.5117-3.5195-5.4883-8.2852-5.4883-13.258s1.9766-9.7383 5.4883-13.258l56.25-56.25c3.5195-3.5117 8.2852-5.4883 13.258-5.4883s9.7383 1.9766 13.258 5.4883zm-403.82-185.3 270.38 270.38-16.5 16.5c-3.5742 3.4531-8.3398 5.4023-13.312 5.4375h-243.75c-4.9727 0-9.7422-1.9766-13.258-5.4922-3.5156-3.5156-5.4922-8.2852-5.4922-13.258v-243.75c0.035156-4.9727 1.9844-9.7383 5.4375-13.312z"/>
</svg>
