<?xml version="1.0" encoding="UTF-8"?>
<svg width="1200pt" height="1200pt" version="1.1" viewBox="0 0 1200 1200" xmlns="http://www.w3.org/2000/svg">
 <g>
  <path d="m1096.8 669.6h-31.199c-15.602-58.801-49.199-112.8-94.801-157.2l76.801-116.4c7.1992-10.801 1.1992-26.398-13.199-28.801-42-7.1992-129.6-9.6016-229.2 44.398-1.1992 1.1992-3.6016 1.1992-4.8008 2.3984-28.801-8.3984-60-15.602-92.398-18-49.203 80.398-139.2 135.6-240 135.6-39.602 0-78-8.3984-112.8-24-42 38.398-74.398 86.398-92.398 138-9.6016-3.6016-19.199-7.1992-28.801-12 8.3984-22.801 12-46.801 9.6016-68.398-2.3984-32.398-27.602-58.801-58.801-62.398-28.801-3.6016-54 13.199-63.602 40.801-7.1992 20.398-4.8008 40.801 6 60 10.801 18 27.602 34.801 49.199 48-6 8.3984-13.199 13.199-20.398 15.602-22.801 7.1992-46.801-25.199-58.801-45.602-6-9.6016-19.199-13.199-30-7.1992-9.6016 6-13.199 19.199-7.1992 30 32.398 52.801 63.602 68.398 88.801 68.398 7.1992 0 14.398-1.1992 20.398-3.6016 18-6 33.602-19.199 45.602-36 13.199 6 26.398 10.801 38.398 15.602-3.6016 21.602-7.1992 42-7.1992 63.602 0 116.4 64.801 219.6 164.4 284.4l-10.801 98.398c-2.3984 19.199 12 34.801 31.199 34.801h90c15.602 0 28.801-12 31.199-26.398l4.8008-45.602c33.602 7.1992 69.602 12 106.8 12 37.199 0 72-4.8008 105.6-12l6 45.602c2.3984 15.602 15.602 26.398 31.199 26.398h90c19.199 0 33.602-16.801 31.199-34.801l-12-98.398c64.801-42 115.2-102 141.6-169.2h42c25.199 0 46.801-21.602 46.801-46.801v-104.4c-2.3984-25.207-24-46.805-49.199-46.805zm-902.4-56.402c-13.199-8.3984-24-19.199-30-30-4.8008-8.3984-6-16.801-2.3984-25.199 2.3984-8.3984 9.6016-10.801 14.398-10.801h2.3984c9.6016 1.1992 19.199 8.3984 20.398 22.801 1.2031 13.199-1.1953 28.801-4.7969 43.199zm732 66c-25.199 0-43.199-20.398-43.199-43.199 0-25.199 20.398-43.199 43.199-43.199 25.199 0 43.199 20.398 43.199 43.199 2.4023 24-17.996 43.199-43.199 43.199z"/>
  <path d="m468 468c121.2 0 219.6-98.398 219.6-219.6 0-121.2-99.602-218.4-219.6-218.4-121.2 0-219.6 98.398-219.6 219.6 0 121.2 98.402 218.4 219.6 218.4zm-130.8-200.4c0-3.6016 3.6016-7.1992 7.1992-7.1992h18v-10.801-12h-18c-3.6016 0-7.1992-3.6016-7.1992-7.1992v-21.602c0-3.6016 3.6016-7.1992 7.1992-7.1992h25.199c18-50.398 61.199-84 109.2-84 28.801 0 57.602 12 79.199 34.801 1.1992 1.1992 2.3984 3.6016 2.3984 4.8008 0 2.3984-1.1992 3.6016-2.3984 4.8008l-24 21.602c-2.3984 2.3984-7.1992 2.3984-9.6016 0-13.199-13.199-28.801-19.199-45.602-19.199-24 0-45.602 14.398-58.801 37.199h61.199c3.6016 0 7.1992 3.6016 7.1992 7.1992v21.602c0 3.6016-3.6016 7.1992-7.1992 7.1992h-73.199c0 3.6016-1.1992 8.3984-1.1992 12 0 3.6016 0 7.1992 1.1992 10.801h73.199c3.6016 0 7.1992 3.6016 7.1992 7.1992v21.602c0 3.6016-3.6016 7.1992-7.1992 7.1992h-61.199c13.199 22.801 36 37.199 58.801 37.199 16.801 0 32.398-7.1992 45.602-19.199 2.3984-2.3984 7.1992-2.3984 9.6016 0l24 21.602c1.1992 1.1992 2.3984 3.6016 2.3984 4.8008 0 2.3984-1.1992 3.6016-2.3984 4.8008-21.602 21.602-50.398 34.801-79.199 34.801-48 0-92.398-33.602-109.2-84h-25.199c-3.6016 0-7.1992-3.6016-7.1992-7.1992z"/>
 </g>
</svg>
