<?xml version="1.0" encoding="UTF-8"?>
<svg width="1200pt" height="1200pt" version="1.1" viewBox="0 0 1200 1200" xmlns="http://www.w3.org/2000/svg">
 <g>
  <path d="m871.88 712.5v-596.25c0-63.75-52.5-116.25-116.25-116.25h-628.12c-65.625 0-116.25 52.5-116.25 116.25v967.5c0 63.75 52.5 116.25 116.25 116.25h690c-60-37.5-105-95.625-121.88-166.88h-568.12v-868.12h626.25v626.25c31.875-35.625 71.25-63.75 118.12-78.75zm-262.5 390h75c9.375 0 16.875 7.5 16.875 16.875s-7.5 18.75-16.875 18.75h-75c-9.375 0-16.875-7.5-16.875-18.75 0-9.375 7.5-16.875 16.875-16.875zm-168.75-24.375c22.5 0 39.375 16.875 39.375 39.375s-16.875 39.375-39.375 39.375-39.375-16.875-39.375-39.375c0-20.625 18.75-39.375 39.375-39.375zm-241.88 24.375h75c9.375 0 16.875 7.5 16.875 16.875s-7.5 18.75-16.875 18.75h-75c-9.375 0-16.875-7.5-16.875-18.75-1.875-9.375 5.625-16.875 16.875-16.875zm296.25-988.12h-97.5c-13.125 0-22.5-11.25-22.5-22.5 0-13.125 9.375-22.5 22.5-22.5h97.5c13.125 0 22.5 11.25 22.5 22.5s-9.375 22.5-22.5 22.5z"/>
  <path d="m285 256.88c0-13.125-9.375-22.5-22.5-22.5h-56.25c-13.125 0-22.5 9.375-22.5 22.5v56.25c0 13.125 9.375 22.5 22.5 22.5h56.25c13.125 0 22.5-9.375 22.5-22.5z"/>
  <path d="m423.75 256.88c0-13.125-9.375-22.5-22.5-22.5h-56.25c-13.125 0-22.5 9.375-22.5 22.5v56.25c0 13.125 9.375 22.5 22.5 22.5h56.25c13.125 0 22.5-9.375 22.5-22.5z"/>
  <path d="m560.62 256.88c0-13.125-9.375-22.5-22.5-22.5h-56.25c-13.125 0-22.5 9.375-22.5 22.5v56.25c0 13.125 9.375 22.5 22.5 22.5h56.25c13.125 0 22.5-9.375 22.5-22.5z"/>
  <path d="m697.5 256.88c0-13.125-9.375-22.5-22.5-22.5h-56.25c-13.125 0-22.5 9.375-22.5 22.5v56.25c0 13.125 9.375 22.5 22.5 22.5h56.25c13.125 0 22.5-9.375 22.5-22.5z"/>
  <path d="m285 386.25c0-13.125-9.375-22.5-22.5-22.5h-56.25c-13.125 0-22.5 9.375-22.5 22.5v56.25c0 13.125 9.375 22.5 22.5 22.5h56.25c13.125 0 22.5-9.375 22.5-22.5z"/>
  <path d="m423.75 386.25c0-13.125-9.375-22.5-22.5-22.5h-56.25c-13.125 0-22.5 9.375-22.5 22.5v56.25c0 13.125 9.375 22.5 22.5 22.5h56.25c13.125 0 22.5-9.375 22.5-22.5z"/>
  <path d="m560.62 386.25c0-13.125-9.375-22.5-22.5-22.5h-56.25c-13.125 0-22.5 9.375-22.5 22.5v56.25c0 13.125 9.375 22.5 22.5 22.5h56.25c13.125 0 22.5-9.375 22.5-22.5z"/>
  <path d="m697.5 386.25c0-13.125-9.375-22.5-22.5-22.5h-56.25c-13.125 0-22.5 9.375-22.5 22.5v56.25c0 13.125 9.375 22.5 22.5 22.5h56.25c13.125 0 22.5-9.375 22.5-22.5z"/>
  <path d="m285 513.75c0-13.125-9.375-22.5-22.5-22.5h-56.25c-13.125 0-22.5 9.375-22.5 22.5v56.25c0 13.125 9.375 22.5 22.5 22.5h56.25c13.125 0 22.5-9.375 22.5-22.5z"/>
  <path d="m423.75 513.75c0-13.125-9.375-22.5-22.5-22.5h-56.25c-13.125 0-22.5 9.375-22.5 22.5v56.25c0 13.125 9.375 22.5 22.5 22.5h56.25c13.125 0 22.5-9.375 22.5-22.5z"/>
  <path d="m560.62 513.75c0-13.125-9.375-22.5-22.5-22.5h-56.25c-13.125 0-22.5 9.375-22.5 22.5v56.25c0 13.125 9.375 22.5 22.5 22.5h56.25c13.125 0 22.5-9.375 22.5-22.5z"/>
  <path d="m697.5 513.75c0-13.125-9.375-22.5-22.5-22.5h-56.25c-13.125 0-22.5 9.375-22.5 22.5v56.25c0 13.125 9.375 22.5 22.5 22.5h56.25c13.125 0 22.5-9.375 22.5-22.5z"/>
  <path d="m285 643.12c0-13.125-9.375-22.5-22.5-22.5h-56.25c-13.125 0-22.5 9.375-22.5 22.5v56.25c0 13.125 9.375 22.5 22.5 22.5h56.25c13.125 0 22.5-9.375 22.5-22.5z"/>
  <path d="m423.75 643.12c0-13.125-9.375-22.5-22.5-22.5h-56.25c-13.125 0-22.5 9.375-22.5 22.5v56.25c0 13.125 9.375 22.5 22.5 22.5h56.25c13.125 0 22.5-9.375 22.5-22.5z"/>
  <path d="m560.62 643.12c0-13.125-9.375-22.5-22.5-22.5h-56.25c-13.125 0-22.5 9.375-22.5 22.5v56.25c0 13.125 9.375 22.5 22.5 22.5h56.25c13.125 0 22.5-9.375 22.5-22.5z"/>
  <path d="m697.5 643.12c0-13.125-9.375-22.5-22.5-22.5h-56.25c-13.125 0-22.5 9.375-22.5 22.5v56.25c0 13.125 9.375 22.5 22.5 22.5h56.25c13.125 0 22.5-9.375 22.5-22.5z"/>
  <path d="m264.38 750h-56.25c-13.125 0-22.5 9.375-22.5 22.5v56.25c0 13.125 9.375 22.5 22.5 22.5h56.25c13.125 0 22.5-9.375 22.5-22.5v-56.25c-1.875-11.25-11.25-22.5-22.5-22.5z"/>
  <path d="m401.25 750h-56.25c-13.125 0-22.5 9.375-22.5 22.5v56.25c0 13.125 9.375 22.5 22.5 22.5h56.25c13.125 0 22.5-9.375 22.5-22.5v-56.25c0-11.25-11.25-22.5-22.5-22.5z"/>
  <path d="m538.12 750h-56.25c-13.125 0-22.5 9.375-22.5 22.5v56.25c0 13.125 9.375 22.5 22.5 22.5h56.25c13.125 0 22.5-9.375 22.5-22.5v-56.25c0-11.25-9.375-22.5-22.5-22.5z"/>
  <path d="m675 750h-56.25c-13.125 0-22.5 9.375-22.5 22.5v56.25c0 13.125 9.375 22.5 22.5 22.5h56.25c13.125 0 22.5-9.375 22.5-22.5v-56.25c0-11.25-9.375-22.5-22.5-22.5z"/>
  <path d="m958.12 736.88c-127.5 0-230.62 103.12-230.62 230.62s103.12 232.5 230.62 232.5 230.62-103.12 230.62-230.62-103.12-232.5-230.62-232.5zm142.5 174.38-131.25 170.62c-5.625 7.5-13.125 11.25-22.5 11.25h-1.875c-7.5 0-15-3.75-20.625-9.375l-61.875-61.875c-11.25-11.25-11.25-30 0-43.125 11.25-11.25 31.875-11.25 43.125 0l37.5 37.5 110.62-142.5c9.375-13.125 30-15 43.125-5.625 11.25 11.25 13.125 30 3.75 43.125z"/>
 </g>
</svg>
