<?xml version="1.0" encoding="UTF-8"?>
<svg width="1200pt" height="1200pt" version="1.1" viewBox="0 0 1200 1200" xmlns="http://www.w3.org/2000/svg">
 <g>
  <path d="m633.6 30c-84 0-164.4 20.398-236.4 55.199 14.398 18 25.199 38.398 31.199 62.398l7.1992 26.398c45.602-24 97.199-39.602 150-45.602v60c0 26.398 21.602 48 48 48 26.398 0 48-21.602 48-48v-60c84 9.6016 160.8 42 224.4 93.602l-43.199 42.004c-19.199 19.199-19.199 49.199 0 67.199 9.6016 9.6016 21.602 14.398 33.602 14.398s24-4.8008 33.602-14.398l42-42c50.398 62.398 84 139.2 93.602 223.2h-60c-26.398 0-48 21.602-48 48 0 26.398 21.602 48 48 48h60c-9.6016 84-42 160.8-93.602 224.4l-42-42c-19.199-19.199-49.199-19.199-67.199 0-19.199 19.199-19.199 49.199 0 67.199l42 42c-37.199 30-78 52.801-123.6 69.602l12 18c14.398 21.602 22.801 46.801 25.199 70.801 201.6-75.598 345.6-270 345.6-498 0-292.8-237.6-530.4-530.4-530.4z"/>
  <path d="m633.6 332.4c-26.398 0-48 21.602-48 48v181.2c0 26.398 21.602 48 48 48h153.6c26.398 0 48-21.602 48-48 0-26.398-21.602-48-48-48h-106.8l-0.003906-134.4c1.2031-26.398-20.398-46.801-46.797-46.801z"/>
  <path d="m609.6 878.4c-26.398-40.801-82.801-52.801-122.4-25.199l-76.801 51.602c-4.8008 3.6016-13.199 2.3984-16.801-2.3984-93.602-117.6-153.6-255.6-177.6-403.2-1.1992-6 3.6016-13.199 9.6016-14.398l91.199-21.602c48-10.801 76.801-58.801 66-106.8l-46.801-186c-9.6016-37.199-49.199-57.602-85.199-44.398-177.6 68.398-308.4 248.4-130.8 655.2s397.2 434.4 567.6 350.4c34.801-16.801 48-60 26.398-92.398z"/>
 </g>
</svg>
