<?xml version="1.0" encoding="UTF-8"?>
<!DOCTYPE svg PUBLIC "-//W3C//DTD SVG 1.1//EN" "http://www.w3.org/Graphics/SVG/1.1/DTD/svg11.dtd">
<!-- Creator: CorelDRAW -->
<svg xmlns="http://www.w3.org/2000/svg" xml:space="preserve" width="6.7309mm" height="6.7308mm" version="1.1" style="shape-rendering:geometricPrecision; text-rendering:geometricPrecision; image-rendering:optimizeQuality; fill-rule:evenodd; clip-rule:evenodd"
viewBox="0 0 0.23 0.23"
 xmlns:xlink="http://www.w3.org/1999/xlink"
 xmlns:xodm="http://www.corel.com/coreldraw/odm/2003">
 <defs>
  <style type="text/css">
   <![CDATA[
    .fil0 {fill:#FF7C29;fill-rule:nonzero}
   ]]>
  </style>
 </defs>
 <g id="Layer_x0020_1">
  <metadata id="CorelCorpID_0Corel-Layer"/>
  <path class="fil0" d="M0.22 0.12c-0,-0 -0,-0 -0,-0.01 0,-0 0,-0 0,-0.01l0.01 -0.01 0 -0c0,-0 0,-0 0,-0 -0,-0 -0,-0 -0,-0l-0.01 -0.01c-0,-0 -0,-0 -0,-0 -0,-0 -0,-0 -0,-0.01l0 -0.01c0,-0 -0,-0 -0,-0 -0,-0 -0,-0 -0,-0l-0.01 -0c-0,-0 -0,-0 -0,-0l-0 -0c-0,-0 -0,-0 -0,-0l-0 -0.01c-0,-0 -0,-0 -0,-0 -0,-0 -0,-0 -0,-0l-0.01 0c-0,0 -0,-0 -0.01,-0 -0,-0 -0,-0 -0,-0l-0.01 -0.01c-0,-0 -0,-0 -0,-0 -0,-0 -0,-0 -0,0l-0 0 -0.01 0.01c-0,0 -0,0 -0.01,0 -0,0 -0,-0 -0.01,-0l-0.01 -0.01 -0 0c-0,-0 -0,-0 -0,-0 -0,0 -0,0 -0,0l-0.01 0.01c-0,0 -0,0 -0,0 -0,0 -0,0 -0.01,0l-0.01 -0c-0,-0 -0,0 -0,0 -0,0 -0,0 -0,0l-0 0.01c-0,0 -0,0 -0,0 -0,0 -0,0 -0,0l-0.01 0c-0,0 -0,0 -0,0 -0,0 -0,0 -0,0l0 0.01c0,0 -0,0 -0,0.01 -0,0 -0,0 -0,0l-0.01 0.01c-0,0 -0,0 -0,0 -0,0 -0,0 0,0l0 0 0.01 0.01c0,0 0,0 0,0.01 0,0 -0,0 -0,0.01l-0.01 0.01 0 0c-0,0 -0,0 -0,0 0,0 0,0 0,0l0 0 -0.01 0c-0,-0 -0,-0 -0,-0 -0,-0 -0,-0.01 0,-0.01l0 0 0.01 -0.01c0,-0 0,-0 0,-0 0,-0 -0,-0 -0,-0l-0.01 -0.01 -0 0c-0,-0 -0,-0 -0,-0.01 0,-0 0,-0 0,-0.01l0.01 -0.01c0,-0 0,-0 0,-0 0,-0 0,-0 0,-0l-0 -0.01c-0,-0 0,-0.01 0,-0.01 0,-0 0,-0 0.01,-0l0.01 -0c0,-0 0,-0 0,-0 0,-0 0,-0 0,-0l0 -0.01c0,-0 0,-0 0,-0.01 0,-0 0,-0 0.01,-0l0.01 0c0,0 0,-0 0,-0 0,-0 0,-0 0,-0l0.01 -0.01c0,-0 0,-0 0.01,-0 0,-0 0.01,-0 0.01,0l0 0 0.01 0.01c0,0 0,0 0,0 0,0 0,-0 0,-0l0.01 -0.01 -0 -0c0,-0 0,-0 0.01,-0 0,0 0,0 0.01,0l0.01 0.01c0,0 0,0 0,0 0,0 0,0 0,0l0.01 -0c0,-0 0.01,0 0.01,0 0,0 0,0 0,0.01l0 0.01c0,0 0,0 0,0l0 0c0,0 0,0 0,0l0.01 0c0,0 0,0 0.01,0 0,0 0,0 0,0.01l-0 0.01c-0,0 0,0 0,0 0,0 0,0 0,0l0.01 0.01c0,0 0,0 0,0.01 0,0 0,0.01 -0,0.01l-0 0 -0.01 0.01c-0,0 -0,0 -0,0 0,0 0,0 0,0l0.01 0.01 0 -0c0,0 0,0 0,0.01 -0,0 -0,0 -0,0l-0.01 0 0 -0c0,-0 0,-0 0,-0 0,-0 0,-0 -0,-0l0 -0 -0.01 -0.01zm-0.2 0.07c0,0 0.01,-0 0.01,-0l0 -0.02 -0.01 0 0 0.01 0 0 0 0.01c-0,0 -0,0 -0,0 -0,0 -0.01,-0 -0.01,-0.01l0 -0c0,-0.01 0,-0.01 0.01,-0.01 0,0 0.01,0 0.01,0l0 -0.01c-0,-0 -0,-0 -0.01,-0 -0.01,0 -0.01,0.01 -0.01,0.02l0 0c0,0.02 0,0.02 0.01,0.02zm0.02 0c0.01,0 0.01,-0.01 0.01,-0.02l0 -0.03 -0.01 0 0 0.03c0,0.01 -0,0.01 -0,0.01 -0,0 -0,-0 -0,-0.01l0 -0.03 -0.01 0 0 0.03c0,0.01 0,0.02 0.01,0.02zm0.02 -0.03l0 0 0 0.01 -0.01 0 0 -0.01zm-0.01 0.03l0.01 0 0 -0.01 0.01 0 0 0.01 0.01 0 -0.01 -0.04 -0.01 0 -0.01 0.04zm0.04 -0.02l0 -0.01 0 0c0,0 0,0 0,0.01 0,0 -0,0.01 -0,0.01l-0 0zm-0.01 0.02l0.01 0 0 -0.02 0 0 0 0.02 0.01 0 -0.01 -0.02 0 -0c0,-0 0,-0.01 0,-0.01 0,-0.01 -0,-0.01 -0.01,-0.01l-0.01 0 0 0.04zm0.04 -0.03l0 0 0 0.01 -0.01 0 0 -0.01zm-0.01 0.03l0.01 0 0 -0.01 0.01 0 0 0.01 0.01 0 -0.01 -0.04 -0.01 0 -0.01 0.04zm0.03 0l0.01 0 0 -0.03 0 0 0.01 0.03 0.01 0 0 -0.04 -0.01 0 0 0.02 -0 0 -0.01 -0.02 -0.01 0 0 0.04zm0.03 0l0.01 0 0 -0.04 0.01 0 0 -0.01 -0.02 0 0 0.01 0.01 0 0 0.04zm0.02 0l0.02 0 0 -0.01 -0.01 0 0 -0.01 0.01 0 0 -0.01 -0.01 0 0 -0.01 0.01 0 0 -0.01 -0.02 0 0 0.04zm0.02 0l0.02 0 0 -0.01 -0.01 0 0 -0.01 0.01 0 0 -0.01 -0.01 0 0 -0.01 0.01 0 0 -0.01 -0.02 0 0 0.04zm-0.04 -0.11c0,-0 0,-0 -0,-0 0,-0 -0,-0 -0,-0l-0.01 -0.01c-0,-0 -0,-0 -0,-0l-0.08 0c-0,0 -0,0 -0,0l-0.01 0.01c-0,0 -0,0 -0,0l0 0 0 0c0,0 0,0 0,0l0 0 0 0.04c0,0 0,0 0,0l0.03 0c0,0.01 0.01,0.01 0.01,0.01 0.01,0 0.01,-0 0.01,-0.01l0.03 0c0,0 0,-0 0,-0l0 -0.04 0 0c0,0 0,-0 0,-0l0 -0zm-0 -0l-0.01 0 0.01 -0.01 0.01 0.01zm-0.01 -0.01l-0.01 0.01 -0.01 0 0.01 -0.01 0.01 0 0 0zm-0.03 0.01l0.01 -0.01 0.01 0 -0.01 0.01 -0.01 0zm-0.01 0l0.01 -0.01 0.01 0 -0.01 0.01 -0.01 0zm-0.01 0l0.01 -0.01 0.01 0 -0.01 0.01 -0.01 0zm-0.01 0l0.01 -0.01 0.01 0 -0.01 0.01 -0.01 0zm-0.01 0l0.01 -0.01 0.01 0 -0.01 0.01 -0.01 0zm-0.01 0l0.01 -0.01 0.01 0 -0.01 0.01 -0.01 0zm-0 -0.01l0.01 0 -0.01 0.01 -0.01 0 0.01 -0.01zm-0.01 0.06l0 -0.04 0 0 0 0.03c0,0 0,0 0,0l0.03 0c-0,0 -0,0 -0,0 0,0 0,0 0,0l-0.03 0zm0.04 -0.04l0 0.02c-0,0 -0.01,0.01 -0.01,0.01l-0.03 0 0 -0.03 0.04 0zm0.05 0l0 0.03 -0.03 0c-0,-0 -0.01,-0.01 -0.01,-0.01l0 -0.02 0.04 0zm-0.04 0.02c-0,-0 -0,-0 -0,-0 -0,0 -0,0 -0,0l0 -0.02 0 0 0 0.02zm-0 0.03c-0.01,0 -0.01,-0.01 -0.01,-0.01 0,-0.01 0.01,-0.01 0.01,-0.01 0.01,0 0.01,0.01 0.01,0.01 0,0.01 -0.01,0.01 -0.01,0.01zm0.05 -0.01l-0.03 0c0,-0 0,-0 0,-0 0,-0 -0,-0 -0,-0l0.03 0c0,0 0,-0 0,-0l0 -0.03 0 0 0 0.04zm0 -0.04l-0.1 0 0 -0 0.1 0 0 0zm-0.05 0.03l-0 0 0 -0c0,-0 0,-0 0,-0 -0,-0 -0,-0 -0,-0l-0.01 0c-0,0 -0,0 -0,0l-0 0.01c-0,0 -0,0 0,0 0,0 0,0 0,0l0 0 -0 0.01c-0,0 0,0 0,0 0,0 0,0 0,0 0,0 0,-0 0,-0l0.01 -0.01c0,-0 0,-0 0,-0 -0,-0 -0,-0 -0,-0zm-0.01 0.01l0 -0c0,-0 0,-0 -0,-0 -0,-0 -0,-0 -0,-0l-0 0 0 -0.01 0 0 -0 0c-0,0 -0,0 0,0 0,0 0,0 0,0l0 0 -0.01 0.01zm0 -0.07c0.01,0 0.01,-0.01 0.01,-0.01 0,-0.01 -0.01,-0.01 -0.01,-0.01 -0.01,0 -0.01,0.01 -0.01,0.01 0,0.01 0.01,0.01 0.01,0.01zm0 -0.02c0.01,0 0.01,0 0.01,0.01 0,0.01 -0,0.01 -0.01,0.01 -0.01,0 -0.01,-0 -0.01,-0.01 0,-0.01 0,-0.01 0.01,-0.01zm0 -0c0,0 0,-0 0,-0l0 -0c0,-0 -0,-0 -0,-0 -0,0 -0,0 -0,0l0 0c0,0 0,0 0,0zm-0 0.03l0 0c0,0 0,0 0,0 0,0 0,-0 0,-0l0 -0c0,-0 -0,-0 -0,-0 -0,0 -0,0 -0,0zm0.02 -0.01l0 0c0,0 0,-0 0,-0 0,-0 -0,-0 -0,-0l-0 0c-0,0 -0,0 -0,0 0,0 0,0 0,0zm-0.03 0l0 0c0,0 0,-0 0,-0 0,-0 -0,-0 -0,-0l-0 0c-0,0 -0,0 -0,0 0,0 0,0 0,0zm0.03 -0.01c0,0 0,-0 0,-0l0 -0c0,-0 0,-0 0,-0 -0,-0 -0,-0 -0,0l-0 0c-0,0 -0,0 0,0 0,0 0,0 0,0zm-0.02 0.02c0,0 0,-0 0,-0l0 -0c0,-0 0,-0 0,-0 -0,-0 -0,-0 -0,0l-0 0c-0,0 -0,0 0,0 0,0 0,0 0,0zm0.02 -0c-0,-0 -0,-0 -0,0 -0,0 -0,0 0,0l0 0c0,0 0,0 0,0 0,0 0,-0 0,-0 0,-0 0,-0 0,-0l-0 -0zm-0.02 -0.02c0,0 0,0 0,0 0,0 0,-0 0,-0 0,-0 0,-0 0,-0l-0 -0c-0,-0 -0,-0 -0,0 -0,0 -0,0 0,0l0 0zm0.01 -0.02c0.03,0 0.05,0.01 0.07,0.03 0.02,0.02 0.03,0.04 0.03,0.07 0,0.01 -0,0.02 -0,0.03l-0 0c0,-0.01 0,-0.02 0,-0.03 0,-0.03 -0.01,-0.05 -0.03,-0.07 -0.02,-0.02 -0.04,-0.03 -0.07,-0.03 -0.03,0 -0.05,0.01 -0.07,0.03 -0.02,0.02 -0.03,0.04 -0.03,0.07 0,0.01 0,0.02 0,0.03l-0 0c-0,-0.01 -0,-0.02 -0,-0.03 0,-0.03 0.01,-0.05 0.03,-0.07 0.02,-0.02 0.04,-0.03 0.07,-0.03zm0.05 0.18c-0.01,0.01 -0.03,0.01 -0.05,0.01 -0.02,0 -0.03,-0 -0.05,-0.01l0.01 0c0.01,0.01 0.03,0.01 0.04,0.01 0.02,0 0.03,-0 0.04,-0.01l0.01 0zm-0.12 0l0 0.01c0,0 0,0 0,0 0,0 0,0 0,0l0.01 -0c0,-0 0,0 0.01,0 0,0 0,0 0,0l0.01 0.01c0,0 0,0 0,0 0,0 0,0 0,-0l0 0 0.01 -0.01c0,-0 0,-0 0.01,-0 0,0 0,0 0.01,0l0.01 0.01 0 0c0,0 0,0 0,0 0,-0 0,-0 0,-0l0.01 -0.01c0,-0 0,-0 0,-0 0,-0 0,-0 0.01,-0l0.01 0c0,0 0,-0 0,-0 0,-0 0,-0 0,-0l0 -0.01 0 0 -0 0.01c-0,0 -0,0 -0,0.01 -0,0 -0,0 -0.01,0l-0.01 -0c-0,-0 -0,0 -0,0 -0,0 -0,0 -0,0l-0.01 0.01c-0,0 -0,0 -0.01,0 -0,0 -0.01,0 -0.01,-0l0 -0 -0.01 -0.01c-0,-0 -0,-0 -0,-0 -0,0 -0,0 -0,0l-0.01 0.01 0 0c-0,0 -0,0 -0.01,0 -0,-0 -0,-0 -0.01,-0l-0.01 -0.01c-0,-0 -0,-0 -0,-0 -0,-0 -0,-0 -0,-0l-0.01 0c-0,0 -0.01,-0 -0.01,-0 -0,-0 -0,-0 -0,-0.01l-0 -0.01 0 0z"/>
 </g>
</svg>
