<?xml version="1.0" encoding="UTF-8"?>
<!DOCTYPE svg PUBLIC "-//W3C//DTD SVG 1.1//EN" "http://www.w3.org/Graphics/SVG/1.1/DTD/svg11.dtd">
<!-- Creator: CorelDRAW -->
<svg xmlns="http://www.w3.org/2000/svg" xml:space="preserve" width="20.7234mm" height="20.7234mm" version="1.1" style="shape-rendering:geometricPrecision; text-rendering:geometricPrecision; image-rendering:optimizeQuality; fill-rule:evenodd; clip-rule:evenodd"
viewBox="0 0 2.16 2.16"
 xmlns:xlink="http://www.w3.org/1999/xlink"
 xmlns:xodm="http://www.corel.com/coreldraw/odm/2003">
 <defs>
  <style type="text/css">
   <![CDATA[
    .fil0 {fill:#FF7C29;fill-rule:nonzero}
   ]]>
  </style>
 </defs>
 <g id="Layer_x0020_1">
  <metadata id="CorelCorpID_0Corel-Layer"/>
  <path class="fil0" d="M2.05 1.13c-0.01,-0.02 -0.01,-0.03 -0.01,-0.05 0,-0.02 0,-0.03 0.01,-0.05l0.06 -0.11 0 -0c0.01,-0.01 0.01,-0.03 0.01,-0.04 -0,-0.01 -0.01,-0.03 -0.02,-0.04l-0.1 -0.08c-0.01,-0.01 -0.03,-0.03 -0.03,-0.04 -0.01,-0.02 -0.01,-0.03 -0.01,-0.05l0.02 -0.13c0,-0.02 -0,-0.03 -0.01,-0.04 -0.01,-0.01 -0.02,-0.02 -0.04,-0.03l-0.12 -0.03c-0.02,-0 -0.03,-0.01 -0.05,-0.03l-0 -0c-0.01,-0.01 -0.02,-0.03 -0.03,-0.05l-0.03 -0.12c-0,-0.02 -0.01,-0.03 -0.03,-0.04 -0.01,-0.01 -0.03,-0.01 -0.04,-0.01l-0.13 0.02c-0.02,0 -0.04,-0 -0.05,-0.01 -0.02,-0.01 -0.03,-0.02 -0.04,-0.03l-0.08 -0.1c-0.01,-0.01 -0.02,-0.02 -0.04,-0.02 -0.01,-0 -0.03,-0 -0.04,0.01l-0 0 -0.11 0.06c-0.02,0.01 -0.03,0.01 -0.05,0.01 -0.02,0 -0.03,-0 -0.05,-0.01l-0.11 -0.06 -0 0c-0.01,-0.01 -0.03,-0.01 -0.04,-0.01 -0.01,0 -0.03,0.01 -0.04,0.02l-0.08 0.1c-0.01,0.01 -0.03,0.03 -0.04,0.03 -0.02,0.01 -0.03,0.01 -0.05,0.01l-0.13 -0.02c-0.02,-0 -0.03,0 -0.04,0.01 -0.01,0.01 -0.02,0.02 -0.03,0.04l-0.03 0.12c-0,0.02 -0.01,0.03 -0.03,0.05 -0.01,0.01 -0.03,0.02 -0.05,0.03l-0.12 0.03c-0.02,0 -0.03,0.01 -0.04,0.03 -0.01,0.01 -0.01,0.03 -0.01,0.04l0.02 0.13c0,0.02 -0,0.04 -0.01,0.05 -0.01,0.02 -0.02,0.03 -0.03,0.04l-0.1 0.08c-0.01,0.01 -0.02,0.02 -0.02,0.04 -0,0.01 -0,0.03 0.01,0.04l0 0 0.06 0.11c0.01,0.02 0.01,0.03 0.01,0.05 0,0.02 -0,0.03 -0.01,0.05l-0.06 0.11 0 0c-0.01,0.01 -0.01,0.03 -0.01,0.04 0,0.01 0.01,0.03 0.02,0.04l0.01 0.01 -0.06 0c-0.01,-0.01 -0.01,-0.03 -0.02,-0.04 -0,-0.02 -0,-0.05 0.01,-0.07l0 0 0.06 -0.11c0.01,-0.01 0.01,-0.02 0.01,-0.03 0,-0.01 -0,-0.02 -0.01,-0.03l-0.06 -0.11 -0 0c-0.01,-0.02 -0.02,-0.05 -0.01,-0.07 0,-0.02 0.02,-0.05 0.04,-0.06l0.1 -0.08c0.01,-0.01 0.02,-0.02 0.02,-0.03 0,-0.01 0.01,-0.02 0,-0.03l-0.02 -0.13c-0,-0.03 0,-0.05 0.02,-0.07 0.01,-0.02 0.03,-0.04 0.06,-0.04l0.12 -0.03c0.01,-0 0.02,-0.01 0.03,-0.02 0.01,-0.01 0.01,-0.02 0.02,-0.03l0.03 -0.12c0.01,-0.02 0.02,-0.04 0.04,-0.06 0.02,-0.01 0.04,-0.02 0.07,-0.02l0.13 0.02c0.01,0 0.02,-0 0.03,-0 0.01,-0 0.02,-0.01 0.03,-0.02l0.08 -0.1c0.02,-0.02 0.04,-0.03 0.06,-0.04 0.02,-0 0.05,-0 0.07,0.01l0 0 0.11 0.06c0.01,0.01 0.02,0.01 0.03,0.01 0.01,0 0.02,-0 0.03,-0.01l0.11 -0.06 -0 -0c0.02,-0.01 0.05,-0.02 0.07,-0.01 0.02,0 0.05,0.02 0.06,0.04l0.08 0.1c0.01,0.01 0.02,0.02 0.03,0.02 0.01,0 0.02,0.01 0.03,0l0.13 -0.02c0.03,-0 0.05,0 0.07,0.02 0.02,0.01 0.04,0.03 0.04,0.06l0.03 0.12c0,0.01 0.01,0.02 0.02,0.03l0 0c0.01,0.01 0.02,0.01 0.03,0.02l0.12 0.03c0.02,0.01 0.04,0.02 0.06,0.04 0.01,0.02 0.02,0.04 0.02,0.07l-0.02 0.13c-0,0.01 0,0.02 0,0.03 0,0.01 0.01,0.02 0.02,0.03l0.1 0.08c0.02,0.02 0.03,0.04 0.04,0.06 0,0.02 0,0.05 -0.01,0.07l-0 0 -0.06 0.11c-0.01,0.01 -0.01,0.02 -0.01,0.03 0,0.01 0,0.02 0.01,0.03l0.06 0.11 0 -0c0.01,0.02 0.02,0.05 0.01,0.07 -0,0.01 -0.01,0.03 -0.02,0.04l-0.06 0 0.01 -0.01c0.01,-0.01 0.02,-0.02 0.02,-0.04 0,-0.01 0,-0.03 -0.01,-0.04l0 -0 -0.06 -0.11zm-1.88 0.67c0.03,0 0.07,-0.01 0.09,-0.03l0 -0.2 -0.1 0 0 0.08 0.03 0 0 0.06c-0.01,0 -0.02,0.01 -0.03,0.01 -0.04,0 -0.05,-0.04 -0.05,-0.12l0 -0.02c0,-0.07 0.01,-0.12 0.06,-0.12 0.03,0 0.05,0.01 0.06,0.02l0 -0.08c-0.01,-0.01 -0.04,-0.02 -0.07,-0.02 -0.07,0 -0.13,0.05 -0.13,0.21l0 0.01c0,0.15 0.05,0.21 0.12,0.21zm0.23 0c0.07,0 0.1,-0.05 0.1,-0.16l0 -0.26 -0.06 0 0 0.26c0,0.05 -0.01,0.08 -0.04,0.08 -0.03,0 -0.04,-0.02 -0.04,-0.07l0 -0.26 -0.07 0 0 0.27c0,0.1 0.04,0.15 0.1,0.15zm0.23 -0.3l0 0 0.03 0.14 -0.05 0 0.03 -0.14zm-0.11 0.29l0.06 0 0.02 -0.08 0.08 0 0.02 0.08 0.07 0 -0.08 -0.41 -0.07 0 -0.08 0.41zm0.33 -0.22l0 -0.11 0.02 0c0.02,0 0.03,0.02 0.03,0.06 0,0.04 -0.01,0.06 -0.03,0.06l-0.03 0zm-0.07 0.22l0.07 0 0 -0.15 0.03 0 0.04 0.15 0.07 0 -0.05 -0.18 0 -0c0.03,-0.02 0.04,-0.05 0.04,-0.1 0,-0.09 -0.03,-0.13 -0.09,-0.13l-0.1 0 0 0.41zm0.33 -0.29l0 0 0.03 0.14 -0.05 0 0.03 -0.14zm-0.11 0.29l0.06 0 0.02 -0.08 0.08 0 0.02 0.08 0.07 0 -0.08 -0.41 -0.07 0 -0.08 0.41zm0.27 0l0.06 0 0 -0.26 0 0 0.09 0.26 0.06 0 0 -0.41 -0.06 0 0 0.23 -0 0 -0.08 -0.23 -0.07 0 0 0.41zm0.3 0l0.07 0 0 -0.33 0.06 0 0 -0.08 -0.19 0 0 0.08 0.06 0 0 0.33zm0.16 0l0.17 0 0 -0.08 -0.1 0 0 -0.09 0.08 0 0 -0.08 -0.08 0 0 -0.08 0.1 0 0 -0.08 -0.17 0 0 0.41zm0.21 0l0.17 0 0 -0.08 -0.1 0 0 -0.09 0.08 0 0 -0.08 -0.08 0 0 -0.08 0.1 0 0 -0.08 -0.17 0 0 0.41zm-0.37 -1.03c0,-0 0,-0 -0,-0 0,-0 -0,-0 -0,-0l-0.11 -0.13c-0,-0 -0,-0.01 -0.01,-0.01l-0.77 0c-0,0 -0.01,0 -0.01,0l-0.11 0.13c-0,0 -0,0 -0,0l0 0 0 0.04c0,0.01 0,0.01 0.01,0.01l0.02 0 0 0.35c0,0.01 0,0.01 0.01,0.01l0.33 0c0.02,0.06 0.07,0.1 0.14,0.1 0.06,0 0.12,-0.04 0.14,-0.1l0.33 0c0.01,0 0.01,-0 0.01,-0.01l0 -0.35 0.02 0c0.01,0 0.01,-0 0.01,-0.01l0 -0.04zm-0.03 -0.01l-0.13 0 0.06 -0.09 0.07 0.09zm-0.09 -0.1l-0.07 0.1 -0.07 0 0.07 -0.11 0.07 0 0 0.01zm-0.24 0.1l0.07 -0.11 0.07 0 -0.07 0.11 -0.07 0zm-0.1 0l0.07 -0.11 0.07 0 -0.07 0.11 -0.07 0zm-0.1 0l0.07 -0.11 0.07 0 -0.07 0.11 -0.07 0zm-0.1 0l0.07 -0.11 0.07 0 -0.07 0.11 -0.07 0zm-0.1 0l0.07 -0.11 0.07 0 -0.07 0.11 -0.07 0zm-0.1 0l0.07 -0.11 0.07 0 -0.07 0.11 -0.07 0zm-0.03 -0.11l0.07 0 -0.07 0.11 -0.09 0 0.09 -0.11zm-0.07 0.52l0 -0.34 0.04 0 0 0.29c0,0.01 0,0.01 0.01,0.01l0.26 0c-0,0.01 -0,0.01 -0,0.02 0,0.01 0,0.01 0,0.02l-0.31 0zm0.41 -0.34l0 0.18c-0.04,0.01 -0.08,0.05 -0.09,0.09l-0.25 0 0 -0.28 0.34 0zm0.43 0l0 0.28 -0.25 0c-0.01,-0.04 -0.05,-0.08 -0.09,-0.09l0 -0.18 0.34 0zm-0.37 0.18c-0.01,-0 -0.01,-0 -0.02,-0 -0.01,0 -0.01,0 -0.02,0l0 -0.18 0.04 0 0 0.18zm-0.02 0.26c-0.07,0 -0.12,-0.05 -0.12,-0.12 0,-0.07 0.05,-0.12 0.12,-0.12 0.07,0 0.12,0.05 0.12,0.12 0,0.07 -0.05,0.12 -0.12,0.12zm0.45 -0.1l-0.31 0c0,-0.01 0,-0.01 0,-0.02 0,-0.01 -0,-0.01 -0,-0.02l0.26 0c0.01,0 0.01,-0 0.01,-0.01l0 -0.29 0.04 0 0 0.34zm0.03 -0.37l-0.97 0 0 -0.02 0.97 0 0 0.02zm-0.43 0.3l-0.03 0 0.01 -0.03c0,-0 0,-0.01 0,-0.01 -0,-0 -0.01,-0.01 -0.01,-0.01l-0.07 0c-0,0 -0.01,0 -0.01,0.01l-0.03 0.08c-0,0 -0,0.01 0,0.01 0,0 0.01,0 0.01,0l0.03 0 -0.03 0.06c-0,0 0,0.01 0,0.01 0,0 0,0 0.01,0 0,0 0.01,-0 0.01,-0l0.11 -0.11c0,-0 0,-0.01 0,-0.01 -0,-0 -0.01,-0 -0.01,-0zm-0.08 0.07l0.01 -0.02c0,-0 0,-0.01 -0,-0.01 -0,-0 -0.01,-0 -0.01,-0l-0.03 0 0.02 -0.06 0.04 0 -0.01 0.03c-0,0 -0,0.01 0,0.01 0,0 0.01,0.01 0.01,0.01l0.02 0 -0.05 0.05zm0.02 -0.63c0.06,0 0.11,-0.05 0.11,-0.11 0,-0.06 -0.05,-0.11 -0.11,-0.11 -0.06,0 -0.11,0.05 -0.11,0.11 0,0.06 0.05,0.11 0.11,0.11zm0 -0.2c0.05,0 0.09,0.04 0.09,0.09 0,0.05 -0.04,0.09 -0.09,0.09 -0.05,0 -0.09,-0.04 -0.09,-0.09 0,-0.05 0.04,-0.09 0.09,-0.09zm0 -0.03c0.01,0 0.01,-0 0.01,-0.01l0 -0.02c0,-0.01 -0,-0.01 -0.01,-0.01 -0.01,0 -0.01,0 -0.01,0.01l0 0.02c0,0.01 0,0.01 0.01,0.01zm-0.01 0.25l0 0.02c0,0.01 0,0.01 0.01,0.01 0.01,0 0.01,-0 0.01,-0.01l0 -0.02c0,-0.01 -0,-0.01 -0.01,-0.01 -0.01,0 -0.01,0 -0.01,0.01zm0.14 -0.12l0.02 0c0.01,0 0.01,-0 0.01,-0.01 0,-0.01 -0,-0.01 -0.01,-0.01l-0.02 0c-0.01,0 -0.01,0 -0.01,0.01 0,0.01 0,0.01 0.01,0.01zm-0.29 0l0.02 0c0.01,0 0.01,-0 0.01,-0.01 0,-0.01 -0,-0.01 -0.01,-0.01l-0.02 0c-0.01,0 -0.01,0 -0.01,0.01 0,0.01 0,0.01 0.01,0.01zm0.25 -0.09c0,0 0.01,-0 0.01,-0l0.02 -0.02c0,-0 0,-0.01 0,-0.02 -0,-0 -0.01,-0 -0.02,0l-0.02 0.02c-0,0 -0,0.01 0,0.02 0,0 0,0 0.01,0zm-0.2 0.2c0,0 0.01,-0 0.01,-0l0.02 -0.02c0,-0 0,-0.01 0,-0.02 -0,-0 -0.01,-0 -0.02,0l-0.02 0.02c-0,0 -0,0.01 0,0.02 0,0 0,0 0.01,0zm0.21 -0.03c-0,-0 -0.01,-0 -0.02,0 -0,0 -0,0.01 0,0.02l0.02 0.02c0,0 0.01,0 0.01,0 0,0 0.01,-0 0.01,-0 0,-0 0,-0.01 0,-0.02l-0.02 -0.02zm-0.2 -0.17c0,0 0.01,0 0.01,0 0,0 0.01,-0 0.01,-0 0,-0 0,-0.01 0,-0.02l-0.02 -0.02c-0,-0 -0.01,-0 -0.02,0 -0,0 -0,0.01 0,0.02l0.02 0.02zm0.12 -0.18c0.25,0 0.48,0.1 0.64,0.27 0.16,0.16 0.27,0.39 0.27,0.64 0,0.09 -0.01,0.17 -0.04,0.25l-0.03 0c0.02,-0.08 0.04,-0.17 0.04,-0.25 0,-0.24 -0.1,-0.46 -0.26,-0.62 -0.16,-0.16 -0.38,-0.26 -0.62,-0.26 -0.24,0 -0.46,0.1 -0.62,0.26 -0.16,0.16 -0.26,0.38 -0.26,0.62 0,0.09 0.01,0.17 0.04,0.25l-0.03 0c-0.02,-0.08 -0.04,-0.17 -0.04,-0.25 0,-0.25 0.1,-0.48 0.27,-0.64 0.16,-0.16 0.39,-0.27 0.64,-0.27zm0.46 1.69c-0.14,0.08 -0.29,0.13 -0.46,0.13 -0.17,0 -0.33,-0.05 -0.46,-0.13l0.05 0c0.12,0.06 0.26,0.1 0.41,0.1 0.15,0 0.29,-0.04 0.41,-0.1l0.05 0zm-1.1 0l0.02 0.07c0,0.02 0.01,0.03 0.03,0.04 0.01,0.01 0.03,0.01 0.04,0.01l0.13 -0.02c0.02,-0 0.04,0 0.05,0.01 0.02,0.01 0.03,0.02 0.04,0.03l0.08 0.1c0.01,0.01 0.02,0.02 0.04,0.02 0.01,0 0.03,0 0.04,-0.01l0 0 0.11 -0.06c0.02,-0.01 0.03,-0.01 0.05,-0.01 0.02,0 0.03,0 0.05,0.01l0.11 0.06 0 0c0.01,0.01 0.03,0.01 0.04,0.01 0.01,-0 0.03,-0.01 0.04,-0.02l0.08 -0.1c0.01,-0.01 0.03,-0.03 0.04,-0.03 0.02,-0.01 0.03,-0.01 0.05,-0.01l0.13 0.02c0.02,0 0.03,-0 0.04,-0.01 0.01,-0.01 0.02,-0.02 0.03,-0.04l0.02 -0.07 0.04 0 -0.02 0.08c-0.01,0.02 -0.02,0.04 -0.04,0.06 -0.02,0.01 -0.04,0.02 -0.07,0.02l-0.13 -0.02c-0.01,-0 -0.02,0 -0.03,0 -0.01,0 -0.02,0.01 -0.03,0.02l-0.08 0.1c-0.02,0.02 -0.04,0.03 -0.06,0.04 -0.02,0 -0.05,0 -0.07,-0.01l0 -0 -0.11 -0.06c-0.01,-0.01 -0.02,-0.01 -0.03,-0.01 -0.01,0 -0.02,0 -0.03,0.01l-0.11 0.06 0 0c-0.02,0.01 -0.05,0.02 -0.07,0.01 -0.02,-0 -0.05,-0.02 -0.06,-0.04l-0.08 -0.1c-0.01,-0.01 -0.02,-0.02 -0.03,-0.02 -0.01,-0 -0.02,-0.01 -0.03,-0l-0.13 0.02c-0.03,0 -0.05,-0 -0.07,-0.02 -0.02,-0.01 -0.04,-0.03 -0.04,-0.06l-0.02 -0.08 0.04 0z"/>
 </g>
</svg>
