<?xml version="1.0" encoding="UTF-8"?>
<!DOCTYPE svg PUBLIC "-//W3C//DTD SVG 1.1//EN" "http://www.w3.org/Graphics/SVG/1.1/DTD/svg11.dtd">
<!-- Creator: CorelDRAW -->
<svg xmlns="http://www.w3.org/2000/svg" xml:space="preserve" width="6.8482mm" height="7.6052mm" version="1.1" style="shape-rendering:geometricPrecision; text-rendering:geometricPrecision; image-rendering:optimizeQuality; fill-rule:evenodd; clip-rule:evenodd"
viewBox="0 0 0.24 0.26"
 xmlns:xlink="http://www.w3.org/1999/xlink"
 xmlns:xodm="http://www.corel.com/coreldraw/odm/2003">
 <defs>
  <style type="text/css">
   <![CDATA[
    .str0 {stroke:#FECA17;stroke-width:0;stroke-miterlimit:22.9256}
    .str1 {stroke:#FECA17;stroke-width:0;stroke-miterlimit:22.9256}
    .fil4 {fill:#94C11F;fill-rule:nonzero}
    .fil5 {fill:#C7D309;fill-rule:nonzero}
    .fil6 {fill:#E7E00B;fill-rule:nonzero}
    .fil3 {fill:#E95C0C;fill-rule:nonzero}
    .fil1 {fill:#F08D04;fill-rule:nonzero}
    .fil2 {fill:#F7A609;fill-rule:nonzero}
    .fil0 {fill:#FECA05;fill-rule:nonzero}
    .fil7 {fill:#FECA17;fill-rule:nonzero}
    .fil8 {fill:white;fill-rule:nonzero}
   ]]>
  </style>
 </defs>
 <g id="Layer_x0020_1">
  <metadata id="CorelCorpID_0Corel-Layer"/>
  <g>
   <path class="fil0" d="M0.09 0.04l-0.02 -0.03c-0.03,0.01 -0.05,0.04 -0.05,0.07l0.04 0.01c0,-0.02 0.02,-0.04 0.03,-0.05l0 -0zm0 0l0 0 0 0z"/>
  </g>
  <g>
   <path class="fil1" d="M0.05 0.1c0,0 0,-0 0,-0 0,-0 0,-0.01 0,-0.01l-0.04 -0.01c-0,0.01 -0,0.01 -0,0.02 0,0.01 0,0.02 0,0.02l0.04 -0.01c-0,-0.01 -0,-0.01 -0,-0.02 0,-0 0,-0 0,-0l0 0zm0 0l0 0 0 0z"/>
  </g>
  <g>
   <path class="fil2" d="M0.06 0.12l-0.04 0.01c0,0.01 0.01,0.02 0.01,0.03l0.03 -0.02c-0,-0.01 -0.01,-0.01 -0.01,-0.02l0 -0zm0 0l0 0 0 0z"/>
  </g>
  <g>
   <path class="fil3" d="M0.06 0.14l-0.03 0.02c0,0.01 0.01,0.01 0.02,0.02 -0.01,0 -0.02,0.01 -0.04,0.01 0,0 0.02,0.01 0.05,0.02l0.02 -0.05c-0.01,-0.01 -0.02,-0.01 -0.03,-0.02l0 0zm0 0l0 0 0 0z"/>
  </g>
  <g>
   <path class="fil2" d="M0.12 0.16c-0,-0 -0,-0 -0,-0 -0.01,0 -0.02,-0 -0.03,-0.01l-0.02 0.05c0.01,0 0.02,0 0.03,0 0.01,0 0.01,-0 0.02,-0l-0 -0.04c-0,0 -0,0 -0,0l0 0zm0 0l0 0 0 0z"/>
  </g>
  <g>
   <path class="fil4" d="M0.12 0.16l0 0.04c0.01,-0 0.02,-0 0.03,-0.01l-0 -0c0.01,-0 0.02,-0.01 0.02,-0.01l-0.02 -0.03c-0.01,0.01 -0.02,0.01 -0.03,0.01l0 -0zm0 0l0 0 0 0z"/>
  </g>
  <g>
   <path class="fil5" d="M0.18 0.1c0,0 0,0 0,0 0,0.02 -0.01,0.04 -0.03,0.06l0.02 0.03c0.01,-0.01 0.03,-0.02 0.04,-0.04l0 -0c0.01,-0.02 0.01,-0.03 0.01,-0.05 0,-0.01 -0,-0.01 -0,-0.02l-0.04 0.01c0,0 0,0.01 0,0.01 0,0 0,0 0,0l0 0zm0 0l0 0 0 0z"/>
  </g>
  <g>
   <path class="fil6" d="M0.12 0c-0,0 -0,-0 -0,-0 -0.02,0 -0.03,0 -0.05,0.01l0.02 0.03c0.01,-0 0.02,-0.01 0.03,-0.01 0.03,0 0.06,0.02 0.06,0.05l0.04 -0.01c-0.01,-0.05 -0.05,-0.08 -0.1,-0.08l0 -0zm0 0l0 0 0 0z"/>
  </g>
  <polygon class="fil7 str0" points="0.04,0.24 0.03,0.24 0.02,0.23 0.01,0.24 0,0.24 0.01,0.25 0.01,0.26 0.02,0.26 0.03,0.26 0.03,0.25 "/>
  <polygon class="fil7 str0" points="0.09,0.24 0.08,0.24 0.07,0.23 0.06,0.24 0.05,0.24 0.06,0.25 0.06,0.26 0.07,0.26 0.08,0.26 0.08,0.25 "/>
  <polygon class="fil7 str0" points="0.14,0.24 0.13,0.24 0.12,0.23 0.11,0.24 0.1,0.24 0.11,0.25 0.11,0.26 0.12,0.26 0.13,0.26 0.13,0.25 "/>
  <polygon class="fil7 str0" points="0.19,0.24 0.18,0.24 0.17,0.23 0.16,0.24 0.15,0.24 0.16,0.25 0.16,0.26 0.17,0.26 0.18,0.26 0.18,0.25 "/>
  <polygon class="fil7 str1" points="0.24,0.24 0.22,0.24 0.22,0.23 0.21,0.24 0.2,0.24 0.21,0.25 0.2,0.26 0.22,0.26 0.23,0.26 0.23,0.25 "/>
  <path class="fil8" d="M0.08 0.13l0.02 0 0 -0.06 -0.01 0 -0.02 0.01 0 0.01 0.01 -0 0 0.05zm0.05 0c0.01,0 0.03,-0.01 0.03,-0.03l0 -0c0,-0.02 -0.01,-0.03 -0.03,-0.03 -0.01,0 -0.03,0.01 -0.03,0.03l0 0c0,0.02 0.01,0.03 0.03,0.03zm0 -0.01c-0.01,0 -0.01,-0.01 -0.01,-0.02l0 -0c0,-0.01 0,-0.02 0.01,-0.02 0.01,0 0.01,0.01 0.01,0.02l0 0c0,0.01 -0,0.02 -0.01,0.02z"/>
 </g>
</svg>
