<?xml version="1.0" encoding="UTF-8"?>
<!DOCTYPE svg PUBLIC "-//W3C//DTD SVG 1.1//EN" "http://www.w3.org/Graphics/SVG/1.1/DTD/svg11.dtd">
<!-- Creator: CorelDRAW -->
<svg xmlns="http://www.w3.org/2000/svg" xml:space="preserve" width="21.0845mm" height="23.4158mm" version="1.1" style="shape-rendering:geometricPrecision; text-rendering:geometricPrecision; image-rendering:optimizeQuality; fill-rule:evenodd; clip-rule:evenodd"
viewBox="0 0 2.25 2.5"
 xmlns:xlink="http://www.w3.org/1999/xlink"
 xmlns:xodm="http://www.corel.com/coreldraw/odm/2003">
 <defs>
  <style type="text/css">
   <![CDATA[
    .str1 {stroke:#FECA17;stroke-width:0.01;stroke-miterlimit:22.9256}
    .str0 {stroke:#FECA17;stroke-width:0.01;stroke-miterlimit:22.9256}
    .fil0 {fill:white}
    .fil9 {fill:black;fill-rule:nonzero}
    .fil5 {fill:#94C11F;fill-rule:nonzero}
    .fil6 {fill:#C7D309;fill-rule:nonzero}
    .fil7 {fill:#E7E00B;fill-rule:nonzero}
    .fil4 {fill:#E95C0C;fill-rule:nonzero}
    .fil2 {fill:#F08D04;fill-rule:nonzero}
    .fil3 {fill:#F7A609;fill-rule:nonzero}
    .fil1 {fill:#FECA05;fill-rule:nonzero}
    .fil8 {fill:#FECA17;fill-rule:nonzero}
   ]]>
  </style>
 </defs>
 <g id="Layer_x0020_1">
  <metadata id="CorelCorpID_0Corel-Layer"/>
  <circle class="fil0" cx="1.13" cy="0.96" r="0.67"/>
  <g>
   <path class="fil1" d="M0.84 0.41l-0.16 -0.3c-0.26,0.14 -0.45,0.39 -0.5,0.68l0.34 0.06c0.03,-0.19 0.15,-0.36 0.32,-0.45l0 0zm0 0l0 0 0 0z"/>
  </g>
  <g>
   <path class="fil2" d="M0.51 0.95c0,0 0,-0 0,-0 0,-0.03 0,-0.06 0.01,-0.1l-0.34 -0.06c-0.01,0.06 -0.02,0.12 -0.02,0.18 0,0.07 0.01,0.15 0.02,0.22l0.34 -0.08c-0.01,-0.05 -0.02,-0.1 -0.02,-0.16 0,-0 0,-0 0,-0l0 0zm0 0l0 0 0 0z"/>
  </g>
  <g>
   <path class="fil3" d="M0.53 1.11l-0.34 0.08c0.02,0.1 0.06,0.2 0.12,0.29l0.3 -0.19c-0.04,-0.06 -0.07,-0.12 -0.08,-0.18l0 0zm0 0l0 0 0 0z"/>
  </g>
  <g>
   <path class="fil4" d="M0.62 1.29l-0.3 0.19c0.04,0.07 0.1,0.14 0.16,0.2 -0.11,0.03 -0.22,0.06 -0.33,0.08 0.01,0.01 0.2,0.14 0.49,0.2l0.23 -0.45c-0.1,-0.05 -0.18,-0.12 -0.24,-0.21l0 0zm0 0l0 0 0 0z"/>
  </g>
  <g>
   <path class="fil3" d="M1.13 1.56c-0,0 -0,0 -0,0 -0.09,0 -0.18,-0.02 -0.27,-0.06l-0.23 0.45c0.1,0.02 0.21,0.03 0.31,0.03 0.06,0 0.13,-0 0.19,-0.01l-0 -0.4c-0,0 -0,0 -0.01,0l0 0zm0 0l0 0 0 0z"/>
  </g>
  <g>
   <path class="fil5" d="M1.13 1.56l0 0.4c0.09,-0.01 0.18,-0.03 0.27,-0.06l-0 -0c0.08,-0.02 0.16,-0.06 0.24,-0.11l-0.2 -0.33c-0.09,0.06 -0.2,0.09 -0.31,0.09l0 -0zm0 0l0 0 0 0z"/>
  </g>
  <g>
   <path class="fil6" d="M1.74 0.95c0,0 0,0 0,0 0,0.21 -0.11,0.41 -0.3,0.52l0.2 0.33c0.14,-0.09 0.25,-0.21 0.33,-0.35l0 -0c0.08,-0.15 0.13,-0.31 0.13,-0.48 0,-0.07 -0.01,-0.14 -0.02,-0.2l-0.35 0.08c0.01,0.04 0.01,0.07 0.01,0.11 0,0 0,0 0,0l0 0zm0 0l0 0 0 0z"/>
  </g>
  <g>
   <path class="fil7" d="M1.15 0c-0,0 -0.01,-0 -0.01,-0 -0.16,0 -0.31,0.04 -0.45,0.11l0.16 0.3c0.09,-0.05 0.19,-0.07 0.29,-0.07 0.3,0 0.55,0.21 0.6,0.5l0.35 -0.08c-0.1,-0.44 -0.48,-0.76 -0.94,-0.76l0 -0zm0 0l0 0 0 0z"/>
  </g>
  <polygon class="fil8 str0" points="0.39,2.28 0.26,2.26 0.2,2.14 0.14,2.26 0.01,2.28 0.1,2.37 0.08,2.49 0.2,2.44 0.32,2.49 0.29,2.37 "/>
  <polygon class="fil8 str0" points="0.85,2.28 0.72,2.26 0.66,2.14 0.6,2.26 0.47,2.28 0.57,2.37 0.54,2.49 0.66,2.44 0.78,2.49 0.76,2.37 "/>
  <polygon class="fil8 str0" points="1.31,2.28 1.19,2.26 1.13,2.14 1.07,2.26 0.94,2.28 1.03,2.37 1.01,2.49 1.13,2.44 1.24,2.49 1.22,2.37 "/>
  <polygon class="fil8 str0" points="1.8,2.28 1.67,2.26 1.61,2.14 1.55,2.26 1.42,2.28 1.51,2.37 1.49,2.49 1.61,2.44 1.73,2.49 1.71,2.37 "/>
  <polygon class="fil8 str1" points="2.24,2.28 2.12,2.26 2.06,2.14 2,2.26 1.87,2.28 1.96,2.37 1.94,2.49 2.06,2.44 2.17,2.49 2.15,2.37 "/>
  <path class="fil9" d="M0.8 1.24l0.16 0 0 -0.59 -0.08 0 -0.16 0.07 0 0.09 0.09 -0.01 0 0.44zm0.49 0.01c0.13,0 0.25,-0.07 0.25,-0.29l0 -0.02c0,-0.21 -0.12,-0.3 -0.25,-0.3 -0.13,0 -0.25,0.08 -0.25,0.3l0 0.02c0,0.2 0.11,0.29 0.24,0.29zm0 -0.11c-0.06,0 -0.09,-0.06 -0.09,-0.18l0 -0.02c0,-0.12 0.02,-0.18 0.09,-0.18 0.06,0 0.09,0.06 0.09,0.18l0 0.02c0,0.13 -0.03,0.18 -0.09,0.18z"/>
 </g>
</svg>
