<svg xmlns="http://www.w3.org/2000/svg" xml:space="preserve" width="538.592mm" height="537.165mm" version="1.1" 
viewBox="0 0 573516.99 571997.67"
>
    <g id="Layer_x0020_1">
    <metadata id="CorelCorpID_0Corel-Layer"/>
    <path fill="white" d="M343629.14 300648.7l37775.58 37775.58 43466.86 -42031.77 0 161.43 31006.04 -29984.64 0 -155.57 10089.72 -9759.52 107549.64 -103999.66 -36820.1 -38110.05 -107549.64 103672.86 -85518.11 82431.34zm26424.87 49680.01l-37644.18 -37644.29 -20179.77 57655.28 57166.83 -19378.47 657.12 -632.52zm-1059.52 -180073.13l0 36495.53 -159389.69 -0.11 0 -36495.53 159389.69 0.11zm31006.15 -31167.58l-221398.91 0 0 98830.69 186226.44 0 35172.04 -33854.29 0.43 -64976.4zm14373.17 -28260.45c7266.61,645.72 10496.17,6136.7 10496.17,11466.04l0 57696.59c2403.57,-2306.77 4824.92,-4617.91 7266.61,-6911.27l23737.95 -23021.94 0 -31477.13c0,-484.29 -484.29,-2745.49 -645.72,-4036.72 -1291.34,-7105.07 -4198.26,-14534.39 -10334.96,-21155.27 -6298.24,-7105.07 -13887.49,-10657.71 -20346.95,-12434.83 -3229.78,-807.05 -6136.7,-968.48 -9366.59,-1291.34l-251920.55 0c-1452.77,161.43 -3068.35,161.43 -4198.26,322.86 -2099.87,322.86 -4198.26,807.05 -6136.7,1291.34 -1452.77,484.29 -3068.35,1129.91 -4198.26,1452.77 -1452.77,484.29 -2906.92,1452.77 -4359.47,2099.87 -11141.9,5490.98 -18894.29,18248.46 -20669.6,27291.97 -322.86,2099.87 -645.72,4359.47 -968.48,6459.35l0 343970.85c0,322.86 484.29,4359.47 968.48,6459.35 484.18,2099.87 1291.34,4036.72 1938.44,6136.7 484.29,968.48 1129.91,2261.2 1452.77,3229.78 5168.22,11627.57 19378.47,20669.6 29067.71,22124.07 2261.2,322.86 4521.01,807.05 6782.42,968.48l252566.7 -0.21c484.29,0 4198.26,-484.29 6136.7,-807.05 1938.44,-322.75 4845.15,-1129.91 6943.53,-1938.44 5329.76,-2099.87 10980.36,-5168.22 16310.12,-10980.36 5329.76,-5813.95 8236.57,-12434.83 9689.24,-18086.92 484.29,-2422.63 968.48,-4845.15 1291.34,-7266.61l0 -153349.25 -31006.04 30121.37 0 119514.13c161.43,6459.35 -5490.98,11627.57 -10173.42,11627.57l-250951.54 0c-7105.07,-968.48 -10011.88,-6459.35 -10011.88,-11466.04l0 -336378.82c161.43,-807.05 161.43,-1938.44 161.43,-2584.06 645.72,-5168.22 6298.24,-9366.59 10173.42,-9043.51l250305.4 -3.3zm-14618.19 300853.26l-220914.19 0 0 31006.04 220914.19 0 0 -31006.04zm-110456.99 -65239.74l-110457.2 0 0 31006.04 110457.2 0 0 -31006.04zm0 -71054.75l-110457.2 0 0 31005.94 110457.2 0 0 -31005.94z"/>
    </g>
</svg>
