<?xml version="1.0" encoding="UTF-8"?>
<svg width="1200pt" height="1200pt" version="1.1" viewBox="0 0 1200 1200" xmlns="http://www.w3.org/2000/svg">
 <g>
  <path fill="#f8452d" d="m273.6 663.6c-2.3984 0-6-1.1992-8.3984-2.3984-75.602-56.402-121.2-146.4-121.2-241.2 0-165.6 134.4-300 300-300 105.6 0 201.6 54 256.8 144 3.6016 6 2.3984 15.602-4.8008 19.199-6 3.6016-15.602 2.3984-19.199-4.8008-49.199-81.598-136.8-130.8-232.8-130.8-150 0-272.4 122.4-272.4 272.4 0 86.398 39.602 166.8 110.4 218.4 6 4.8008 7.1992 13.199 2.3984 19.199-2.3984 4.8008-7.1992 6.0039-10.797 6.0039z"/>
  <path fill="#f8452d" d="m691.2 187.2c-3.6016 0-7.1992-1.1992-9.6016-3.6016-6-6-6-14.398 0-19.199l44.398-44.398c6-6 14.398-6 19.199 0 6 6 6 14.398 0 19.199l-44.398 44.398c-2.3984 2.4023-5.9961 3.6016-9.5977 3.6016z"/>
  <path fill="#f8452d" d="m602.4 123.6c-2.3984 0-4.8008 0-6-1.1992-7.1992-3.6016-9.6016-12-6-19.199l28.801-55.199c3.6016-7.1992 12-9.6016 19.199-6 7.1992 3.6016 9.6016 12 6 19.199l-28.801 55.199c-3.5977 3.5977-8.3984 7.1992-13.199 7.1992z"/>
  <path fill="#f8452d" d="m499.2 90h-2.3984c-7.1992-1.1992-13.199-8.3984-12-15.602l9.5977-62.398c1.1992-7.1992 8.3984-13.199 15.602-12 7.1992 1.1992 13.199 8.3984 12 15.602l-9.6016 61.199c-1.1992 8.3984-7.1992 13.199-13.199 13.199z"/>
  <path fill="#f8452d" d="m390 90c-7.1992 0-12-4.8008-13.199-12l-9.6016-61.199c-1.1992-7.1992 3.6016-14.398 12-15.602 7.1992-1.1992 14.398 3.6016 15.602 12l9.6016 61.199c1.1992 7.1992-3.6016 14.398-12 15.602h-2.4023z"/>
  <path fill="#f8452d" d="m285.6 123.6c-4.8008 0-9.6016-2.3984-12-7.1992l-28.801-56.402c-3.6016-7.1992-1.1992-15.602 6-19.199 7.1992-3.6016 15.602-1.1992 19.199 6l28.801 55.199c3.6016 7.1992 1.1992 15.602-6 19.199-2.4023 1.1992-4.8008 2.4023-7.1992 2.4023z"/>
  <path fill="#f8452d" d="m198 187.2c-3.6016 0-7.1992-1.1992-9.6016-3.6016l-44.398-44.398c-6-6-6-14.398 0-19.199 6-6 14.398-6 19.199 0l44.398 44.398c6 6 6 14.398 0 19.199-3.5977 2.4023-5.9961 3.6016-9.5977 3.6016z"/>
  <path fill="#f8452d" d="m133.2 276c-2.3984 0-4.8008 0-6-1.1992l-55.199-28.801c-7.1992-3.6016-9.6016-12-6-19.199s12-9.6016 19.199-6l55.199 28.801c7.1992 3.6016 9.6016 12 6 19.199-3.5977 3.5977-8.3984 7.1992-13.199 7.1992z"/>
  <path fill="#f8452d" d="m99.602 379.2h-2.3984l-61.203-9.5977c-7.1992-1.1992-13.199-8.3984-12-15.602 1.1992-7.1992 8.3984-13.199 15.602-12l61.199 9.6016c7.1992 1.1992 13.199 8.3984 12 15.602-1.1992 7.1953-6 11.996-13.199 11.996z"/>
  <path fill="#f8452d" d="m37.199 498c-7.1992 0-12-4.8008-13.199-12s3.6016-14.398 12-15.602l61.199-9.6016c7.1992-1.1992 14.398 3.6016 15.602 12 1.1992 7.1992-3.6016 14.398-12 15.602l-61.199 9.6016h-2.4023z"/>
  <path fill="#f8452d" d="m78 620.4c-4.8008 0-9.6016-2.3984-12-7.1992-3.6016-7.1992-1.1992-15.602 6-19.199l55.199-28.801c7.1992-3.6016 15.602-1.1992 19.199 6 3.6016 7.1992 1.1992 15.602-6 19.199l-56.398 28.801c-2.3984 1.1992-4.8008 1.1992-6 1.1992z"/>
  <path fill="#f8452d" d="m153.6 724.8c-3.6016 0-7.1992-1.1992-9.6016-3.6016-6-6-6-14.398 0-19.199l44.398-44.398c6-6 14.398-6 19.199 0 6 6 6 14.398 0 19.199l-44.398 44.398c-2.3984 2.4023-6 3.6016-9.5977 3.6016z"/>
  <path fill="#f8452d" d="m1104 908.4h-451.2c-39.602 0-72-32.398-72-72v-451.2c0-39.602 32.398-72 72-72h451.2c39.602 0 72 32.398 72 72v451.2c0 39.602-32.398 72-72 72zm-451.2-567.6c-24 0-44.398 19.199-44.398 44.398v451.2c0 24 19.199 44.398 44.398 44.398l451.2 0.003906c24 0 44.398-19.199 44.398-44.398v-451.2c0-24-19.199-44.398-44.398-44.398z"/>
  <path fill="#f8452d" d="m1162.8 1200h-568.8c-7.1992 0-14.398-6-14.398-14.398 0-55.199 45.602-100.8 100.8-100.8h393.6c55.199 0 100.8 45.602 100.8 100.8 1.1953 8.3984-4.8047 14.398-12.004 14.398zm-553.2-27.602h537.6c-6-33.602-36-58.801-72-58.801l-393.6 0.003906c-36 0-64.801 25.199-72 58.797z"/>
  <path fill="#f8452d" d="m878.4 1113.6c-7.1992 0-14.398-6-14.398-14.398v-204c0-7.1992 6-14.398 14.398-14.398 7.1992 0 14.398 6 14.398 14.398v204c0.003906 7.1953-7.1953 14.398-14.398 14.398z"/>
  <path fill="#f8452d" d="m594 1200h-102c-45.602 0-81.602-37.199-81.602-81.602v-300c0-7.1992 6-14.398 14.398-14.398 7.1992 0 14.398 6 14.398 14.398v300c0 30 24 54 54 54h102c7.1992 0 14.398 6 14.398 14.398 0.007812 8.4023-7.1953 13.203-15.594 13.203z"/>
  <path fill="#f8452d" d="m820.8 734.4c-3.6016 0-7.1992-1.1992-9.6016-3.6016-6-6-6-14.398 0-19.199l91.199-91.199h-114l138-138c6-6 14.398-6 19.199 0 6 6 6 14.398 0 19.199l-90 90h114l-139.2 139.2c-2.3984 2.3984-6 3.5977-9.5977 3.5977z"/>
  <path fill="#f8452d" d="m465.6 688.8c-7.1992 0-14.398-6-14.398-14.398v-81.602c0-7.1992 6-14.398 14.398-14.398 7.1992 0 14.398 6 14.398 14.398v81.602c0 8.3984-7.1992 14.398-14.398 14.398z"/>
  <path fill="#f8452d" d="m381.6 688.8c-7.1992 0-14.398-6-14.398-14.398v-81.602c0-7.1992 6-14.398 14.398-14.398 7.1992 0 14.398 6 14.398 14.398v81.602c-1.1992 8.3984-7.1992 14.398-14.398 14.398z"/>
  <path fill="#f8452d" d="m423.6 830.4c-56.398 0-102-45.602-102-102v-67.199h205.2v67.199c-1.1992 56.402-46.801 102-103.2 102zm-75.602-141.6v39.602c0 40.801 33.602 74.398 74.398 74.398 40.801 0 74.398-33.602 74.398-74.398v-39.602z"/>
 </g>
</svg>
