<?xml version="1.0" encoding="UTF-8"?>
<svg width="1200pt" height="1200pt" version="1.1" viewBox="0 0 1200 1200" xmlns="http://www.w3.org/2000/svg">
 <path fill="#f8452d" d="m691.73 658.25h-195.88c-7.7539 0-14.039 6.2891-14.039 14.039v83.965c0 7.7539 6.2891 14.039 14.039 14.039h195.88c7.7539 0 14.039-6.2891 14.039-14.039v-83.965c0-7.7539-6.2891-14.039-14.039-14.039zm-14.039 83.965h-167.79v-55.871h167.79zm-128.69-275.43c0-44.953-36.574-81.527-81.527-81.527s-81.527 36.574-81.527 81.527 36.574 81.527 81.527 81.527 81.527-36.574 81.527-81.527zm-81.527 53.449c-29.473 0-53.449-23.977-53.449-53.449s23.977-53.449 53.449-53.449 53.449 23.977 53.449 53.449-23.977 53.449-53.449 53.449zm711.31 323.63-79.355-137.46c-1.8594-3.2266-4.9336-5.5781-8.5312-6.5391-2.4609-0.66016-5.0156-0.61328-7.4297 0.058594l-23.242-40.262c38.293-33.301 67.453-77.914 81.539-130.51 37.68-140.61-46.066-285.65-186.67-323.33-102.41-27.445-207.16 9.5391-271.08 85.98l-208.16-154.71c-4.9688-3.6953-11.785-3.6953-16.754 0l-440.43 327.32c-3.5625 2.6523-5.6641 6.8281-5.6641 11.27v119.91c0 5.3047 2.9883 10.164 7.7383 12.551 1.9922 1.0078 4.1523 1.5 6.3125 1.5 2.9648 0 5.9023-0.9375 8.375-2.7734l79.586-59.148v422.14h-45.695c-7.7539 0-14.039 6.2891-14.039 14.039v67.777c0 7.7539 6.2891 14.039 14.039 14.039l796.32 0.003906c7.7539 0 14.039-6.2891 14.039-14.039v-67.777c0-7.7539-6.2891-14.039-14.039-14.039h-45.695v-253.67c22.309 5.832 44.699 8.6523 66.758 8.6523 29.484 0 58.355-5.0039 85.547-14.363l23.23 40.234c-4.4883 4.3789-5.6406 11.387-2.3633 17.062l79.355 137.46c11.352 19.668 32.027 30.672 53.258 30.672 10.402 0 20.941-2.6406 30.59-8.207 14.148-8.1719 24.289-21.406 28.535-37.285 4.2461-15.875 2.1016-32.398-6.0703-46.559zm-1137.7-361.13 426.38-316.91 199.69 148.41c-12.66 18.926-22.992 39.77-30.539 62.219l-160.78-119.5c-4.9688-3.6953-11.785-3.6953-16.754 0l-418 310.7zm810.52 554.89-768.27 0.003906v-39.684h768.27v39.684zm-488.86-67.777h-105.48v-283.52h105.48zm28.094 0v-297.56c0-7.7539-6.2891-14.039-14.039-14.039h-133.57c-7.7539 0-14.039 6.2891-14.039 14.039v297.56h-86.09l-0.003907-443 324.38-241.11 161.15 119.77c-27.348 127.31 42.984 255.41 163.23 301.63v262.69h-401.04zm434.88-281.17c-125.65-33.672-200.48-163.29-166.81-288.93 28.211-105.28 123.77-174.88 227.93-174.88 20.148 0 40.633 2.6055 61.008 8.0625 125.65 33.672 200.48 163.29 166.81 288.93-28.211 105.28-123.77 174.89-227.93 174.88-20.148 0-40.633-2.6055-61.008-8.0625zm212.17-11.555 21.035 36.445-39.336 22.703-21.059-36.469c13.727-6.4336 26.902-14.004 39.348-22.68zm104.4 226.25c-15.898 9.1797-36.301 3.707-45.469-12.18l-72.336-125.29 57.66-33.289 72.336 125.29c9.1797 15.898 3.707 36.301-12.18 45.469zm-206.21-626.55c-101.46-27.191-206.11 33.238-233.3 134.7-27.18 101.46 33.238 206.12 134.7 233.3 16.453 4.4023 32.977 6.5156 49.262 6.5156 84.098 0 161.27-56.207 184.04-141.21 27.191-101.46-33.238-206.11-134.7-233.3zm107.57 226.03c-19.414 72.48-85.199 120.39-156.91 120.38-13.871 0-27.973-1.8008-42-5.5547-86.496-23.172-138.01-112.4-114.84-198.9 19.414-72.48 85.199-120.38 156.91-120.38 13.871 0 27.973 1.8008 42 5.5547 86.496 23.172 138.01 112.4 114.84 198.9z"/>
</svg>
