<?xml version="1.0" encoding="UTF-8"?>
<svg width="1200pt" height="1200pt" version="1.1" viewBox="0 0 1200 1200" xmlns="http://www.w3.org/2000/svg">
 <path fill="#03A9F3" d="m1108.1 211.11h-1016.1c-9.6094 0-17.434 7.8008-17.434 17.41v500.67c0 9.6094 7.8242 17.41 17.434 17.41h418.84l-1.3047 96.648c-62.16 6.6602-152.58 24.176-152.58 70.484 0 59.332 151.4 75.168 240.86 75.168 89.453 0 240.86-15.836 240.86-75.168 0-46.027-89.434-63.594-151.15-70.324l1.3086-96.805h419.31c9.6094 0 17.434-7.8008 17.434-17.41l0.007812-500.68c-0.007812-9.6055-7.8281-17.406-17.438-17.406zm-871.8 500.67h-32.48v-293.07h32.48zm126.66 0h-32.48v-199.93h32.48zm126.66-1.2344h-32.48v-134.39h32.48zm314.23 202.7c-4.8047 14.242-79.762 40.836-206.08 40.836-126.32 0-201.27-26.594-206.08-39.859 2.1953-6.582 34.742-26.203 117.32-35.758l-0.23828 17.562c-0.042969 4.6562 1.7422 9.1406 5.0195 12.457 3.2734 3.3164 7.7383 5.1875 12.414 5.1875h143.11c9.5234 0 17.305-7.6523 17.434-17.176l0.24219-17.969c82.238 9.5547 114.66 29.082 116.85 34.719zm-170.15-166.64h20.238l-1.7852 132.25h-108.29l1.7852-132.25zm-49.914-34.82v-108.91h32.48v108.91zm159.14 0h-32.48v-199.93h32.48zm126.66-1.2344h-32.48v-134.39h32.48zm126.66 1.2344h-32.48v-108.91h32.48zm-16.238-199.93h-126.66c-4.8906 0-9.5664-2.0625-12.883-5.6992l-95.492-104.97-136.43 106.97c-3.1016 2.4219-6.8867 3.6992-10.754 3.6992-0.93359 0-1.8281-0.0625-2.7617-0.21484-4.7617-0.76562-9.0156-3.4883-11.734-7.5273l-71.129-106.61-144.77 38.18c-6.6328 1.7227-13.945-0.63672-18.238-6.2305l-74.594-97.02 0.40234 17.98c0.17188 9.6289-7.4414 17.582-17.047 17.793h-0.38281c-9.4375 0-17.219-7.5469-17.434-17.027l-1.5312-71.09c-0.007812-0.41406 0.22266-0.77344 0.24219-1.1836 0.074218-1.5625 0.44531-3.0195 0.92969-4.5078 0.26953-0.81641 0.41797-1.625 0.80078-2.3945 0.75-1.5117 1.8633-2.7969 3.0625-4.0664 0.4375-0.46094 0.64062-1.0859 1.1289-1.4961 0.09375-0.078126 0.22656-0.089844 0.32031-0.17188 0.125-0.10156 0.18359-0.26172 0.31641-0.35937 1.7734-1.3555 3.7422-2.2305 5.7539-2.8203 0.15625-0.046875 0.28125-0.17188 0.4375-0.21484 2.3867-0.62891 4.8281-0.66016 7.2227-0.26562 0.13672 0.019532 0.26953-0.042968 0.40234-0.015625l68.152 12.691c9.4375 1.7422 15.688 10.844 13.945 20.301-1.7852 9.418-10.586 15.859-20.324 13.926l-23.422-4.3555 72.191 93.895 145.57-38.395c7.0586-1.8086 14.754 0.97656 18.918 7.1641l67.602 101.32 134.39-105.36c7.2266-5.5898 17.477-4.7422 23.641 2l101.19 111.24h118.96c9.6094 0 17.434 7.8008 17.434 17.41-0.003906 9.6094-7.8281 17.422-17.434 17.422z"/>
</svg>
