<?xml version="1.0" encoding="UTF-8"?>
<svg width="1200pt" height="1200pt" version="1.1" viewBox="0 0 1200 1200" xmlns="http://www.w3.org/2000/svg">
 <g>
  <path fill="#ED1D24" d="m768.75 1181.2v-487.5h18.75v-75h-375v75h18.75v487.5h112.5v-150h112.5v150zm-131.25-412.5h56.25v56.25h-56.25zm-75 187.5h-56.25v-56.25h56.25zm0-131.25h-56.25v-56.25h56.25zm75 131.25v-56.25h56.25v56.25z"/>
  <path fill="#ED1D24" d="m993.75 881.25h18.75v-75h-206.25v356.25h187.5z"/>
  <path fill="#ED1D24" d="m393.75 1162.5v-356.25h-206.25v75h18.75v281.25z"/>
  <path fill="#ED1D24" d="m1031.2 18.75c-33.168 0.058594-65.387 11.102-91.617 31.406-26.23 20.301-45 48.719-53.375 80.812-77.965-56.816-171.11-89.082-267.51-92.664v206.38c61.477 4.0039 119.91 28.195 166.24 68.812l102.43-102.45c3.8164 12.875 9.3633 25.176 16.48 36.562l-92.398 92.398c9.7305 11.199 18.57 23.141 26.438 35.719l78.355-9.375c16.621-1.9492 33.133 4.4375 44.113 17.066 10.977 12.629 15.008 29.867 10.762 46.055-4.2461 16.188-16.215 29.234-31.98 34.848l-60.957 21.602c1.9219 12.938 2.9297 25.996 3.0195 39.074h206.25c0.019531-71.484-15.762-142.09-46.219-206.76 51.727-4.1953 97.609-34.832 121.31-81 23.703-46.168 21.855-101.31-4.8828-145.79-26.738-44.477-74.566-71.977-126.46-72.703zm0 262.5c-29.836 0-58.453-11.852-79.551-32.949-21.098-21.098-32.949-49.715-32.949-79.551s11.852-58.453 32.949-79.551c21.098-21.098 49.715-32.949 79.551-32.949s58.453 11.852 79.551 32.949c21.098 21.098 32.949 49.715 32.949 79.551-0.03125 29.828-11.891 58.426-32.984 79.516-21.09 21.094-49.688 32.953-79.516 32.984z"/>
  <path fill="#ED1D24" d="m1031.2 215.62c-9.9453 0-19.484-3.9492-26.516-10.984-7.0352-7.0312-10.984-16.57-10.984-26.516h-37.5c0 26.793 14.293 51.555 37.5 64.953 23.207 13.395 51.793 13.395 75 0 23.207-13.398 37.5-38.16 37.5-64.953h-37.5c0 9.9453-3.9492 19.484-10.984 26.516-7.0312 7.0352-16.57 10.984-26.516 10.984z"/>
  <path fill="#ED1D24" d="m975 112.5h37.5v37.5h-37.5z"/>
  <path fill="#ED1D24" d="m1050 112.5h37.5v37.5h-37.5z"/>
  <path fill="#ED1D24" d="m158.72 318.24c-30.457 64.672-46.238 135.27-46.219 206.76h206.25c-0.03125-68.094 24.766-133.87 69.75-184.99l-92.398-92.398c7.1172-11.387 12.664-23.688 16.48-36.562l102.43 102.45c46.324-40.617 104.76-64.809 166.24-68.812v-206.38c-96.402 3.582-189.54 35.848-267.51 92.664-9.3008-35.801-31.512-66.898-62.355-87.312-30.848-20.414-68.152-28.703-104.74-23.27-36.59 5.4297-69.879 24.195-93.465 52.691-23.586 28.492-35.805 64.703-34.309 101.66 1.5 36.961 16.609 72.059 42.426 98.551 25.816 26.492 60.512 42.504 97.422 44.953zm10.031-261.99c29.836 0 58.453 11.852 79.551 32.949 21.098 21.098 32.949 49.715 32.949 79.551s-11.852 58.453-32.949 79.551c-21.098 21.098-49.715 32.949-79.551 32.949s-58.453-11.852-79.551-32.949c-21.098-21.098-32.949-49.715-32.949-79.551 0.03125-29.828 11.891-58.426 32.984-79.516 21.09-21.094 49.688-32.953 79.516-32.984z"/>
  <path fill="#ED1D24" d="m168.75 206.25c7.4609 0 14.613 2.9648 19.887 8.2383 5.2734 5.2734 8.2383 12.426 8.2383 19.887h37.5c0-23.445-12.508-45.109-32.812-56.832-20.305-11.723-45.32-11.723-65.625 0-20.305 11.723-32.812 33.387-32.812 56.832h37.5c0-7.4609 2.9648-14.613 8.2383-19.887 5.2734-5.2734 12.426-8.2383 19.887-8.2383z"/>
  <path fill="#ED1D24" d="m112.5 112.5h37.5v37.5h-37.5z"/>
  <path fill="#ED1D24" d="m187.5 112.5h37.5v37.5h-37.5z"/>
  <path fill="#ED1D24" d="m920.74 403.57-332.61 39.824c-14.164 1.7734-26.906 9.4727-35.062 21.188-8.1602 11.711-10.961 26.336-7.7109 40.23 3.25 13.898 12.246 25.766 24.75 32.645 12.504 6.8828 27.344 8.1328 40.82 3.4375l315.75-111.86v0.003906c6.4609-2.125 10.227-8.832 8.6797-15.453-1.5469-6.6211-7.8906-10.965-14.621-10.012z"/>
 </g>
</svg>
