<?xml version="1.0" encoding="UTF-8"?>
<svg width="1200pt" height="1200pt" version="1.1" viewBox="0 0 1200 1200" xmlns="http://www.w3.org/2000/svg">
 <g fill-rule="evenodd">
  <path fill="#FF691D" d="m558 319.2v36l-12 4.8008c-16.801 6-28.801 21.602-28.801 40.801 0 18 12 34.801 28.801 40.801l12 3.6016v12c2.3984 103.2 88.801 188.4 192 188.4s189.6-84 192-188.4v-12l12-3.6016c16.801-6 28.801-21.602 28.801-40.801 0-18-12-34.801-28.801-40.801l-12-4.8008v-36z"/>
  <path fill="#FF691D" d="m992.4 254.4h-52.801l-3.5977-13.199c-14.398-54-50.398-97.199-99.602-122.4v39.602h-36v-63.602c0-25.199-20.398-46.801-46.801-46.801-26.398 0-46.801 20.398-46.801 46.801v64.801h-36l0.003906-43.203c-51.602 24-91.199 69.602-106.8 126l-3.6016 13.199h-52.801c-8.3984 0-14.398 6-14.398 14.398 0 8.3984 6 14.398 14.398 14.398h484.8c8.3984 0 14.398-6 14.398-14.398 0.007812-8.3945-5.9922-15.598-14.395-15.598z"/>
  <path fill="#FF691D" d="m208.8 890.4-52.801 18v110.4h51.602z"/>
  <path fill="#FF691D" d="m120 920.4-18 6c-25.199 9.6016-42 33.602-42 63.602v162h60z"/>
  <path fill="#FF691D" d="m516 1008h480v142.8h-480z"/>
  <path fill="#FF691D" d="m1070.4 805.2-38.398-16.801v363.6h108v-243.6c0-46.797-25.199-84-69.602-103.2z"/>
  <path fill="#FF691D" d="m480 787.2-37.199 16.801c-45.602 21.602-70.801 57.602-70.801 104.4v243.6h108z"/>
  <path fill="#FF691D" d="m184.8 624v6l-12 4.8008c-8.3984 3.6016-14.398 12-14.398 20.398 0 9.6016 6 18 14.398 20.398l12 3.6016v12c1.1992 66 56.398 118.8 121.2 118.8 66 0 120-52.801 121.2-118.8v-12l12-3.6016c8.3984-3.6016 14.398-12 14.398-20.398 0-9.6016-6-18-14.398-20.398l-12-4.8008v-6z"/>
  <path fill="#FF691D" d="m184.8 588h283.2c1.1992 0 3.6016-1.1992 3.6016-3.6016v-15.602c0-2.3984-1.1992-3.6016-3.6016-3.6016h-39.602l-4.7969-13.195c-8.3984-30-27.602-56.398-54-72v25.199h-36v-52.801c0-13.199-10.801-25.199-25.199-25.199-13.199 0-25.199 10.801-25.199 25.199v52.801h-36v-28.801c-28.801 15.602-50.398 43.199-58.801 74.398l-3.6016 13.199h-39.602c-2.3984 0-3.6016 1.1992-3.6016 3.6016v16.801l1.1992 1.1992 4.8008 1.1992h18l19.203 0.003906z"/>
  <path fill="#FF691D" d="m156 1054.8h180v97.199h-180z"/>
  <path fill="#FF691D" d="m612 744v226.8h279.6v-224.4l-140.4 73.203z"/>
  <path fill="#FF691D" d="m927.6 970.8h68.398v-198l-68.398-30z"/>
  <path fill="#FF691D" d="m516 972h60v-229.2l-60 27.598z"/>
  <path fill="#FF691D" d="m243.6 1020h92.398v-79.199l-92.398-49.199z"/>
 </g>
</svg>
