<?xml version="1.0" encoding="UTF-8"?>
<svg width="1200pt" height="1200pt" version="1.1" viewBox="0 0 1200 1200" xmlns="http://www.w3.org/2000/svg">
 <g>
  <path fill="#FF691D" d="m1194.5 605.49-337.5-337.5c-0.67578-0.67578-1.1797-0.99219-1.7422-1.332-3.2266-2.5664-7.2031-4.1602-11.516-4.1602h-48.488l61.742-61.742c5.3633-5.3633 6.9766-13.426 4.0703-20.438-2.8867-7.0156-9.7305-11.57-17.324-11.57h-487.5c-4.9883 0-9.75 1.9688-13.258 5.4922l-337.5 337.5c-5.3633 5.3633-6.9766 13.426-4.0703 20.438 2.9102 7.0156 9.7539 11.57 17.328 11.57h48.488l-61.742 61.742c-5.3633 5.3633-6.9766 13.426-4.0703 20.438 2.9062 7.0156 9.75 11.57 17.324 11.57h37.5v375c0 10.367 8.3828 18.75 18.75 18.75h1050c10.367 0 18.75-8.3828 18.75-18.75v-375h37.5c7.5742 0 14.418-4.5547 17.324-11.57 2.9062-7.0117 1.293-15.074-4.0664-20.438zm-457.75-337.52c-0.019531 0.019532-0.019531 0.019532-0.039063 0.039063l-69.484 69.484h-115.73l131.25-131.25h115.73zm-522.75 238.27 131.25-131.25h115.73l-131.25 131.25zm415.73-300-131.25 131.25h-115.73l131.25-131.25zm-115.73 168.75h115.73l-131.25 131.25h-115.73zm-150-168.75h96.977l-131.25 131.25h-96.977zm-168.75 168.75h96.977l-131.25 131.25h-96.977zm-75 168.75h385.99c4.9883 0 9.7305-1.9883 13.258-5.4922l238.25-238.26h40.727l-300 300h-434.48zm-26.512 93.75h450v356.25h-450zm675 356.25v-262.5h150v262.5zm356.25-393.75c-10.367 0-18.75 8.3828-18.75 18.75v375h-150v-281.25c0-10.367-8.3828-18.75-18.75-18.75h-187.5c-10.367 0-18.75 8.3828-18.75 18.75v281.25h-150v-375c0-10.367-8.3828-18.75-18.75-18.75h-10.988l292.24-292.24 292.24 292.24z"/>
  <path fill="#FF691D" d="m843.75 450c-51.695 0-93.75 42.055-93.75 93.75s42.055 93.75 93.75 93.75 93.75-42.055 93.75-93.75-42.055-93.75-93.75-93.75zm0 150c-31.012 0-56.25-25.238-56.25-56.25s25.238-56.25 56.25-56.25 56.25 25.238 56.25 56.25c0 31.031-25.219 56.25-56.25 56.25z"/>
  <path fill="#FF691D" d="m487.5 693.75h-337.5c-10.367 0-18.75 8.3828-18.75 18.75v187.5c0 10.367 8.3828 18.75 18.75 18.75h337.5c10.367 0 18.75-8.3828 18.75-18.75v-187.5c0-10.352-8.3828-18.75-18.75-18.75zm-318.75 37.5h131.25v150h-131.25zm300 150h-131.25v-150h131.25z"/>
 </g>
</svg>
