<?xml version="1.0" encoding="UTF-8"?>
<svg width="1200pt" height="1200pt" version="1.1" viewBox="0 0 1200 1200" xmlns="http://www.w3.org/2000/svg">
 <g>
  <path d="m1177.5 578.81-387.75-401.62h-564.38l174.38 180.38h-75.75l-301.5 274.88v390.38h1045.5v-390l-54.375-54zm-95.25-40.5h-108.75l-140.25-140.25h113.62zm-409.12-140.25h102.75l140.25 140.25h-102.75zm83.25 140.25h-126.38l-135-140.25h121.12zm16.125-320.81 135.38 140.25h-115.12l-140.25-140.25zm-177 0 139.88 140.25h-102.38l-140.25-140.25zm-274.88 0h114.75l140.25 140.25h-119.62zm254.25 765h-171v-262.5h-169.88v262.5h-171v-331.88l268.12-244.5 243.75 243.75zm-194.25-584.25h58.125l174.38 180.75h343.5l42.375 42.375h-395.25zm646.88 263.62v320.62h-412.12v-320.62z"/>
  <path d="m649.12 699.56v220.88h349.5v-220.88zm154.5 180.38-114-139.88h114zm154.5 0-114-139.88h114z"/>
  <path d="m319.01 525.34c-15.387-0.007813-30.148 6.0977-41.035 16.973-10.887 10.875-17.008 25.629-17.016 41.016-0.003907 15.391 6.1016 30.148 16.98 41.035 10.875 10.883 25.633 17 41.02 17.004 15.391 0.003907 30.148-6.1094 41.031-16.988 10.883-10.879 16.996-25.637 16.996-41.023 0-15.383-6.1094-30.133-16.98-41.008-10.871-10.879-25.617-16.996-40.996-17.008z"/>
 </g>
</svg>
