<?xml version="1.0" encoding="UTF-8"?>
<svg width="1200pt" height="1200pt" version="1.1" viewBox="0 0 1200 1200" xmlns="http://www.w3.org/2000/svg">
 <g>
  <path d="m1180.1 880.05c0.38281-0.64844 0.78125-1.2461 1.0312-1.9336 0.27734-0.74219 0.38281-1.4766 0.51562-2.2578 0.12109-0.75781 0.25391-1.4766 0.23828-2.2305-0.011719-0.74219-0.20312-1.4414-0.34766-2.1836-0.17969-0.80469-0.34766-1.5977-0.70703-2.375-0.10938-0.23828-0.097657-0.48047-0.21484-0.71875l-185.16-351.34c-0.22656-0.43359-0.61328-0.68359-0.86328-1.0664-0.46875-0.68359-0.94922-1.3086-1.5469-1.8828-0.60156-0.5625-1.2344-1.0078-1.9219-1.4414-0.39453-0.25391-0.68359-0.63672-1.1289-0.85156l-92.148-43.812v-129.96h17.062c6.6367 0 12-5.375 12-12v-45.984c0-6.625-5.3633-12-12-12h-165.17c-6.6367 0-12 5.375-12 12v45.984c0 6.625 5.3633 12 12 12h17.051v67.645l-161.65-76.848c-0.20313-0.097656-0.42188-0.070312-0.61328-0.15625-0.75781-0.3125-1.5352-0.43359-2.3398-0.58984-0.74219-0.13281-1.4648-0.33594-2.1953-0.32422-0.74219 0-1.4531 0.19141-2.1953 0.32422-0.80469 0.15625-1.5859 0.27734-2.3398 0.58984-0.20312 0.085938-0.42188 0.058594-0.61328 0.15625l-384.85 182.99c-0.44531 0.21484-0.71875 0.58984-1.1172 0.83984-0.69531 0.43359-1.3438 0.875-1.9453 1.4531-0.60156 0.57422-1.0664 1.1992-1.5234 1.8828-0.26562 0.38281-0.66016 0.64844-0.875 1.0664l-185.16 351.34c-0.12109 0.23828-0.10938 0.49219-0.21484 0.73047-0.34766 0.76953-0.52734 1.5586-0.69531 2.375-0.15625 0.73047-0.33594 1.4141-0.35938 2.1602-0.023437 0.76953 0.12109 1.5 0.25391 2.2578 0.13281 0.75781 0.22656 1.5 0.50391 2.2188 0.25391 0.69531 0.66016 1.2969 1.043 1.9453 0.43359 0.71875 0.83984 1.3789 1.4023 1.9922 0.17969 0.20312 0.25391 0.45703 0.45703 0.64844l48.73 46.008c0.44531 0.40625 0.99609 0.60156 1.4766 0.92578 0.42188 0.28906 0.70703 0.71875 1.1758 0.96094 0.27734 0.14453 0.5625 0.20312 0.85156 0.32422 0.30078 0.13281 0.58984 0.23828 0.88672 0.32422 1.2617 0.43359 2.543 0.73047 3.8398 0.73047h0.023437c1.4141-0.011719 2.7852-0.34766 4.1055-0.82812 0.33594-0.13281 0.66016-0.26562 0.99609-0.42188 1.3086-0.625 2.543-1.4023 3.5742-2.4844 0-0.011719 0.011718-0.011719 0.023437-0.023437 0.046875-0.046876 0.058594-0.12109 0.10938-0.16797 0.67188-0.74219 1.2969-1.5586 1.7891-2.4844l183.37-347.93 327.28-155.64 327.28 155.64 183.38 347.93c0.46875 0.89844 1.0781 1.6797 1.7383 2.3984 0.058593 0.070313 0.085937 0.17969 0.15625 0.25391 0.011718 0.011718 0.035156 0.023437 0.046874 0.035156 1.0195 1.0781 2.2578 1.8477 3.5625 2.4727 0.32422 0.15625 0.66016 0.28906 0.99609 0.42188 1.3203 0.48047 2.6875 0.81641 4.1055 0.82812h0.023437 0.011719c1.2852 0 2.5781-0.28906 3.8281-0.73047 0.30078-0.097656 0.60156-0.21484 0.89844-0.33594 0.27734-0.12109 0.57422-0.17969 0.83984-0.3125 0.45703-0.25391 0.75781-0.66016 1.1641-0.94922 0.49219-0.33594 1.043-0.51562 1.4883-0.9375l48.73-46.008c0.20312-0.19141 0.26562-0.44531 0.45703-0.64844 0.54688-0.60938 0.97656-1.293 1.3984-1.9922zm-55.586 20.34-177.86-337.49c-0.22656-0.42188-0.60156-0.67188-0.85156-1.043-0.46875-0.69531-0.96094-1.3438-1.5703-1.9336-0.60156-0.55078-1.2227-0.99609-1.8945-1.4141-0.40625-0.25391-0.69531-0.63672-1.1406-0.85156l-336.04-159.8c-0.19141-0.097656-0.40625-0.070313-0.60156-0.15625-0.76953-0.3125-1.5586-0.44531-2.3867-0.58984-0.73047-0.13281-1.4414-0.32422-2.1719-0.32422s-1.4414 0.19141-2.1719 0.32422c-0.81641 0.15625-1.6094 0.27734-2.375 0.58984-0.20312 0.085937-0.40625 0.058594-0.61328 0.15625l-336.04 159.8c-0.43359 0.20313-0.71875 0.57422-1.1172 0.82813-0.69531 0.43359-1.332 0.875-1.9453 1.4531-0.60156 0.57422-1.0664 1.2109-1.5352 1.8828-0.26562 0.38281-0.64844 0.64844-0.875 1.0664l-177.85 337.5-30.613-28.906 179.05-339.73 376.08-178.82 376.09 178.84 179.04 339.73zm-362.77-608.36h141.18v21.984h-141.18zm29.043 45.984h83.062v118.55l-83.062-39.504z"/>
  <path d="m693.65 732.24h-187.32c-6.625 0-12 5.3633-12 12v175.74c0 6.6367 5.375 12 12 12h187.31c6.6367 0 12-5.3633 12-12v-175.74c0.011719-6.6328-5.3633-12-11.988-12zm-12 87.867h-69.66v-63.867h69.66zm-93.66-63.867v63.863h-69.66v-63.863zm-69.66 87.867h69.66v63.863h-69.66zm93.66 63.863v-63.863h69.66v63.863z"/>
 </g>
</svg>
