<svg xmlns="http://www.w3.org/2000/svg" width="1600" height="1600" viewBox="0 0 1200 1200"><path fill-rule="evenodd" d="M891.19 69.215c0 5.09-4.125 9.219-9.215 9.219s-9.215-4.13-9.215-9.219S876.885 60 881.975 60a9.214 9.214 0 0 1 9.215 9.215M658.97 102.41c0 5.09-4.125 9.219-9.215 9.219s-9.219-4.13-9.219-9.219 4.13-9.215 9.22-9.215 9.214 4.125 9.214 9.215m33.17 0c0 5.09-4.125 9.219-9.215 9.219s-9.219-4.13-9.219-9.219 4.13-9.215 9.22-9.215 9.214 4.125 9.214 9.215m33.19 0c0 5.09-4.125 9.219-9.215 9.219s-9.219-4.13-9.219-9.219 4.13-9.215 9.22-9.215a9.214 9.214 0 0 1 9.214 9.215m199.04 0c0 5.09-4.125 9.219-9.215 9.219s-9.215-4.13-9.215-9.219 4.125-9.215 9.215-9.215 9.215 4.125 9.215 9.215m33.16 0c0 5.09-4.125 9.219-9.215 9.219s-9.215-4.13-9.215-9.219 4.125-9.215 9.215-9.215 9.215 4.125 9.215 9.215m-364.9 33.16c0 5.09-4.129 9.219-9.219 9.219s-9.215-4.13-9.215-9.219a9.214 9.214 0 0 1 9.215-9.215c5.09 0 9.219 4.125 9.219 9.215m132.7 0c0 5.09-4.125 9.219-9.215 9.219s-9.219-4.13-9.219-9.219c0-5.09 4.13-9.215 9.22-9.215a9.214 9.214 0 0 1 9.214 9.215m33.17 0c0 5.09-4.125 9.219-9.215 9.219s-9.219-4.13-9.219-9.219c0-5.09 4.13-9.215 9.22-9.215s9.214 4.125 9.214 9.215m33.16 0c0 5.09-4.125 9.219-9.215 9.219s-9.219-4.13-9.219-9.219c0-5.09 4.13-9.215 9.22-9.215a9.214 9.214 0 0 1 9.214 9.215m33.17 0c0 5.09-4.125 9.219-9.215 9.219s-9.219-4.13-9.219-9.219c0-5.09 4.13-9.215 9.22-9.215a9.214 9.214 0 0 1 9.214 9.215m33.19 0c0 5.09-4.125 9.219-9.215 9.219s-9.215-4.13-9.215-9.219c0-5.09 4.125-9.215 9.215-9.215s9.215 4.125 9.215 9.215m33.17 0c0 5.09-4.125 9.219-9.215 9.219s-9.215-4.13-9.215-9.219a9.214 9.214 0 0 1 9.215-9.215 9.214 9.214 0 0 1 9.215 9.215m33.18 0c0 5.09-4.125 9.219-9.215 9.219s-9.215-4.13-9.215-9.219c0-5.09 4.125-9.215 9.215-9.215s9.215 4.125 9.215 9.215m33.16 0c0 5.09-4.125 9.219-9.215 9.219s-9.215-4.13-9.215-9.219c0-5.09 4.125-9.215 9.215-9.215s9.215 4.125 9.215 9.215m-265.39 33.2c0 5.09-4.125 9.215-9.215 9.215s-9.219-4.125-9.219-9.215 4.13-9.219 9.22-9.219 9.214 4.13 9.214 9.219m33.19 0a9.214 9.214 0 0 1-9.215 9.215c-5.09 0-9.219-4.125-9.219-9.215s4.13-9.219 9.22-9.219c5.089 0 9.214 4.13 9.214 9.219m33.17 0c0 5.09-4.125 9.215-9.215 9.215s-9.219-4.125-9.219-9.215 4.13-9.219 9.22-9.219 9.214 4.13 9.214 9.219m33.16 0a9.214 9.214 0 0 1-9.215 9.215c-5.09 0-9.219-4.125-9.219-9.215s4.13-9.219 9.22-9.219c5.089 0 9.214 4.13 9.214 9.219m33.17 0a9.214 9.214 0 0 1-9.215 9.215c-5.09 0-9.219-4.125-9.219-9.215s4.13-9.219 9.22-9.219c5.089 0 9.214 4.13 9.214 9.219m33.19 0c0 5.09-4.125 9.215-9.215 9.215s-9.215-4.125-9.215-9.215 4.125-9.219 9.215-9.219 9.215 4.13 9.215 9.219m33.17 0a9.214 9.214 0 0 1-9.215 9.215 9.214 9.214 0 0 1-9.215-9.215c0-5.09 4.125-9.219 9.215-9.219s9.215 4.13 9.215 9.219m33.18 0c0 5.09-4.125 9.215-9.215 9.215s-9.215-4.125-9.215-9.215 4.125-9.219 9.215-9.219 9.215 4.13 9.215 9.219m33.16 0c0 5.09-4.125 9.215-9.215 9.215s-9.215-4.125-9.215-9.215 4.125-9.219 9.215-9.219 9.215 4.13 9.215 9.219m33.18 0a9.214 9.214 0 0 1-9.215 9.215 9.214 9.214 0 0 1-9.215-9.215c0-5.09 4.125-9.219 9.215-9.219s9.215 4.13 9.215 9.219m33.19 0c0 5.09-4.125 9.215-9.215 9.215s-9.215-4.125-9.215-9.215 4.125-9.219 9.215-9.219 9.215 4.13 9.215 9.219m-364.93 33.14c0 5.09-4.125 9.219-9.215 9.219s-9.219-4.13-9.219-9.219 4.13-9.215 9.22-9.215 9.214 4.125 9.214 9.215m33.17 0c0 5.09-4.125 9.219-9.215 9.219s-9.219-4.13-9.219-9.219 4.13-9.215 9.22-9.215 9.214 4.125 9.214 9.215m33.19 0c0 5.09-4.125 9.219-9.215 9.219s-9.219-4.13-9.219-9.219 4.13-9.215 9.22-9.215a9.214 9.214 0 0 1 9.214 9.215m33.17 0c0 5.09-4.125 9.219-9.215 9.219s-9.219-4.13-9.219-9.219 4.13-9.215 9.22-9.215 9.214 4.125 9.214 9.215m33.16 0c0 5.09-4.125 9.219-9.215 9.219s-9.219-4.13-9.219-9.219 4.13-9.215 9.22-9.215a9.214 9.214 0 0 1 9.214 9.215m33.17 0c0 5.09-4.125 9.219-9.215 9.219s-9.219-4.13-9.219-9.219 4.13-9.215 9.22-9.215a9.214 9.214 0 0 1 9.214 9.215m33.19 0c0 5.09-4.125 9.219-9.215 9.219s-9.215-4.13-9.215-9.219 4.125-9.215 9.215-9.215 9.215 4.125 9.215 9.215m33.17 0c0 5.09-4.125 9.219-9.215 9.219s-9.215-4.13-9.215-9.219 4.125-9.215 9.215-9.215a9.214 9.214 0 0 1 9.215 9.215m33.18 0c0 5.09-4.125 9.219-9.215 9.219s-9.215-4.13-9.215-9.219 4.125-9.215 9.215-9.215 9.215 4.125 9.215 9.215m33.16 0c0 5.09-4.125 9.219-9.215 9.219s-9.215-4.13-9.215-9.219 4.125-9.215 9.215-9.215 9.215 4.125 9.215 9.215m33.18 0c0 5.09-4.125 9.219-9.215 9.219s-9.215-4.13-9.215-9.219 4.125-9.215 9.215-9.215a9.214 9.214 0 0 1 9.215 9.215m33.19 0c0 5.09-4.125 9.219-9.215 9.219s-9.215-4.13-9.215-9.219 4.125-9.215 9.215-9.215 9.215 4.125 9.215 9.215m33.2 0c0 5.09-4.125 9.219-9.215 9.219s-9.215-4.13-9.215-9.219 4.125-9.215 9.215-9.215a9.214 9.214 0 0 1 9.215 9.215m-563.99 33.17c0 5.09-4.129 9.219-9.219 9.219s-9.215-4.13-9.215-9.219 4.125-9.215 9.215-9.215 9.219 4.125 9.219 9.215m132.69 0c0 5.09-4.125 9.219-9.215 9.219s-9.219-4.13-9.219-9.219 4.13-9.215 9.22-9.215a9.214 9.214 0 0 1 9.214 9.215m33.17 0c0 5.09-4.125 9.219-9.215 9.219s-9.219-4.13-9.219-9.219 4.13-9.215 9.22-9.215 9.214 4.125 9.214 9.215m33.17 0c0 5.09-4.125 9.219-9.215 9.219s-9.219-4.13-9.219-9.219 4.13-9.215 9.22-9.215 9.214 4.125 9.214 9.215m33.19 0c0 5.09-4.125 9.219-9.215 9.219s-9.219-4.13-9.219-9.219 4.13-9.215 9.22-9.215a9.214 9.214 0 0 1 9.214 9.215m33.17 0c0 5.09-4.125 9.219-9.215 9.219s-9.219-4.13-9.219-9.219 4.13-9.215 9.22-9.215 9.214 4.125 9.214 9.215m33.16 0c0 5.09-4.125 9.219-9.215 9.219s-9.219-4.13-9.219-9.219 4.13-9.215 9.22-9.215a9.214 9.214 0 0 1 9.214 9.215m33.17 0c0 5.09-4.125 9.219-9.215 9.219s-9.219-4.13-9.219-9.219 4.13-9.215 9.22-9.215a9.214 9.214 0 0 1 9.214 9.215m33.19 0c0 5.09-4.125 9.219-9.215 9.219s-9.215-4.13-9.215-9.219 4.125-9.215 9.215-9.215 9.215 4.125 9.215 9.215m33.17 0c0 5.09-4.125 9.219-9.215 9.219s-9.215-4.13-9.215-9.219 4.125-9.215 9.215-9.215a9.214 9.214 0 0 1 9.215 9.215m33.18 0c0 5.09-4.125 9.219-9.215 9.219s-9.215-4.13-9.215-9.219 4.125-9.215 9.215-9.215 9.215 4.125 9.215 9.215m33.16 0c0 5.09-4.125 9.219-9.215 9.219s-9.215-4.13-9.215-9.219 4.125-9.215 9.215-9.215 9.215 4.125 9.215 9.215m33.18 0c0 5.09-4.125 9.219-9.215 9.219s-9.215-4.13-9.215-9.219 4.125-9.215 9.215-9.215a9.214 9.214 0 0 1 9.215 9.215m33.19 0c0 5.09-4.125 9.219-9.215 9.219s-9.215-4.13-9.215-9.219 4.125-9.215 9.215-9.215 9.215 4.125 9.215 9.215m-530.79 33.19c0 5.09-4.129 9.215-9.219 9.215a9.214 9.214 0 0 1-9.215-9.215c0-5.09 4.125-9.219 9.215-9.219s9.219 4.13 9.219 9.219m165.86 0c0 5.09-4.125 9.215-9.215 9.215s-9.219-4.125-9.219-9.215 4.13-9.219 9.22-9.219 9.214 4.13 9.214 9.219m33.17 0c0 5.09-4.125 9.215-9.215 9.215s-9.219-4.125-9.219-9.215 4.13-9.219 9.22-9.219 9.214 4.13 9.214 9.219m33.19 0a9.214 9.214 0 0 1-9.215 9.215c-5.09 0-9.219-4.125-9.219-9.215s4.13-9.219 9.22-9.219c5.089 0 9.214 4.13 9.214 9.219m33.17 0c0 5.09-4.125 9.215-9.215 9.215s-9.219-4.125-9.219-9.215 4.13-9.219 9.22-9.219 9.214 4.13 9.214 9.219m33.16 0a9.214 9.214 0 0 1-9.215 9.215c-5.09 0-9.219-4.125-9.219-9.215s4.13-9.219 9.22-9.219c5.089 0 9.214 4.13 9.214 9.219m33.17 0a9.214 9.214 0 0 1-9.215 9.215c-5.09 0-9.219-4.125-9.219-9.215s4.13-9.219 9.22-9.219c5.089 0 9.214 4.13 9.214 9.219m33.19 0c0 5.09-4.125 9.215-9.215 9.215s-9.215-4.125-9.215-9.215 4.125-9.219 9.215-9.219 9.215 4.13 9.215 9.219m33.17 0a9.214 9.214 0 0 1-9.215 9.215 9.214 9.214 0 0 1-9.215-9.215c0-5.09 4.125-9.219 9.215-9.219s9.215 4.13 9.215 9.219m33.18 0c0 5.09-4.125 9.215-9.215 9.215s-9.215-4.125-9.215-9.215 4.125-9.219 9.215-9.219 9.215 4.13 9.215 9.219m33.16 0c0 5.09-4.125 9.215-9.215 9.215s-9.215-4.125-9.215-9.215 4.125-9.219 9.215-9.219 9.215 4.13 9.215 9.219m33.18 0a9.214 9.214 0 0 1-9.215 9.215 9.214 9.214 0 0 1-9.215-9.215c0-5.09 4.125-9.219 9.215-9.219s9.215 4.13 9.215 9.219m33.19 0c0 5.09-4.125 9.215-9.215 9.215s-9.215-4.125-9.215-9.215 4.125-9.219 9.215-9.219 9.215 4.13 9.215 9.219m33.2 0a9.214 9.214 0 0 1-9.215 9.215 9.214 9.214 0 0 1-9.215-9.215c0-5.09 4.125-9.219 9.215-9.219s9.215 4.13 9.215 9.219m-398.13 33.16c0 5.09-4.125 9.215-9.215 9.215s-9.219-4.125-9.219-9.215 4.13-9.219 9.22-9.219 9.214 4.13 9.214 9.219m33.17 0c0 5.09-4.125 9.215-9.215 9.215s-9.219-4.125-9.219-9.215 4.13-9.219 9.22-9.219 9.214 4.13 9.214 9.219m33.19 0a9.214 9.214 0 0 1-9.215 9.215c-5.09 0-9.219-4.125-9.219-9.215s4.13-9.219 9.22-9.219c5.089 0 9.214 4.13 9.214 9.219m33.17 0c0 5.09-4.125 9.215-9.215 9.215s-9.219-4.125-9.219-9.215 4.13-9.219 9.22-9.219 9.214 4.13 9.214 9.219m33.16 0a9.214 9.214 0 0 1-9.215 9.215c-5.09 0-9.219-4.125-9.219-9.215s4.13-9.219 9.22-9.219c5.089 0 9.214 4.13 9.214 9.219m33.17 0a9.214 9.214 0 0 1-9.215 9.215c-5.09 0-9.219-4.125-9.219-9.215s4.13-9.219 9.22-9.219c5.089 0 9.214 4.13 9.214 9.219m33.19 0c0 5.09-4.125 9.215-9.215 9.215s-9.215-4.125-9.215-9.215 4.125-9.219 9.215-9.219 9.215 4.13 9.215 9.219m33.17 0a9.214 9.214 0 0 1-9.215 9.215 9.214 9.214 0 0 1-9.215-9.215c0-5.09 4.125-9.219 9.215-9.219s9.215 4.13 9.215 9.219m33.18 0c0 5.09-4.125 9.215-9.215 9.215s-9.215-4.125-9.215-9.215 4.125-9.219 9.215-9.219 9.215 4.13 9.215 9.219m33.16 0c0 5.09-4.125 9.215-9.215 9.215s-9.215-4.125-9.215-9.215 4.125-9.219 9.215-9.219 9.215 4.13 9.215 9.219m33.18 0a9.214 9.214 0 0 1-9.215 9.215 9.214 9.214 0 0 1-9.215-9.215c0-5.09 4.125-9.219 9.215-9.219s9.215 4.13 9.215 9.219m33.19 0c0 5.09-4.125 9.215-9.215 9.215s-9.215-4.125-9.215-9.215 4.125-9.219 9.215-9.219 9.215 4.13 9.215 9.219M493.11 334.6c0 5.09-4.129 9.215-9.219 9.215s-9.215-4.125-9.215-9.215 4.125-9.219 9.215-9.219 9.219 4.13 9.219 9.219m33.15 0c0 5.09-4.129 9.215-9.219 9.215s-9.215-4.125-9.215-9.215 4.125-9.219 9.215-9.219 9.219 4.13 9.219 9.219m33.18 0c0 5.09-4.129 9.215-9.219 9.215s-9.215-4.125-9.215-9.215 4.125-9.219 9.215-9.219 9.219 4.13 9.219 9.219m66.36 0a9.214 9.214 0 0 1-9.215 9.215c-5.09 0-9.219-4.125-9.219-9.215s4.13-9.219 9.22-9.219c5.089 0 9.214 4.13 9.214 9.219m33.17 0c0 5.09-4.125 9.215-9.215 9.215s-9.219-4.125-9.219-9.215 4.13-9.219 9.22-9.219 9.214 4.13 9.214 9.219m33.17 0c0 5.09-4.125 9.215-9.215 9.215s-9.219-4.125-9.219-9.215 4.13-9.219 9.22-9.219 9.214 4.13 9.214 9.219m33.19 0a9.214 9.214 0 0 1-9.215 9.215c-5.09 0-9.219-4.125-9.219-9.215s4.13-9.219 9.22-9.219c5.089 0 9.214 4.13 9.214 9.219m33.17 0c0 5.09-4.125 9.215-9.215 9.215s-9.219-4.125-9.219-9.215 4.13-9.219 9.22-9.219 9.214 4.13 9.214 9.219m33.16 0a9.214 9.214 0 0 1-9.215 9.215c-5.09 0-9.219-4.125-9.219-9.215s4.13-9.219 9.22-9.219c5.089 0 9.214 4.13 9.214 9.219m33.17 0a9.214 9.214 0 0 1-9.215 9.215c-5.09 0-9.219-4.125-9.219-9.215s4.13-9.219 9.22-9.219c5.089 0 9.214 4.13 9.214 9.219m33.19 0c0 5.09-4.125 9.215-9.215 9.215s-9.215-4.125-9.215-9.215 4.125-9.219 9.215-9.219 9.215 4.13 9.215 9.219m33.17 0a9.214 9.214 0 0 1-9.215 9.215c-5.09 0-9.215-4.125-9.215-9.215s4.125-9.219 9.215-9.219 9.215 4.13 9.215 9.219m33.18 0c0 5.09-4.125 9.215-9.215 9.215s-9.215-4.125-9.215-9.215 4.125-9.219 9.215-9.219 9.215 4.13 9.215 9.219m33.16 0c0 5.09-4.125 9.215-9.215 9.215s-9.215-4.125-9.215-9.215 4.125-9.219 9.215-9.219 9.215 4.13 9.215 9.219m33.18 0a9.214 9.214 0 0 1-9.215 9.215c-5.09 0-9.215-4.125-9.215-9.215s4.125-9.219 9.215-9.219 9.215 4.13 9.215 9.219m33.19 0c0 5.09-4.125 9.215-9.215 9.215s-9.215-4.125-9.215-9.215 4.125-9.219 9.215-9.219 9.215 4.13 9.215 9.219m-563.96 33.18c0 5.09-4.129 9.215-9.219 9.215s-9.215-4.125-9.215-9.215 4.125-9.219 9.215-9.219 9.219 4.13 9.219 9.219m33.17 0c0 5.09-4.129 9.215-9.219 9.215s-9.215-4.125-9.215-9.215 4.125-9.219 9.215-9.219 9.219 4.13 9.219 9.219m33.15 0c0 5.09-4.129 9.215-9.219 9.215s-9.215-4.125-9.215-9.215 4.125-9.219 9.215-9.219 9.219 4.13 9.219 9.219m33.18 0c0 5.09-4.129 9.215-9.219 9.215s-9.215-4.125-9.215-9.215 4.125-9.219 9.215-9.219 9.219 4.13 9.219 9.219m132.7 0c0 5.09-4.125 9.215-9.215 9.215s-9.219-4.125-9.219-9.215 4.13-9.219 9.22-9.219 9.214 4.13 9.214 9.219m33.19 0a9.214 9.214 0 0 1-9.215 9.215c-5.09 0-9.219-4.125-9.219-9.215s4.13-9.219 9.22-9.219c5.089 0 9.214 4.13 9.214 9.219m33.17 0c0 5.09-4.125 9.215-9.215 9.215s-9.219-4.125-9.219-9.215 4.13-9.219 9.22-9.219 9.214 4.13 9.214 9.219m33.16 0a9.214 9.214 0 0 1-9.215 9.215c-5.09 0-9.219-4.125-9.219-9.215s4.13-9.219 9.22-9.219c5.089 0 9.214 4.13 9.214 9.219m33.17 0a9.214 9.214 0 0 1-9.215 9.215c-5.09 0-9.219-4.125-9.219-9.215s4.13-9.219 9.22-9.219c5.089 0 9.214 4.13 9.214 9.219m33.19 0c0 5.09-4.125 9.215-9.215 9.215s-9.215-4.125-9.215-9.215 4.125-9.219 9.215-9.219 9.215 4.13 9.215 9.219m33.17 0a9.214 9.214 0 0 1-9.215 9.215c-5.09 0-9.215-4.125-9.215-9.215s4.125-9.219 9.215-9.219 9.215 4.13 9.215 9.219m33.18 0c0 5.09-4.125 9.215-9.215 9.215s-9.215-4.125-9.215-9.215 4.125-9.219 9.215-9.219 9.215 4.13 9.215 9.219m33.16 0c0 5.09-4.125 9.215-9.215 9.215s-9.215-4.125-9.215-9.215 4.125-9.219 9.215-9.219 9.215 4.13 9.215 9.219m33.18 0a9.214 9.214 0 0 1-9.215 9.215c-5.09 0-9.215-4.125-9.215-9.215s4.125-9.219 9.215-9.219 9.215 4.13 9.215 9.219m33.19 0c0 5.09-4.125 9.215-9.215 9.215s-9.215-4.125-9.215-9.215 4.125-9.219 9.215-9.219 9.215 4.13 9.215 9.219m-563.96 33.19c0 5.09-4.129 9.215-9.219 9.215s-9.215-4.125-9.215-9.215 4.125-9.215 9.215-9.215 9.219 4.125 9.219 9.215m33.17 0c0 5.09-4.129 9.215-9.219 9.215s-9.215-4.125-9.215-9.215 4.125-9.215 9.215-9.215 9.219 4.125 9.219 9.215m33.15 0c0 5.09-4.129 9.215-9.219 9.215s-9.215-4.125-9.215-9.215 4.125-9.215 9.215-9.215 9.219 4.125 9.219 9.215m33.18 0c0 5.09-4.129 9.215-9.219 9.215s-9.215-4.125-9.215-9.215 4.125-9.215 9.215-9.215 9.219 4.125 9.219 9.215m33.19 0c0 5.09-4.129 9.215-9.219 9.215s-9.215-4.125-9.215-9.215 4.125-9.215 9.215-9.215 9.219 4.125 9.219 9.215m99.51 0c0 5.09-4.125 9.215-9.215 9.215s-9.219-4.125-9.219-9.215 4.13-9.215 9.22-9.215 9.214 4.125 9.214 9.215m33.19 0a9.214 9.214 0 0 1-9.215 9.215c-5.09 0-9.219-4.125-9.219-9.215s4.13-9.215 9.22-9.215a9.214 9.214 0 0 1 9.214 9.215m33.17 0c0 5.09-4.125 9.215-9.215 9.215s-9.219-4.125-9.219-9.215 4.13-9.215 9.22-9.215 9.214 4.125 9.214 9.215m33.16 0a9.214 9.214 0 0 1-9.215 9.215c-5.09 0-9.219-4.125-9.219-9.215s4.13-9.215 9.22-9.215a9.214 9.214 0 0 1 9.214 9.215m33.17 0a9.214 9.214 0 0 1-9.215 9.215c-5.09 0-9.219-4.125-9.219-9.215s4.13-9.215 9.22-9.215a9.214 9.214 0 0 1 9.214 9.215m33.19 0c0 5.09-4.125 9.215-9.215 9.215s-9.215-4.125-9.215-9.215 4.125-9.215 9.215-9.215 9.215 4.125 9.215 9.215m33.17 0a9.214 9.214 0 0 1-9.215 9.215c-5.09 0-9.215-4.125-9.215-9.215s4.125-9.215 9.215-9.215a9.214 9.214 0 0 1 9.215 9.215m33.18 0c0 5.09-4.125 9.215-9.215 9.215s-9.215-4.125-9.215-9.215 4.125-9.215 9.215-9.215 9.215 4.125 9.215 9.215m33.16 0c0 5.09-4.125 9.215-9.215 9.215s-9.215-4.125-9.215-9.215 4.125-9.215 9.215-9.215 9.215 4.125 9.215 9.215m33.18 0a9.214 9.214 0 0 1-9.215 9.215c-5.09 0-9.215-4.125-9.215-9.215s4.125-9.215 9.215-9.215a9.214 9.214 0 0 1 9.215 9.215m-530.77 33.18c0 5.09-4.129 9.215-9.219 9.215s-9.215-4.125-9.215-9.215 4.125-9.215 9.215-9.215 9.219 4.125 9.219 9.215m33.17 0c0 5.09-4.129 9.215-9.219 9.215a9.214 9.214 0 0 1-9.215-9.215 9.214 9.214 0 0 1 9.215-9.215c5.09 0 9.219 4.125 9.219 9.215m33.15 0c0 5.09-4.129 9.215-9.219 9.215a9.214 9.214 0 0 1-9.215-9.215 9.214 9.214 0 0 1 9.215-9.215c5.09 0 9.219 4.125 9.219 9.215m165.88 0c0 5.09-4.125 9.215-9.215 9.215s-9.219-4.125-9.219-9.215 4.13-9.215 9.22-9.215 9.214 4.125 9.214 9.215m33.19 0a9.214 9.214 0 0 1-9.215 9.215c-5.09 0-9.219-4.125-9.219-9.215s4.13-9.215 9.22-9.215a9.214 9.214 0 0 1 9.214 9.215m33.17 0c0 5.09-4.125 9.215-9.215 9.215s-9.219-4.125-9.219-9.215 4.13-9.215 9.22-9.215 9.214 4.125 9.214 9.215m33.16 0a9.214 9.214 0 0 1-9.215 9.215c-5.09 0-9.219-4.125-9.219-9.215s4.13-9.215 9.22-9.215a9.214 9.214 0 0 1 9.214 9.215m33.17 0a9.214 9.214 0 0 1-9.215 9.215c-5.09 0-9.219-4.125-9.219-9.215s4.13-9.215 9.22-9.215a9.214 9.214 0 0 1 9.214 9.215m33.19 0c0 5.09-4.125 9.215-9.215 9.215s-9.215-4.125-9.215-9.215 4.125-9.215 9.215-9.215 9.215 4.125 9.215 9.215m33.17 0a9.214 9.214 0 0 1-9.215 9.215 9.214 9.214 0 0 1-9.215-9.215 9.214 9.214 0 0 1 9.215-9.215 9.214 9.214 0 0 1 9.215 9.215m33.18 0c0 5.09-4.125 9.215-9.215 9.215s-9.215-4.125-9.215-9.215 4.125-9.215 9.215-9.215 9.215 4.125 9.215 9.215m-464.43 33.17c0 5.09-4.129 9.215-9.219 9.215s-9.215-4.125-9.215-9.215 4.125-9.215 9.215-9.215 9.219 4.125 9.219 9.215m33.17 0c0 5.09-4.129 9.215-9.219 9.215s-9.215-4.125-9.215-9.215 4.125-9.215 9.215-9.215 9.219 4.125 9.219 9.215m33.15 0c0 5.09-4.129 9.215-9.219 9.215s-9.215-4.125-9.215-9.215 4.125-9.215 9.215-9.215 9.219 4.125 9.219 9.215m132.71 0c0 5.09-4.125 9.215-9.215 9.215s-9.219-4.125-9.219-9.215 4.13-9.215 9.22-9.215 9.214 4.125 9.214 9.215m33.17 0c0 5.09-4.125 9.215-9.215 9.215s-9.219-4.125-9.219-9.215 4.13-9.215 9.22-9.215 9.214 4.125 9.214 9.215m33.19 0a9.214 9.214 0 0 1-9.215 9.215c-5.09 0-9.219-4.125-9.219-9.215s4.13-9.215 9.22-9.215a9.214 9.214 0 0 1 9.214 9.215m33.17 0c0 5.09-4.125 9.215-9.215 9.215s-9.219-4.125-9.219-9.215 4.13-9.215 9.22-9.215 9.214 4.125 9.214 9.215m33.16 0a9.214 9.214 0 0 1-9.215 9.215c-5.09 0-9.219-4.125-9.219-9.215s4.13-9.215 9.22-9.215a9.214 9.214 0 0 1 9.214 9.215m33.17 0a9.214 9.214 0 0 1-9.215 9.215c-5.09 0-9.219-4.125-9.219-9.215s4.13-9.215 9.22-9.215a9.214 9.214 0 0 1 9.214 9.215m33.19 0c0 5.09-4.125 9.215-9.215 9.215s-9.215-4.125-9.215-9.215 4.125-9.215 9.215-9.215 9.215 4.125 9.215 9.215m33.17 0a9.214 9.214 0 0 1-9.215 9.215c-5.09 0-9.215-4.125-9.215-9.215s4.125-9.215 9.215-9.215a9.214 9.214 0 0 1 9.215 9.215m33.18 0c0 5.09-4.125 9.215-9.215 9.215s-9.215-4.125-9.215-9.215 4.125-9.215 9.215-9.215 9.215 4.125 9.215 9.215m-464.43 33.15c0 5.09-4.129 9.215-9.219 9.215s-9.215-4.125-9.215-9.215 4.125-9.215 9.215-9.215 9.219 4.125 9.219 9.215m33.17 0c0 5.09-4.129 9.215-9.219 9.215s-9.215-4.125-9.215-9.215 4.125-9.215 9.215-9.215 9.219 4.125 9.219 9.215m33.15 0c0 5.09-4.129 9.215-9.219 9.215s-9.215-4.125-9.215-9.215 4.125-9.215 9.215-9.215 9.219 4.125 9.219 9.215m66.37 0c0 5.09-4.129 9.215-9.219 9.215s-9.215-4.125-9.215-9.215 4.125-9.215 9.215-9.215 9.219 4.125 9.219 9.215m33.17 0a9.214 9.214 0 0 1-9.215 9.215c-5.09 0-9.219-4.125-9.219-9.215s4.13-9.215 9.22-9.215a9.214 9.214 0 0 1 9.214 9.215m33.17 0c0 5.09-4.125 9.215-9.215 9.215s-9.219-4.125-9.219-9.215 4.13-9.215 9.22-9.215 9.214 4.125 9.214 9.215m33.17 0c0 5.09-4.125 9.215-9.215 9.215s-9.219-4.125-9.219-9.215 4.13-9.215 9.22-9.215 9.214 4.125 9.214 9.215m33.19 0a9.214 9.214 0 0 1-9.215 9.215c-5.09 0-9.219-4.125-9.219-9.215s4.13-9.215 9.22-9.215a9.214 9.214 0 0 1 9.214 9.215m33.17 0c0 5.09-4.125 9.215-9.215 9.215s-9.219-4.125-9.219-9.215 4.13-9.215 9.22-9.215 9.214 4.125 9.214 9.215m33.16 0a9.214 9.214 0 0 1-9.215 9.215c-5.09 0-9.219-4.125-9.219-9.215s4.13-9.215 9.22-9.215a9.214 9.214 0 0 1 9.214 9.215m33.17 0a9.214 9.214 0 0 1-9.215 9.215c-5.09 0-9.219-4.125-9.219-9.215s4.13-9.215 9.22-9.215a9.214 9.214 0 0 1 9.214 9.215m33.19 0c0 5.09-4.125 9.215-9.215 9.215s-9.215-4.125-9.215-9.215 4.125-9.215 9.215-9.215 9.215 4.125 9.215 9.215m33.17 0a9.214 9.214 0 0 1-9.215 9.215c-5.09 0-9.215-4.125-9.215-9.215s4.125-9.215 9.215-9.215a9.214 9.214 0 0 1 9.215 9.215m33.18 0c0 5.09-4.125 9.215-9.215 9.215s-9.215-4.125-9.215-9.215 4.125-9.215 9.215-9.215 9.215 4.125 9.215 9.215m33.16 0c0 5.09-4.125 9.215-9.215 9.215s-9.215-4.125-9.215-9.215 4.125-9.215 9.215-9.215 9.215 4.125 9.215 9.215m33.18 0a9.214 9.214 0 0 1-9.215 9.215c-5.09 0-9.215-4.125-9.215-9.215s4.125-9.215 9.215-9.215a9.214 9.214 0 0 1 9.215 9.215m-563.95 33.18c0 5.09-4.129 9.215-9.219 9.215s-9.215-4.125-9.215-9.215 4.125-9.215 9.215-9.215 9.219 4.125 9.219 9.215m33.18 0c0 5.09-4.129 9.215-9.219 9.215s-9.215-4.125-9.215-9.215 4.125-9.215 9.215-9.215 9.219 4.125 9.219 9.215m33.17 0c0 5.09-4.129 9.215-9.219 9.215s-9.215-4.125-9.215-9.215 4.125-9.215 9.215-9.215 9.219 4.125 9.219 9.215m33.15 0c0 5.09-4.129 9.215-9.219 9.215s-9.215-4.125-9.215-9.215 4.125-9.215 9.215-9.215 9.219 4.125 9.219 9.215m66.37 0c0 5.09-4.129 9.215-9.219 9.215s-9.215-4.125-9.215-9.215 4.125-9.215 9.215-9.215 9.219 4.125 9.219 9.215m33.17 0a9.214 9.214 0 0 1-9.215 9.215c-5.09 0-9.219-4.125-9.219-9.215s4.13-9.215 9.22-9.215a9.214 9.214 0 0 1 9.214 9.215m33.17 0c0 5.09-4.125 9.215-9.215 9.215s-9.219-4.125-9.219-9.215 4.13-9.215 9.22-9.215 9.214 4.125 9.214 9.215m33.17 0c0 5.09-4.125 9.215-9.215 9.215s-9.219-4.125-9.219-9.215 4.13-9.215 9.22-9.215 9.214 4.125 9.214 9.215m33.19 0a9.214 9.214 0 0 1-9.215 9.215c-5.09 0-9.219-4.125-9.219-9.215s4.13-9.215 9.22-9.215a9.214 9.214 0 0 1 9.214 9.215m33.17 0c0 5.09-4.125 9.215-9.215 9.215s-9.219-4.125-9.219-9.215 4.13-9.215 9.22-9.215 9.214 4.125 9.214 9.215m33.16 0a9.214 9.214 0 0 1-9.215 9.215c-5.09 0-9.219-4.125-9.219-9.215s4.13-9.215 9.22-9.215a9.214 9.214 0 0 1 9.214 9.215m33.17 0a9.214 9.214 0 0 1-9.215 9.215c-5.09 0-9.219-4.125-9.219-9.215s4.13-9.215 9.22-9.215a9.214 9.214 0 0 1 9.214 9.215m33.19 0c0 5.09-4.125 9.215-9.215 9.215s-9.215-4.125-9.215-9.215 4.125-9.215 9.215-9.215 9.215 4.125 9.215 9.215m33.17 0a9.214 9.214 0 0 1-9.215 9.215c-5.09 0-9.215-4.125-9.215-9.215s4.125-9.215 9.215-9.215a9.214 9.214 0 0 1 9.215 9.215m33.18 0c0 5.09-4.125 9.215-9.215 9.215s-9.215-4.125-9.215-9.215 4.125-9.215 9.215-9.215 9.215 4.125 9.215 9.215m33.16 0c0 5.09-4.125 9.215-9.215 9.215s-9.215-4.125-9.215-9.215 4.125-9.215 9.215-9.215 9.215 4.125 9.215 9.215m33.18 0a9.214 9.214 0 0 1-9.215 9.215c-5.09 0-9.215-4.125-9.215-9.215s4.125-9.215 9.215-9.215a9.214 9.214 0 0 1 9.215 9.215m-563.95 33.17c0 5.09-4.129 9.215-9.219 9.215a9.214 9.214 0 0 1-9.215-9.215 9.214 9.214 0 0 1 9.215-9.215c5.09 0 9.219 4.125 9.219 9.215m33.18 0c0 5.09-4.129 9.215-9.219 9.215s-9.215-4.125-9.215-9.215 4.125-9.215 9.215-9.215 9.219 4.125 9.219 9.215m33.17 0c0 5.09-4.129 9.215-9.219 9.215a9.214 9.214 0 0 1-9.215-9.215 9.214 9.214 0 0 1 9.215-9.215c5.09 0 9.219 4.125 9.219 9.215m33.15 0c0 5.09-4.129 9.215-9.219 9.215a9.214 9.214 0 0 1-9.215-9.215 9.214 9.214 0 0 1 9.215-9.215c5.09 0 9.219 4.125 9.219 9.215m33.18 0c0 5.09-4.129 9.215-9.219 9.215s-9.215-4.125-9.215-9.215 4.125-9.215 9.215-9.215 9.219 4.125 9.219 9.215m33.19 0c0 5.09-4.129 9.215-9.219 9.215a9.214 9.214 0 0 1-9.215-9.215 9.214 9.214 0 0 1 9.215-9.215c5.09 0 9.219 4.125 9.219 9.215m33.17 0a9.214 9.214 0 0 1-9.215 9.215c-5.09 0-9.219-4.125-9.219-9.215s4.13-9.215 9.22-9.215a9.214 9.214 0 0 1 9.214 9.215m33.17 0c0 5.09-4.125 9.215-9.215 9.215s-9.219-4.125-9.219-9.215 4.13-9.215 9.22-9.215 9.214 4.125 9.214 9.215m33.17 0c0 5.09-4.125 9.215-9.215 9.215s-9.219-4.125-9.219-9.215 4.13-9.215 9.22-9.215 9.214 4.125 9.214 9.215m33.19 0a9.214 9.214 0 0 1-9.215 9.215c-5.09 0-9.219-4.125-9.219-9.215s4.13-9.215 9.22-9.215a9.214 9.214 0 0 1 9.214 9.215m33.17 0c0 5.09-4.125 9.215-9.215 9.215s-9.219-4.125-9.219-9.215 4.13-9.215 9.22-9.215 9.214 4.125 9.214 9.215m33.16 0a9.214 9.214 0 0 1-9.215 9.215c-5.09 0-9.219-4.125-9.219-9.215s4.13-9.215 9.22-9.215a9.214 9.214 0 0 1 9.214 9.215m33.17 0a9.214 9.214 0 0 1-9.215 9.215c-5.09 0-9.219-4.125-9.219-9.215s4.13-9.215 9.22-9.215a9.214 9.214 0 0 1 9.214 9.215m33.19 0c0 5.09-4.125 9.215-9.215 9.215s-9.215-4.125-9.215-9.215 4.125-9.215 9.215-9.215 9.215 4.125 9.215 9.215m33.17 0a9.214 9.214 0 0 1-9.215 9.215 9.214 9.214 0 0 1-9.215-9.215 9.214 9.214 0 0 1 9.215-9.215 9.214 9.214 0 0 1 9.215 9.215m33.18 0c0 5.09-4.125 9.215-9.215 9.215s-9.215-4.125-9.215-9.215 4.125-9.215 9.215-9.215 9.215 4.125 9.215 9.215m33.16 0c0 5.09-4.125 9.215-9.215 9.215s-9.215-4.125-9.215-9.215 4.125-9.215 9.215-9.215 9.215 4.125 9.215 9.215m33.18 0a9.214 9.214 0 0 1-9.215 9.215 9.214 9.214 0 0 1-9.215-9.215 9.214 9.214 0 0 1 9.215-9.215 9.214 9.214 0 0 1 9.215 9.215m-597.15 33.19c0 5.09-4.125 9.215-9.215 9.215s-9.215-4.125-9.215-9.215 4.125-9.215 9.215-9.215 9.215 4.125 9.215 9.215m33.2 0c0 5.09-4.129 9.215-9.219 9.215a9.214 9.214 0 0 1-9.215-9.215 9.214 9.214 0 0 1 9.215-9.215c5.09 0 9.219 4.125 9.219 9.215m33.18 0c0 5.09-4.129 9.215-9.219 9.215s-9.215-4.125-9.215-9.215 4.125-9.215 9.215-9.215 9.219 4.125 9.219 9.215m33.17 0c0 5.09-4.129 9.215-9.219 9.215a9.214 9.214 0 0 1-9.215-9.215 9.214 9.214 0 0 1 9.215-9.215c5.09 0 9.219 4.125 9.219 9.215m33.15 0c0 5.09-4.129 9.215-9.219 9.215a9.214 9.214 0 0 1-9.215-9.215 9.214 9.214 0 0 1 9.215-9.215c5.09 0 9.219 4.125 9.219 9.215m33.18 0c0 5.09-4.129 9.215-9.219 9.215s-9.215-4.125-9.215-9.215 4.125-9.215 9.215-9.215 9.219 4.125 9.219 9.215m33.19 0c0 5.09-4.129 9.215-9.219 9.215a9.214 9.214 0 0 1-9.215-9.215 9.214 9.214 0 0 1 9.215-9.215c5.09 0 9.219 4.125 9.219 9.215m33.17 0a9.214 9.214 0 0 1-9.215 9.215c-5.09 0-9.219-4.125-9.219-9.215s4.13-9.215 9.22-9.215a9.214 9.214 0 0 1 9.214 9.215m33.17 0c0 5.09-4.125 9.215-9.215 9.215s-9.219-4.125-9.219-9.215 4.13-9.215 9.22-9.215 9.214 4.125 9.214 9.215m33.17 0c0 5.09-4.125 9.215-9.215 9.215s-9.219-4.125-9.219-9.215 4.13-9.215 9.22-9.215 9.214 4.125 9.214 9.215m33.19 0a9.214 9.214 0 0 1-9.215 9.215c-5.09 0-9.219-4.125-9.219-9.215s4.13-9.215 9.22-9.215a9.214 9.214 0 0 1 9.214 9.215m33.17 0c0 5.09-4.125 9.215-9.215 9.215s-9.219-4.125-9.219-9.215 4.13-9.215 9.22-9.215 9.214 4.125 9.214 9.215m33.16 0a9.214 9.214 0 0 1-9.215 9.215c-5.09 0-9.219-4.125-9.219-9.215s4.13-9.215 9.22-9.215a9.214 9.214 0 0 1 9.214 9.215m33.17 0a9.214 9.214 0 0 1-9.215 9.215c-5.09 0-9.219-4.125-9.219-9.215s4.13-9.215 9.22-9.215a9.214 9.214 0 0 1 9.214 9.215m33.19 0c0 5.09-4.125 9.215-9.215 9.215s-9.215-4.125-9.215-9.215 4.125-9.215 9.215-9.215 9.215 4.125 9.215 9.215m33.17 0a9.214 9.214 0 0 1-9.215 9.215 9.214 9.214 0 0 1-9.215-9.215 9.214 9.214 0 0 1 9.215-9.215 9.214 9.214 0 0 1 9.215 9.215m33.18 0c0 5.09-4.125 9.215-9.215 9.215s-9.215-4.125-9.215-9.215 4.125-9.215 9.215-9.215 9.215 4.125 9.215 9.215m33.16 0c0 5.09-4.125 9.215-9.215 9.215s-9.215-4.125-9.215-9.215 4.125-9.215 9.215-9.215 9.215 4.125 9.215 9.215m-597.12 33.18c0 5.09-4.125 9.215-9.215 9.215s-9.215-4.125-9.215-9.215 4.125-9.215 9.215-9.215 9.215 4.125 9.215 9.215m33.15 0c0 5.09-4.125 9.215-9.215 9.215s-9.215-4.125-9.215-9.215 4.125-9.215 9.215-9.215 9.215 4.125 9.215 9.215m33.2 0c0 5.09-4.129 9.215-9.219 9.215s-9.215-4.125-9.215-9.215 4.125-9.215 9.215-9.215 9.219 4.125 9.219 9.215m33.18 0c0 5.09-4.129 9.215-9.219 9.215s-9.215-4.125-9.215-9.215 4.125-9.215 9.215-9.215 9.219 4.125 9.219 9.215m33.17 0c0 5.09-4.129 9.215-9.219 9.215s-9.215-4.125-9.215-9.215 4.125-9.215 9.215-9.215 9.219 4.125 9.219 9.215m33.15 0c0 5.09-4.129 9.215-9.219 9.215s-9.215-4.125-9.215-9.215 4.125-9.215 9.215-9.215 9.219 4.125 9.219 9.215m33.18 0c0 5.09-4.129 9.215-9.219 9.215s-9.215-4.125-9.215-9.215 4.125-9.215 9.215-9.215 9.219 4.125 9.219 9.215m33.19 0c0 5.09-4.129 9.215-9.219 9.215s-9.215-4.125-9.215-9.215 4.125-9.215 9.215-9.215 9.219 4.125 9.219 9.215m33.17 0a9.214 9.214 0 0 1-9.215 9.215c-5.09 0-9.219-4.125-9.219-9.215s4.13-9.215 9.22-9.215a9.214 9.214 0 0 1 9.214 9.215m33.17 0c0 5.09-4.125 9.215-9.215 9.215s-9.219-4.125-9.219-9.215 4.13-9.215 9.22-9.215 9.214 4.125 9.214 9.215m33.17 0c0 5.09-4.125 9.215-9.215 9.215s-9.219-4.125-9.219-9.215 4.13-9.215 9.22-9.215 9.214 4.125 9.214 9.215m33.19 0a9.214 9.214 0 0 1-9.215 9.215c-5.09 0-9.219-4.125-9.219-9.215s4.13-9.215 9.22-9.215a9.214 9.214 0 0 1 9.214 9.215m33.17 0c0 5.09-4.125 9.215-9.215 9.215s-9.219-4.125-9.219-9.215 4.13-9.215 9.22-9.215 9.214 4.125 9.214 9.215m33.16 0a9.214 9.214 0 0 1-9.215 9.215c-5.09 0-9.219-4.125-9.219-9.215s4.13-9.215 9.22-9.215a9.214 9.214 0 0 1 9.214 9.215m33.17 0a9.214 9.214 0 0 1-9.215 9.215c-5.09 0-9.219-4.125-9.219-9.215s4.13-9.215 9.22-9.215a9.214 9.214 0 0 1 9.214 9.215m33.19 0c0 5.09-4.125 9.215-9.215 9.215s-9.215-4.125-9.215-9.215 4.125-9.215 9.215-9.215 9.215 4.125 9.215 9.215m33.17 0a9.214 9.214 0 0 1-9.215 9.215c-5.09 0-9.215-4.125-9.215-9.215s4.125-9.215 9.215-9.215a9.214 9.214 0 0 1 9.215 9.215m33.18 0c0 5.09-4.125 9.215-9.215 9.215s-9.215-4.125-9.215-9.215 4.125-9.215 9.215-9.215 9.215 4.125 9.215 9.215m-597.13 33.17a9.214 9.214 0 0 1-9.215 9.215c-5.09 0-9.215-4.125-9.215-9.215s4.125-9.215 9.215-9.215a9.214 9.214 0 0 1 9.215 9.215m33.17 0c0 5.09-4.125 9.215-9.215 9.215s-9.215-4.125-9.215-9.215 4.125-9.215 9.215-9.215 9.215 4.125 9.215 9.215m33.15 0c0 5.09-4.125 9.215-9.215 9.215s-9.215-4.125-9.215-9.215 4.125-9.215 9.215-9.215 9.215 4.125 9.215 9.215m33.2 0c0 5.09-4.129 9.215-9.219 9.215s-9.215-4.125-9.215-9.215 4.125-9.215 9.215-9.215 9.219 4.125 9.219 9.215m33.18 0c0 5.09-4.129 9.215-9.219 9.215s-9.215-4.125-9.215-9.215 4.125-9.215 9.215-9.215 9.219 4.125 9.219 9.215m33.17 0c0 5.09-4.129 9.215-9.219 9.215s-9.215-4.125-9.215-9.215 4.125-9.215 9.215-9.215 9.219 4.125 9.219 9.215m33.15 0c0 5.09-4.129 9.215-9.219 9.215s-9.215-4.125-9.215-9.215 4.125-9.215 9.215-9.215 9.219 4.125 9.219 9.215m33.18 0c0 5.09-4.129 9.215-9.219 9.215s-9.215-4.125-9.215-9.215 4.125-9.215 9.215-9.215 9.219 4.125 9.219 9.215m33.19 0c0 5.09-4.129 9.215-9.219 9.215s-9.215-4.125-9.215-9.215 4.125-9.215 9.215-9.215 9.219 4.125 9.219 9.215m33.17 0a9.214 9.214 0 0 1-9.215 9.215c-5.09 0-9.219-4.125-9.219-9.215s4.13-9.215 9.22-9.215a9.214 9.214 0 0 1 9.214 9.215m33.17 0c0 5.09-4.125 9.215-9.215 9.215s-9.219-4.125-9.219-9.215 4.13-9.215 9.22-9.215 9.214 4.125 9.214 9.215m33.17 0c0 5.09-4.125 9.215-9.215 9.215s-9.219-4.125-9.219-9.215 4.13-9.215 9.22-9.215 9.214 4.125 9.214 9.215m33.19 0a9.214 9.214 0 0 1-9.215 9.215c-5.09 0-9.219-4.125-9.219-9.215s4.13-9.215 9.22-9.215a9.214 9.214 0 0 1 9.214 9.215m33.17 0c0 5.09-4.125 9.215-9.215 9.215s-9.219-4.125-9.219-9.215 4.13-9.215 9.22-9.215 9.214 4.125 9.214 9.215m33.16 0a9.214 9.214 0 0 1-9.215 9.215c-5.09 0-9.219-4.125-9.219-9.215s4.13-9.215 9.22-9.215a9.214 9.214 0 0 1 9.214 9.215m33.17 0a9.214 9.214 0 0 1-9.215 9.215c-5.09 0-9.219-4.125-9.219-9.215s4.13-9.215 9.22-9.215a9.214 9.214 0 0 1 9.214 9.215m33.19 0c0 5.09-4.125 9.215-9.215 9.215s-9.215-4.125-9.215-9.215 4.125-9.215 9.215-9.215 9.215 4.125 9.215 9.215m33.17 0a9.214 9.214 0 0 1-9.215 9.215c-5.09 0-9.215-4.125-9.215-9.215s4.125-9.215 9.215-9.215a9.214 9.214 0 0 1 9.215 9.215m33.18 0c0 5.09-4.125 9.215-9.215 9.215s-9.215-4.125-9.215-9.215 4.125-9.215 9.215-9.215 9.215 4.125 9.215 9.215m33.16 0c0 5.09-4.125 9.215-9.215 9.215s-9.215-4.125-9.215-9.215 4.125-9.215 9.215-9.215 9.215 4.125 9.215 9.215M327.24 699.5a9.214 9.214 0 0 1-9.215 9.215c-5.09 0-9.215-4.125-9.215-9.215s4.125-9.215 9.215-9.215a9.214 9.214 0 0 1 9.215 9.215m33.17 0c0 5.09-4.125 9.215-9.215 9.215s-9.215-4.125-9.215-9.215 4.125-9.215 9.215-9.215 9.215 4.125 9.215 9.215m33.15 0c0 5.09-4.125 9.215-9.215 9.215s-9.215-4.125-9.215-9.215 4.125-9.215 9.215-9.215 9.215 4.125 9.215 9.215m33.2 0c0 5.09-4.129 9.215-9.219 9.215s-9.215-4.125-9.215-9.215 4.125-9.215 9.215-9.215 9.219 4.125 9.219 9.215m33.18 0c0 5.09-4.129 9.215-9.219 9.215s-9.215-4.125-9.215-9.215 4.125-9.215 9.215-9.215 9.219 4.125 9.219 9.215m33.17 0c0 5.09-4.129 9.215-9.219 9.215s-9.215-4.125-9.215-9.215 4.125-9.215 9.215-9.215 9.219 4.125 9.219 9.215m33.15 0c0 5.09-4.129 9.215-9.219 9.215s-9.215-4.125-9.215-9.215 4.125-9.215 9.215-9.215 9.219 4.125 9.219 9.215m33.18 0c0 5.09-4.129 9.215-9.219 9.215s-9.215-4.125-9.215-9.215 4.125-9.215 9.215-9.215 9.219 4.125 9.219 9.215m33.19 0c0 5.09-4.129 9.215-9.219 9.215s-9.215-4.125-9.215-9.215 4.125-9.215 9.215-9.215 9.219 4.125 9.219 9.215m33.17 0a9.214 9.214 0 0 1-9.215 9.215c-5.09 0-9.219-4.125-9.219-9.215s4.13-9.215 9.22-9.215a9.214 9.214 0 0 1 9.214 9.215m33.17 0c0 5.09-4.125 9.215-9.215 9.215s-9.219-4.125-9.219-9.215 4.13-9.215 9.22-9.215 9.214 4.125 9.214 9.215m33.17 0c0 5.09-4.125 9.215-9.215 9.215s-9.219-4.125-9.219-9.215 4.13-9.215 9.22-9.215 9.214 4.125 9.214 9.215m33.19 0a9.214 9.214 0 0 1-9.215 9.215c-5.09 0-9.219-4.125-9.219-9.215s4.13-9.215 9.22-9.215a9.214 9.214 0 0 1 9.214 9.215m33.17 0c0 5.09-4.125 9.215-9.215 9.215s-9.219-4.125-9.219-9.215 4.13-9.215 9.22-9.215 9.214 4.125 9.214 9.215m33.16 0a9.214 9.214 0 0 1-9.215 9.215c-5.09 0-9.219-4.125-9.219-9.215s4.13-9.215 9.22-9.215a9.214 9.214 0 0 1 9.214 9.215m33.17 0a9.214 9.214 0 0 1-9.215 9.215c-5.09 0-9.219-4.125-9.219-9.215s4.13-9.215 9.22-9.215a9.214 9.214 0 0 1 9.214 9.215m33.19 0c0 5.09-4.125 9.215-9.215 9.215s-9.215-4.125-9.215-9.215 4.125-9.215 9.215-9.215 9.215 4.125 9.215 9.215m33.17 0a9.214 9.214 0 0 1-9.215 9.215c-5.09 0-9.215-4.125-9.215-9.215s4.125-9.215 9.215-9.215a9.214 9.214 0 0 1 9.215 9.215m33.18 0c0 5.09-4.125 9.215-9.215 9.215s-9.215-4.125-9.215-9.215 4.125-9.215 9.215-9.215 9.215 4.125 9.215 9.215m-630.31 33.21c0 5.09-4.125 9.219-9.215 9.219s-9.215-4.13-9.215-9.219c0-5.09 4.125-9.215 9.215-9.215s9.215 4.125 9.215 9.215m33.18 0c0 5.09-4.125 9.219-9.215 9.219s-9.215-4.13-9.215-9.219a9.214 9.214 0 0 1 9.215-9.215 9.214 9.214 0 0 1 9.215 9.215m33.17 0c0 5.09-4.125 9.219-9.215 9.219s-9.215-4.13-9.215-9.219c0-5.09 4.125-9.215 9.215-9.215s9.215 4.125 9.215 9.215m33.15 0c0 5.09-4.125 9.219-9.215 9.219s-9.215-4.13-9.215-9.219c0-5.09 4.125-9.215 9.215-9.215s9.215 4.125 9.215 9.215m33.2 0c0 5.09-4.129 9.219-9.219 9.219s-9.215-4.13-9.215-9.219a9.214 9.214 0 0 1 9.215-9.215c5.09 0 9.219 4.125 9.219 9.215m33.18 0c0 5.09-4.129 9.219-9.219 9.219s-9.215-4.13-9.215-9.219c0-5.09 4.125-9.215 9.215-9.215s9.219 4.125 9.219 9.215m33.17 0c0 5.09-4.129 9.219-9.219 9.219s-9.215-4.13-9.215-9.219a9.214 9.214 0 0 1 9.215-9.215c5.09 0 9.219 4.125 9.219 9.215m33.15 0c0 5.09-4.129 9.219-9.219 9.219s-9.215-4.13-9.215-9.219a9.214 9.214 0 0 1 9.215-9.215c5.09 0 9.219 4.125 9.219 9.215m33.18 0c0 5.09-4.129 9.219-9.219 9.219s-9.215-4.13-9.215-9.219c0-5.09 4.125-9.215 9.215-9.215s9.219 4.125 9.219 9.215m33.19 0c0 5.09-4.129 9.219-9.219 9.219s-9.215-4.13-9.215-9.219a9.214 9.214 0 0 1 9.215-9.215c5.09 0 9.219 4.125 9.219 9.215m33.17 0c0 5.09-4.125 9.219-9.215 9.219s-9.219-4.13-9.219-9.219c0-5.09 4.13-9.215 9.22-9.215a9.214 9.214 0 0 1 9.214 9.215m33.17 0c0 5.09-4.125 9.219-9.215 9.219s-9.219-4.13-9.219-9.219c0-5.09 4.13-9.215 9.22-9.215s9.214 4.125 9.214 9.215m33.17 0c0 5.09-4.125 9.219-9.215 9.219s-9.219-4.13-9.219-9.219c0-5.09 4.13-9.215 9.22-9.215s9.214 4.125 9.214 9.215m33.19 0c0 5.09-4.125 9.219-9.215 9.219s-9.219-4.13-9.219-9.219c0-5.09 4.13-9.215 9.22-9.215a9.214 9.214 0 0 1 9.214 9.215m33.17 0c0 5.09-4.125 9.219-9.215 9.219s-9.219-4.13-9.219-9.219c0-5.09 4.13-9.215 9.22-9.215s9.214 4.125 9.214 9.215m-497.63 33.18c0 5.09-4.125 9.219-9.215 9.219s-9.215-4.13-9.215-9.219c0-5.09 4.125-9.215 9.215-9.215s9.215 4.125 9.215 9.215m33.19 0c0 5.09-4.125 9.219-9.215 9.219s-9.215-4.13-9.215-9.219c0-5.09 4.125-9.215 9.215-9.215s9.215 4.125 9.215 9.215m33.18 0c0 5.09-4.125 9.219-9.215 9.219s-9.215-4.13-9.215-9.219a9.214 9.214 0 0 1 9.215-9.215 9.214 9.214 0 0 1 9.215 9.215m66.32 0c0 5.09-4.125 9.219-9.215 9.219s-9.215-4.13-9.215-9.219c0-5.09 4.125-9.215 9.215-9.215s9.215 4.125 9.215 9.215m33.2 0c0 5.09-4.129 9.219-9.219 9.219s-9.215-4.13-9.215-9.219a9.214 9.214 0 0 1 9.215-9.215c5.09 0 9.219 4.125 9.219 9.215m33.18 0c0 5.09-4.129 9.219-9.219 9.219s-9.215-4.13-9.215-9.219c0-5.09 4.125-9.215 9.215-9.215s9.219 4.125 9.219 9.215m33.17 0c0 5.09-4.129 9.219-9.219 9.219s-9.215-4.13-9.215-9.219a9.214 9.214 0 0 1 9.215-9.215c5.09 0 9.219 4.125 9.219 9.215m33.15 0c0 5.09-4.129 9.219-9.219 9.219s-9.215-4.13-9.215-9.219a9.214 9.214 0 0 1 9.215-9.215c5.09 0 9.219 4.125 9.219 9.215m33.18 0c0 5.09-4.129 9.219-9.219 9.219s-9.215-4.13-9.215-9.219c0-5.09 4.125-9.215 9.215-9.215s9.219 4.125 9.219 9.215m33.19 0c0 5.09-4.129 9.219-9.219 9.219s-9.215-4.13-9.215-9.219a9.214 9.214 0 0 1 9.215-9.215c5.09 0 9.219 4.125 9.219 9.215m33.17 0c0 5.09-4.125 9.219-9.215 9.219s-9.219-4.13-9.219-9.219c0-5.09 4.13-9.215 9.22-9.215a9.214 9.214 0 0 1 9.214 9.215m33.17 0c0 5.09-4.125 9.219-9.215 9.219s-9.219-4.13-9.219-9.219c0-5.09 4.13-9.215 9.22-9.215s9.214 4.125 9.214 9.215m33.17 0c0 5.09-4.125 9.219-9.215 9.219s-9.219-4.13-9.219-9.219c0-5.09 4.13-9.215 9.22-9.215s9.214 4.125 9.214 9.215m33.19 0c0 5.09-4.125 9.219-9.215 9.219s-9.219-4.13-9.219-9.219c0-5.09 4.13-9.215 9.22-9.215a9.214 9.214 0 0 1 9.214 9.215m33.17 0c0 5.09-4.125 9.219-9.215 9.219s-9.219-4.13-9.219-9.219c0-5.09 4.13-9.215 9.22-9.215s9.214 4.125 9.214 9.215m-464.44 33.15c0 5.09-4.125 9.219-9.215 9.219s-9.215-4.13-9.215-9.219c0-5.09 4.125-9.215 9.215-9.215s9.215 4.125 9.215 9.215m33.18 0c0 5.09-4.125 9.219-9.215 9.219s-9.215-4.13-9.215-9.219a9.214 9.214 0 0 1 9.215-9.215 9.214 9.214 0 0 1 9.215 9.215m33.17 0c0 5.09-4.125 9.219-9.215 9.219s-9.215-4.13-9.215-9.219c0-5.09 4.125-9.215 9.215-9.215s9.215 4.125 9.215 9.215m33.15 0c0 5.09-4.125 9.219-9.215 9.219s-9.215-4.13-9.215-9.219c0-5.09 4.125-9.215 9.215-9.215s9.215 4.125 9.215 9.215m33.2 0c0 5.09-4.129 9.219-9.219 9.219s-9.215-4.13-9.215-9.219a9.214 9.214 0 0 1 9.215-9.215c5.09 0 9.219 4.125 9.219 9.215m33.18 0c0 5.09-4.129 9.219-9.219 9.219s-9.215-4.13-9.215-9.219c0-5.09 4.125-9.215 9.215-9.215s9.219 4.125 9.219 9.215m33.17 0c0 5.09-4.129 9.219-9.219 9.219s-9.215-4.13-9.215-9.219a9.214 9.214 0 0 1 9.215-9.215c5.09 0 9.219 4.125 9.219 9.215m33.15 0c0 5.09-4.129 9.219-9.219 9.219s-9.215-4.13-9.215-9.219a9.214 9.214 0 0 1 9.215-9.215c5.09 0 9.219 4.125 9.219 9.215m33.18 0c0 5.09-4.129 9.219-9.219 9.219s-9.215-4.13-9.215-9.219c0-5.09 4.125-9.215 9.215-9.215s9.219 4.125 9.219 9.215m33.19 0c0 5.09-4.129 9.219-9.219 9.219s-9.215-4.13-9.215-9.219a9.214 9.214 0 0 1 9.215-9.215c5.09 0 9.219 4.125 9.219 9.215m33.17 0c0 5.09-4.125 9.219-9.215 9.219s-9.219-4.13-9.219-9.219c0-5.09 4.13-9.215 9.22-9.215a9.214 9.214 0 0 1 9.214 9.215m33.17 0c0 5.09-4.125 9.219-9.215 9.219s-9.219-4.13-9.219-9.219c0-5.09 4.13-9.215 9.22-9.215s9.214 4.125 9.214 9.215m33.17 0c0 5.09-4.125 9.219-9.215 9.219s-9.219-4.13-9.219-9.219c0-5.09 4.13-9.215 9.22-9.215s9.214 4.125 9.214 9.215m33.19 0c0 5.09-4.125 9.219-9.215 9.219s-9.219-4.13-9.219-9.219c0-5.09 4.13-9.215 9.22-9.215a9.214 9.214 0 0 1 9.214 9.215m33.17 0c0 5.09-4.125 9.219-9.215 9.219s-9.219-4.13-9.219-9.219c0-5.09 4.13-9.215 9.22-9.215s9.214 4.125 9.214 9.215m33.16 0c0 5.09-4.125 9.219-9.215 9.219s-9.219-4.13-9.219-9.219c0-5.09 4.13-9.215 9.22-9.215a9.214 9.214 0 0 1 9.214 9.215m-597.12 33.19c0 5.09-4.125 9.219-9.215 9.219s-9.215-4.13-9.215-9.219 4.125-9.215 9.215-9.215 9.215 4.125 9.215 9.215m33.18 0c0 5.09-4.125 9.219-9.215 9.219s-9.215-4.13-9.215-9.219 4.125-9.215 9.215-9.215a9.214 9.214 0 0 1 9.215 9.215m33.15 0c0 5.09-4.125 9.219-9.215 9.219s-9.215-4.13-9.215-9.219 4.125-9.215 9.215-9.215 9.215 4.125 9.215 9.215m66.37 0c0 5.09-4.125 9.219-9.215 9.219s-9.215-4.13-9.215-9.219 4.125-9.215 9.215-9.215a9.214 9.214 0 0 1 9.215 9.215m33.17 0c0 5.09-4.125 9.219-9.215 9.219s-9.215-4.13-9.215-9.219 4.125-9.215 9.215-9.215 9.215 4.125 9.215 9.215m33.15 0c0 5.09-4.125 9.219-9.215 9.219s-9.215-4.13-9.215-9.219 4.125-9.215 9.215-9.215 9.215 4.125 9.215 9.215m33.2 0c0 5.09-4.129 9.219-9.219 9.219s-9.215-4.13-9.215-9.219 4.125-9.215 9.215-9.215 9.219 4.125 9.219 9.215m33.18 0c0 5.09-4.129 9.219-9.219 9.219s-9.215-4.13-9.215-9.219 4.125-9.215 9.215-9.215 9.219 4.125 9.219 9.215m33.17 0c0 5.09-4.129 9.219-9.219 9.219s-9.215-4.13-9.215-9.219 4.125-9.215 9.215-9.215 9.219 4.125 9.219 9.215m33.15 0c0 5.09-4.129 9.219-9.219 9.219s-9.215-4.13-9.215-9.219 4.125-9.215 9.215-9.215 9.219 4.125 9.219 9.215m33.18 0c0 5.09-4.129 9.219-9.219 9.219s-9.215-4.13-9.215-9.219 4.125-9.215 9.215-9.215 9.219 4.125 9.219 9.215m33.19 0c0 5.09-4.129 9.219-9.219 9.219s-9.215-4.13-9.215-9.219 4.125-9.215 9.215-9.215 9.219 4.125 9.219 9.215m33.17 0c0 5.09-4.125 9.219-9.215 9.219s-9.219-4.13-9.219-9.219 4.13-9.215 9.22-9.215a9.214 9.214 0 0 1 9.214 9.215m33.17 0c0 5.09-4.125 9.219-9.215 9.219s-9.219-4.13-9.219-9.219 4.13-9.215 9.22-9.215 9.214 4.125 9.214 9.215m33.17 0c0 5.09-4.125 9.219-9.215 9.219s-9.219-4.13-9.219-9.219 4.13-9.215 9.22-9.215 9.214 4.125 9.214 9.215m33.19 0c0 5.09-4.125 9.219-9.215 9.219s-9.219-4.13-9.219-9.219 4.13-9.215 9.22-9.215a9.214 9.214 0 0 1 9.214 9.215m33.17 0c0 5.09-4.125 9.219-9.215 9.219s-9.219-4.13-9.219-9.219 4.13-9.215 9.22-9.215 9.214 4.125 9.214 9.215m33.16 0c0 5.09-4.125 9.219-9.215 9.219s-9.219-4.13-9.219-9.219 4.13-9.215 9.22-9.215a9.214 9.214 0 0 1 9.214 9.215M194.54 865.4c0 5.09-4.125 9.219-9.215 9.219s-9.215-4.13-9.215-9.219 4.125-9.215 9.215-9.215 9.215 4.125 9.215 9.215m33.18 0c0 5.09-4.125 9.219-9.215 9.219s-9.215-4.13-9.215-9.219 4.125-9.215 9.215-9.215a9.214 9.214 0 0 1 9.215 9.215m33.15 0c0 5.09-4.125 9.219-9.215 9.219s-9.215-4.13-9.215-9.219 4.125-9.215 9.215-9.215 9.215 4.125 9.215 9.215m33.19 0c0 5.09-4.125 9.219-9.215 9.219s-9.215-4.13-9.215-9.219 4.125-9.215 9.215-9.215 9.215 4.125 9.215 9.215m66.35 0c0 5.09-4.125 9.219-9.215 9.219s-9.215-4.13-9.215-9.219 4.125-9.215 9.215-9.215 9.215 4.125 9.215 9.215m33.15 0c0 5.09-4.125 9.219-9.215 9.219s-9.215-4.13-9.215-9.219 4.125-9.215 9.215-9.215 9.215 4.125 9.215 9.215m33.2 0c0 5.09-4.129 9.219-9.219 9.219s-9.215-4.13-9.215-9.219 4.125-9.215 9.215-9.215 9.219 4.125 9.219 9.215m33.18 0c0 5.09-4.129 9.219-9.219 9.219s-9.215-4.13-9.215-9.219 4.125-9.215 9.215-9.215 9.219 4.125 9.219 9.215m66.32 0c0 5.09-4.129 9.219-9.219 9.219s-9.215-4.13-9.215-9.219 4.125-9.215 9.215-9.215 9.219 4.125 9.219 9.215m33.18 0c0 5.09-4.129 9.219-9.219 9.219s-9.215-4.13-9.215-9.219 4.125-9.215 9.215-9.215 9.219 4.125 9.219 9.215m33.19 0c0 5.09-4.129 9.219-9.219 9.219s-9.215-4.13-9.215-9.219 4.125-9.215 9.215-9.215 9.219 4.125 9.219 9.215m33.17 0c0 5.09-4.125 9.219-9.215 9.219s-9.219-4.13-9.219-9.219 4.13-9.215 9.22-9.215a9.214 9.214 0 0 1 9.214 9.215m33.17 0c0 5.09-4.125 9.219-9.215 9.219s-9.219-4.13-9.219-9.219 4.13-9.215 9.22-9.215 9.214 4.125 9.214 9.215m33.17 0c0 5.09-4.125 9.219-9.215 9.219s-9.219-4.13-9.219-9.219 4.13-9.215 9.22-9.215 9.214 4.125 9.214 9.215m33.19 0c0 5.09-4.125 9.219-9.215 9.219s-9.219-4.13-9.219-9.219 4.13-9.215 9.22-9.215a9.214 9.214 0 0 1 9.214 9.215m33.17 0c0 5.09-4.125 9.219-9.215 9.219s-9.219-4.13-9.219-9.219 4.13-9.215 9.22-9.215 9.214 4.125 9.214 9.215m33.16 0c0 5.09-4.125 9.219-9.215 9.219s-9.219-4.13-9.219-9.219 4.13-9.215 9.22-9.215a9.214 9.214 0 0 1 9.214 9.215m-630.3 33.15c0 5.09-4.125 9.219-9.215 9.219s-9.215-4.13-9.215-9.219 4.125-9.215 9.215-9.215a9.214 9.214 0 0 1 9.215 9.215m33.18 0c0 5.09-4.125 9.219-9.215 9.219s-9.215-4.13-9.215-9.219 4.125-9.215 9.215-9.215 9.215 4.125 9.215 9.215m66.33 0c0 5.09-4.125 9.219-9.215 9.219s-9.215-4.13-9.215-9.219 4.125-9.215 9.215-9.215 9.215 4.125 9.215 9.215m33.19 0c0 5.09-4.125 9.219-9.215 9.219s-9.215-4.13-9.215-9.219 4.125-9.215 9.215-9.215 9.215 4.125 9.215 9.215m66.35 0c0 5.09-4.125 9.219-9.215 9.219s-9.215-4.13-9.215-9.219 4.125-9.215 9.215-9.215 9.215 4.125 9.215 9.215m33.15 0c0 5.09-4.125 9.219-9.215 9.219s-9.215-4.13-9.215-9.219 4.125-9.215 9.215-9.215 9.215 4.125 9.215 9.215m165.88 0c0 5.09-4.129 9.219-9.219 9.219s-9.215-4.13-9.215-9.219 4.125-9.215 9.215-9.215 9.219 4.125 9.219 9.215m33.19 0c0 5.09-4.129 9.219-9.219 9.219s-9.215-4.13-9.215-9.219 4.125-9.215 9.215-9.215 9.219 4.125 9.219 9.215m33.17 0c0 5.09-4.125 9.219-9.215 9.219s-9.219-4.13-9.219-9.219 4.13-9.215 9.22-9.215a9.214 9.214 0 0 1 9.214 9.215m33.17 0c0 5.09-4.125 9.219-9.215 9.219s-9.219-4.13-9.219-9.219 4.13-9.215 9.22-9.215 9.214 4.125 9.214 9.215m33.17 0c0 5.09-4.125 9.219-9.215 9.219s-9.219-4.13-9.219-9.219 4.13-9.215 9.22-9.215 9.214 4.125 9.214 9.215m33.19 0c0 5.09-4.125 9.219-9.215 9.219s-9.219-4.13-9.219-9.219 4.13-9.215 9.22-9.215a9.214 9.214 0 0 1 9.214 9.215m33.17 0c0 5.09-4.125 9.219-9.215 9.219s-9.219-4.13-9.219-9.219 4.13-9.215 9.22-9.215 9.214 4.125 9.214 9.215m33.16 0c0 5.09-4.125 9.219-9.215 9.219s-9.219-4.13-9.219-9.219 4.13-9.215 9.22-9.215a9.214 9.214 0 0 1 9.214 9.215m-630.3 33.2a9.214 9.214 0 0 1-9.215 9.215c-5.09 0-9.215-4.125-9.215-9.215s4.125-9.219 9.215-9.219 9.215 4.13 9.215 9.219m33.18 0c0 5.09-4.125 9.215-9.215 9.215s-9.215-4.125-9.215-9.215 4.125-9.219 9.215-9.219 9.215 4.13 9.215 9.219m33.18 0a9.214 9.214 0 0 1-9.215 9.215c-5.09 0-9.215-4.125-9.215-9.215s4.125-9.219 9.215-9.219 9.215 4.13 9.215 9.219m33.15 0c0 5.09-4.125 9.215-9.215 9.215s-9.215-4.125-9.215-9.215 4.125-9.219 9.215-9.219 9.215 4.13 9.215 9.219m33.19 0c0 5.09-4.125 9.215-9.215 9.215s-9.215-4.125-9.215-9.215 4.125-9.219 9.215-9.219 9.215 4.13 9.215 9.219m33.18 0a9.214 9.214 0 0 1-9.215 9.215c-5.09 0-9.215-4.125-9.215-9.215s4.125-9.219 9.215-9.219 9.215 4.13 9.215 9.219m265.39 0c0 5.09-4.129 9.215-9.219 9.215s-9.215-4.125-9.215-9.215 4.125-9.219 9.215-9.219 9.219 4.13 9.219 9.219m33.17 0a9.214 9.214 0 0 1-9.215 9.215c-5.09 0-9.219-4.125-9.219-9.215s4.13-9.219 9.22-9.219c5.089 0 9.214 4.13 9.214 9.219m33.17 0c0 5.09-4.125 9.215-9.215 9.215s-9.219-4.125-9.219-9.215 4.13-9.219 9.22-9.219 9.214 4.13 9.214 9.219m33.17 0c0 5.09-4.125 9.215-9.215 9.215s-9.219-4.125-9.219-9.215 4.13-9.219 9.22-9.219 9.214 4.13 9.214 9.219m33.19 0a9.214 9.214 0 0 1-9.215 9.215c-5.09 0-9.219-4.125-9.219-9.215s4.13-9.219 9.22-9.219c5.089 0 9.214 4.13 9.214 9.219m33.17 0c0 5.09-4.125 9.215-9.215 9.215s-9.219-4.125-9.219-9.215 4.13-9.219 9.22-9.219 9.214 4.13 9.214 9.219m33.16 0a9.214 9.214 0 0 1-9.215 9.215c-5.09 0-9.219-4.125-9.219-9.215s4.13-9.219 9.22-9.219c5.089 0 9.214 4.13 9.214 9.219m-530.79 33.17c0 5.09-4.125 9.215-9.215 9.215s-9.215-4.125-9.215-9.215 4.125-9.219 9.215-9.219 9.215 4.13 9.215 9.219m431.27 0c0 5.09-4.125 9.215-9.215 9.215s-9.219-4.125-9.219-9.215 4.13-9.219 9.22-9.219 9.214 4.13 9.214 9.219m33.19 0a9.214 9.214 0 0 1-9.215 9.215c-5.09 0-9.219-4.125-9.219-9.215s4.13-9.219 9.22-9.219c5.089 0 9.214 4.13 9.214 9.219m33.17 0c0 5.09-4.125 9.215-9.215 9.215s-9.219-4.125-9.219-9.215 4.13-9.219 9.22-9.219 9.214 4.13 9.214 9.219m-33.17 33.18a9.214 9.214 0 0 1-9.215 9.215c-5.09 0-9.219-4.125-9.219-9.215s4.13-9.219 9.22-9.219c5.089 0 9.214 4.13 9.214 9.219m33.17 0c0 5.09-4.125 9.215-9.215 9.215s-9.219-4.125-9.219-9.215 4.13-9.219 9.22-9.219 9.214 4.13 9.214 9.219m33.16 0a9.214 9.214 0 0 1-9.215 9.215c-5.09 0-9.219-4.125-9.219-9.215s4.13-9.219 9.22-9.219c5.089 0 9.214 4.13 9.214 9.219m-66.33 33.2a9.214 9.214 0 0 1-9.215 9.215c-5.09 0-9.219-4.125-9.219-9.215s4.13-9.219 9.22-9.219c5.089 0 9.214 4.13 9.214 9.219m33.17 0c0 5.09-4.125 9.215-9.215 9.215s-9.219-4.125-9.219-9.215 4.13-9.219 9.22-9.219 9.214 4.13 9.214 9.219m-33.17 33.1a9.214 9.214 0 0 1-9.215 9.215c-5.09 0-9.219-4.125-9.219-9.215s4.13-9.219 9.22-9.219c5.089 0 9.214 4.13 9.214 9.219m33.17 0c0 5.09-4.125 9.215-9.215 9.215s-9.219-4.125-9.219-9.215 4.13-9.219 9.22-9.219 9.214 4.13 9.214 9.219m-66.36 33.2c0 5.09-4.125 9.215-9.215 9.215s-9.219-4.125-9.219-9.215 4.13-9.219 9.22-9.219 9.214 4.13 9.214 9.219m33.19 0a9.214 9.214 0 0 1-9.215 9.215c-5.09 0-9.219-4.125-9.219-9.215s4.13-9.219 9.22-9.219c5.089 0 9.214 4.13 9.214 9.219m33.17 0c0 5.09-4.125 9.215-9.215 9.215s-9.219-4.125-9.219-9.215 4.13-9.219 9.22-9.219 9.214 4.13 9.214 9.219m-33.17 33.2a9.214 9.214 0 0 1-9.215 9.215c-5.09 0-9.219-4.125-9.219-9.215s4.13-9.219 9.22-9.219c5.089 0 9.214 4.13 9.214 9.219m33.17 0c0 5.09-4.125 9.215-9.215 9.215s-9.219-4.125-9.219-9.215 4.13-9.219 9.22-9.219 9.214 4.13 9.214 9.219"/></svg>