<?xml version="1.0" encoding="UTF-8"?>
<!DOCTYPE svg PUBLIC "-//W3C//DTD SVG 1.1//EN" "http://www.w3.org/Graphics/SVG/1.1/DTD/svg11.dtd">
<!-- Creator: CorelDRAW -->
<svg xmlns="http://www.w3.org/2000/svg" xml:space="preserve" width="200px" height="50px" version="1.1" style="shape-rendering:geometricPrecision; text-rendering:geometricPrecision; image-rendering:optimizeQuality; fill-rule:evenodd; clip-rule:evenodd"
viewBox="0 0 17.22 4.48"
 xmlns:xlink="http://www.w3.org/1999/xlink"
 xmlns:xodm="http://www.corel.com/coreldraw/odm/2003">
 <defs>
  <style type="text/css">
   <![CDATA[
    .fil1 {fill:#FF7C29}
    .fil0 {fill:#1C6570;fill-rule:nonzero}
   ]]>
  </style>
 </defs>
 <g id="Layer_x0020_1">
  <metadata id="CorelCorpID_0Corel-Layer"/>
  <path class="fil0" d="M10.22 3.45c-0.04,0 -0.08,-0.01 -0.11,-0.03 -0.04,-0.02 -0.06,-0.05 -0.09,-0.09 -0.02,-0.04 -0.03,-0.08 -0.03,-0.14 0,-0.05 0.01,-0.1 0.03,-0.14 0.02,-0.04 0.05,-0.07 0.09,-0.09 0.04,-0.02 0.07,-0.03 0.11,-0.03 0.04,0 0.08,0.01 0.11,0.03 0.04,0.02 0.06,0.05 0.09,0.09 0.02,0.04 0.03,0.08 0.03,0.14 0,0.05 -0.01,0.1 -0.03,0.14 -0.02,0.04 -0.05,0.07 -0.09,0.09 -0.04,0.02 -0.07,0.03 -0.11,0.03zm-7.47 0.14l0.78 0c0.03,0 0.06,-0.03 0.06,-0.06l0 -0.78c0,-0.03 -0.03,-0.06 -0.06,-0.06l-0.78 0c-0.03,0 -0.06,0.03 -0.06,0.06l0 0.78c0,0.03 0.03,0.06 0.06,0.06zm-0.12 -0l-0.78 0c-0.03,0 -0.06,0.03 -0.06,0.06l0 0.78c0,0.03 0.03,0.06 0.06,0.06l0.78 0c0.03,0 0.06,-0.03 0.06,-0.06l0 -0.78c0,-0.03 -0.03,-0.06 -0.06,-0.06zm1.79 0l-0.78 0c-0.03,0 -0.06,0.03 -0.06,0.06l0 0.78c0,0.03 0.03,0.06 0.06,0.06l0.78 0c0.03,0 0.06,-0.03 0.06,-0.06l0 -0.78c0,-0.03 -0.03,-0.06 -0.06,-0.06zm-4.42 0.9l1.34 -0.01 -1.35 -1.34 0 1.35zm0.84 -2.69l-0.78 0c-0.03,0 -0.06,0.03 -0.06,0.06l0 0.78c0,0.03 0.03,0.06 0.06,0.06l0.78 0c0.03,0 0.06,-0.03 0.06,-0.06l0 -0.78c0,-0.03 -0.03,-0.06 -0.06,-0.06zm0.12 0l0.78 0c0.03,0 0.06,-0.03 0.06,-0.06l0 -0.78c0,-0.03 -0.03,-0.06 -0.06,-0.06l-0.78 0c-0.03,0 -0.06,0.03 -0.06,0.06l0 0.78c0,0.03 0.03,0.06 0.06,0.06zm-0.12 -1.79l-0.78 0c-0.03,0 -0.06,0.03 -0.06,0.06l0 0.78c0,0.03 0.03,0.06 0.06,0.06l0.78 0c0.03,0 0.06,-0.03 0.06,-0.06l0 -0.78c0,-0.03 -0.03,-0.06 -0.06,-0.06zm5.22 2.49l1.14 0 0 -0.31 -0.66 0 0 -0.01 0.66 -0.92 0 -0.29 -1.11 0 0 0.31 0.62 0 0 0.01 -0.66 0.92 0 0.29zm1.89 -0.22c-0.11,0 -0.19,-0.05 -0.19,-0.3l0 -0.04c0,-0.22 0.07,-0.29 0.18,-0.29 0.11,0 0.19,0.05 0.19,0.3l0 0.04c0,0.22 -0.07,0.29 -0.18,0.29zm-0 0.25c0.31,0 0.55,-0.18 0.55,-0.55l0 -0.03c0,-0.35 -0.19,-0.54 -0.55,-0.54 -0.31,0 -0.55,0.18 -0.55,0.55l0 0.03c0,0.35 0.19,0.54 0.55,0.54zm0.76 -0.02l0.36 0 0 -0.79c0.04,-0.02 0.11,-0.04 0.17,-0.04 0.1,0 0.14,0.03 0.14,0.12l0 0.7 0.36 0 0 -0.8c0,-0.21 -0.12,-0.3 -0.32,-0.3 -0.14,0 -0.25,0.04 -0.34,0.11l-0.01 0 0 -0.09 -0.34 0 0 1.08zm1.51 0.84c0.03,0 0.05,-0.01 0.07,-0.04 0.01,-0.02 0.02,-0.06 0.02,-0.1 0,-0.04 -0.01,-0.07 -0.02,-0.1 -0.01,-0.02 -0.04,-0.04 -0.07,-0.04 -0.03,0 -0.05,0.01 -0.07,0.04 -0.01,0.02 -0.02,0.06 -0.02,0.1 0,0.04 0.01,0.07 0.02,0.1 0.01,0.02 0.04,0.04 0.07,0.04zm0.4 0.28l0 -0.65 0.12 0 0.01 0.05 0 0c0.02,-0.02 0.04,-0.03 0.06,-0.04 0.02,-0.01 0.05,-0.02 0.07,-0.02 0.06,0 0.1,0.02 0.14,0.07 0.03,0.04 0.05,0.1 0.05,0.18 0,0.05 -0.01,0.1 -0.03,0.14 -0.02,0.04 -0.04,0.07 -0.07,0.09 -0.03,0.02 -0.06,0.03 -0.1,0.03 -0.02,0 -0.04,-0 -0.06,-0.01 -0.02,-0.01 -0.04,-0.02 -0.05,-0.04l0 0.08 0 0.14 -0.14 0zm0.22 -0.28c0.02,0 0.05,-0.01 0.06,-0.03 0.02,-0.02 0.03,-0.06 0.03,-0.11 0,-0.09 -0.03,-0.13 -0.08,-0.13 -0.03,0 -0.05,0.01 -0.08,0.04l0 0.2c0.01,0.01 0.03,0.02 0.04,0.02 0.01,0 0.03,0.01 0.04,0.01zm0.81 0.12c-0.05,0 -0.09,-0.01 -0.12,-0.03 -0.04,-0.02 -0.07,-0.05 -0.09,-0.09 -0.02,-0.04 -0.03,-0.08 -0.03,-0.13 0,-0.05 0.01,-0.1 0.03,-0.13 0.02,-0.04 0.05,-0.07 0.08,-0.09 0.03,-0.02 0.07,-0.03 0.11,-0.03 0.05,0 0.08,0.01 0.11,0.03 0.03,0.02 0.05,0.05 0.07,0.08 0.02,0.03 0.02,0.07 0.02,0.12 0,0.01 -0,0.02 -0,0.04 -0,0.01 -0,0.02 -0,0.03l-0.29 0c0.01,0.03 0.02,0.06 0.04,0.08 0.02,0.02 0.05,0.02 0.08,0.02 0.03,0 0.07,-0.01 0.1,-0.03l0.05 0.09c-0.02,0.02 -0.05,0.03 -0.08,0.04 -0.03,0.01 -0.06,0.01 -0.09,0.01zm-0.11 -0.3l0.17 0c0,-0.03 -0.01,-0.05 -0.02,-0.06 -0.01,-0.02 -0.03,-0.03 -0.06,-0.03 -0.02,0 -0.04,0.01 -0.06,0.02 -0.02,0.02 -0.03,0.04 -0.03,0.07zm0.59 0.3c-0.05,0 -0.08,-0.01 -0.1,-0.04 -0.02,-0.03 -0.03,-0.07 -0.03,-0.12l0 -0.53 0.14 0 0 0.53c0,0.01 0,0.02 0.01,0.03 0.01,0.01 0.01,0.01 0.02,0.01 0,0 0.01,-0 0.01,-0 0,-0 0.01,-0 0.01,-0l0.02 0.1c-0.01,0 -0.02,0.01 -0.03,0.01 -0.01,0 -0.03,0 -0.04,0zm0.22 -0.01l0 -0.67 0.14 0 0 0.39 0 0 0.15 -0.19 0.15 0 -0.17 0.2 0.18 0.28 -0.15 0 -0.11 -0.19 -0.06 0.07 0 0.12 -0.14 0zm0.98 0.01c-0.06,0 -0.1,-0.02 -0.13,-0.05 -0.03,-0.03 -0.04,-0.08 -0.04,-0.13l0 -0.19 -0.07 0 0 -0.1 0.07 -0.01 0.02 -0.13 0.12 0 0 0.13 0.11 0 0 0.11 -0.11 0 0 0.19c0,0.03 0.01,0.05 0.02,0.06 0.01,0.01 0.03,0.02 0.04,0.02 0.01,0 0.02,-0 0.02,-0 0.01,-0 0.02,-0 0.02,-0.01l0.02 0.1c-0.01,0 -0.03,0.01 -0.04,0.01 -0.02,0 -0.04,0.01 -0.06,0.01zm0.31 0.17c-0.01,0 -0.03,-0 -0.04,-0 -0.01,-0 -0.02,-0 -0.03,-0.01l0.02 -0.11c0,0 0.01,0 0.02,0 0.01,0 0.01,0 0.02,0 0.02,0 0.04,-0.01 0.05,-0.02 0.01,-0.01 0.02,-0.03 0.03,-0.05l0.01 -0.02 -0.18 -0.46 0.14 0 0.07 0.2c0.01,0.02 0.01,0.04 0.02,0.07 0.01,0.02 0.01,0.05 0.02,0.07l0 0c0.01,-0.02 0.01,-0.05 0.02,-0.07 0.01,-0.02 0.01,-0.05 0.02,-0.07l0.06 -0.2 0.14 0 -0.17 0.48c-0.01,0.04 -0.03,0.07 -0.05,0.1 -0.02,0.03 -0.04,0.05 -0.06,0.06 -0.03,0.01 -0.06,0.02 -0.09,0.02zm0.52 -0.01l0 -0.65 0.12 0 0.01 0.05 0 0c0.02,-0.02 0.04,-0.03 0.06,-0.04 0.02,-0.01 0.05,-0.02 0.07,-0.02 0.06,0 0.1,0.02 0.14,0.07 0.03,0.04 0.05,0.1 0.05,0.18 0,0.05 -0.01,0.1 -0.03,0.14 -0.02,0.04 -0.04,0.07 -0.07,0.09 -0.03,0.02 -0.06,0.03 -0.1,0.03 -0.02,0 -0.04,-0 -0.06,-0.01 -0.02,-0.01 -0.04,-0.02 -0.05,-0.04l0 0.08 0 0.14 -0.14 0zm0.22 -0.28c0.02,0 0.05,-0.01 0.06,-0.03 0.02,-0.02 0.03,-0.06 0.03,-0.11 0,-0.09 -0.03,-0.13 -0.08,-0.13 -0.03,0 -0.05,0.01 -0.08,0.04l0 0.2c0.01,0.01 0.03,0.02 0.04,0.02 0.01,0 0.03,0.01 0.04,0.01zm0.62 0.12c-0.05,0 -0.09,-0.01 -0.12,-0.03 -0.04,-0.02 -0.07,-0.05 -0.09,-0.09 -0.02,-0.04 -0.03,-0.08 -0.03,-0.13 0,-0.05 0.01,-0.1 0.03,-0.13 0.02,-0.04 0.05,-0.07 0.08,-0.09 0.03,-0.02 0.07,-0.03 0.11,-0.03 0.05,0 0.08,0.01 0.11,0.03 0.03,0.02 0.05,0.05 0.07,0.08 0.02,0.03 0.02,0.07 0.02,0.12 0,0.01 -0,0.02 -0,0.04 -0,0.01 -0,0.02 -0,0.03l-0.29 0c0.01,0.03 0.02,0.06 0.04,0.08 0.02,0.02 0.05,0.02 0.08,0.02 0.03,0 0.07,-0.01 0.1,-0.03l0.05 0.09c-0.02,0.02 -0.05,0.03 -0.08,0.04 -0.03,0.01 -0.06,0.01 -0.09,0.01zm-0.11 -0.3l0.17 0c0,-0.03 -0.01,-0.05 -0.02,-0.06 -0.01,-0.02 -0.03,-0.03 -0.06,-0.03 -0.02,0 -0.04,0.01 -0.06,0.02 -0.02,0.02 -0.03,0.04 -0.03,0.07zm0.83 0.3c-0.06,0 -0.11,-0.02 -0.14,-0.07 -0.04,-0.04 -0.05,-0.11 -0.05,-0.18 0,-0.05 0.01,-0.1 0.03,-0.13 0.02,-0.04 0.04,-0.07 0.07,-0.09 0.03,-0.02 0.06,-0.03 0.1,-0.03 0.03,0 0.05,0 0.07,0.01 0.02,0.01 0.03,0.02 0.05,0.04l-0.01 -0.07 0 -0.16 0.14 0 0 0.67 -0.12 0 -0.01 -0.05 -0 0c-0.02,0.02 -0.04,0.03 -0.06,0.04 -0.02,0.01 -0.05,0.02 -0.07,0.02zm0.04 -0.12c0.02,0 0.03,-0 0.04,-0.01 0.01,-0.01 0.02,-0.02 0.04,-0.03l0 -0.2c-0.01,-0.01 -0.03,-0.02 -0.04,-0.02 -0.01,-0 -0.03,-0.01 -0.04,-0.01 -0.02,0 -0.04,0.01 -0.06,0.03 -0.02,0.02 -0.03,0.05 -0.03,0.1 0,0.05 0.01,0.08 0.02,0.1 0.02,0.02 0.04,0.03 0.06,0.03zm0.54 0.12c-0.04,0 -0.08,-0.01 -0.1,-0.04 -0.03,-0.03 -0.04,-0.06 -0.04,-0.1 0,-0.05 0.02,-0.09 0.06,-0.12 0.04,-0.03 0.11,-0.05 0.2,-0.06 -0,-0.02 -0.01,-0.04 -0.02,-0.05 -0.01,-0.01 -0.03,-0.02 -0.06,-0.02 -0.02,0 -0.04,0 -0.06,0.01 -0.02,0.01 -0.04,0.02 -0.07,0.03l-0.05 -0.09c0.03,-0.02 0.06,-0.03 0.1,-0.05 0.03,-0.01 0.07,-0.02 0.11,-0.02 0.06,0 0.11,0.02 0.14,0.05 0.03,0.04 0.05,0.09 0.05,0.16l0 0.27 -0.12 0 -0.01 -0.05 -0 0c-0.02,0.02 -0.04,0.03 -0.06,0.04 -0.02,0.01 -0.05,0.02 -0.07,0.02zm0.05 -0.11c0.02,0 0.03,-0 0.04,-0.01 0.01,-0.01 0.02,-0.02 0.04,-0.03l0 -0.08c-0.05,0.01 -0.08,0.02 -0.1,0.03 -0.02,0.01 -0.03,0.03 -0.03,0.05 0,0.02 0,0.03 0.01,0.03 0.01,0.01 0.02,0.01 0.04,0.01zm0.41 0.1l0 -0.67 0.14 0 0 0.39 0 0 0.15 -0.19 0.15 0 -0.17 0.2 0.18 0.28 -0.15 0 -0.11 -0.19 -0.06 0.07 0 0.12 -0.14 0z"/>
  <path class="fil1" d="M0.92 3.59l0.85 0c0.01,0 0.02,-0.01 0.02,-0.02 0,-0.5 -0.31,-0.87 -0.87,-0.87 -0.01,0 -0.02,0.01 -0.02,0.02l0 0.85c0,0.01 0.01,0.02 0.02,0.02zm1.11 -3.59c-0,0.01 -0,0.01 -0,0.02 0,1.35 1.09,2.44 2.44,2.44 0.01,0 0.01,-0 0.02,-0l0 -2.4c0,-0.03 -0.03,-0.06 -0.06,-0.06l-2.4 0zm-0.21 2.69l0.85 0c0.01,0 0.02,-0.01 0.02,-0.02 0,-0.5 -0.31,-0.87 -0.87,-0.87 -0.01,0 -0.02,0.01 -0.02,0.02l0 0.85c0,0.01 0.01,0.02 0.02,0.02zm8.95 -0.18c0.22,0 0.43,-0.05 0.55,-0.1l0 -0.75 -0.61 0 0 0.28 0.22 0 0 0.24c-0.04,0.01 -0.1,0.02 -0.16,0.02 -0.27,0 -0.33,-0.17 -0.33,-0.45l0 -0.07c0,-0.26 0.09,-0.42 0.41,-0.42 0.19,0 0.31,0.04 0.4,0.07l0 -0.31c-0.08,-0.04 -0.25,-0.08 -0.46,-0.08 -0.42,0 -0.79,0.18 -0.79,0.76l0 0.05c0,0.56 0.3,0.76 0.78,0.76zm1.28 -0.88c0.1,0 0.16,0.06 0.16,0.21l-0.33 0c0.01,-0.17 0.09,-0.21 0.17,-0.21zm0.04 0.89c0.2,0 0.33,-0.05 0.42,-0.1l0 -0.22c-0.08,0.03 -0.2,0.07 -0.32,0.07 -0.18,0 -0.28,-0.05 -0.3,-0.22l0.67 0 0 -0.09c0,-0.35 -0.14,-0.56 -0.5,-0.56 -0.32,0 -0.53,0.21 -0.53,0.54l0 0.03c0,0.36 0.19,0.55 0.57,0.55zm0.67 -0.02l0.36 0 0 -0.73c0.06,-0.03 0.14,-0.05 0.23,-0.05 0.03,0 0.07,0.01 0.09,0.01l0 -0.31c-0.01,-0 -0.03,-0.01 -0.06,-0.01 -0.11,0 -0.21,0.06 -0.27,0.14l-0.01 0 0 -0.13 -0.34 0 0 1.08zm0.89 -1.2l0.36 0 0 -0.27 -0.36 0 0 0.27zm0 1.2l0.36 0 0 -1.08 -0.36 0 0 1.08zm1.12 0.02c0.16,0 0.26,-0.04 0.32,-0.07l0 -0.24c-0.05,0.02 -0.13,0.05 -0.24,0.05 -0.18,0 -0.26,-0.09 -0.26,-0.29l0 -0.03c0,-0.18 0.1,-0.26 0.25,-0.26 0.11,0 0.17,0.02 0.24,0.04l0 -0.26c-0.07,-0.04 -0.15,-0.05 -0.3,-0.05 -0.34,0 -0.56,0.19 -0.56,0.55l0 0.03c0,0.35 0.19,0.54 0.55,0.54zm0.54 -0.02l0.36 0 0 -0.79c0.04,-0.02 0.11,-0.04 0.17,-0.04 0.1,0 0.14,0.03 0.14,0.12l0 0.7 0.36 0 0 -0.8c0,-0.21 -0.12,-0.3 -0.32,-0.3 -0.14,0 -0.25,0.04 -0.33,0.1l-0.01 0 0 -0.51 -0.36 0 0 1.5zm1.68 0.02c0.12,0 0.2,-0.02 0.24,-0.04l0 -0.23c-0.03,0.01 -0.07,0.01 -0.11,0.01 -0.09,0 -0.12,-0.02 -0.12,-0.1l0 -0.49 0.22 0 0 -0.25 -0.22 0 0 -0.26 -0.36 0 0 0.26 -0.13 0 0 0.25 0.13 0 0 0.54c0,0.24 0.13,0.31 0.34,0.31z"/>
 </g>
</svg>
