<?xml version="1.0" encoding="UTF-8"?>
<!DOCTYPE svg PUBLIC "-//W3C//DTD SVG 1.1//EN" "http://www.w3.org/Graphics/SVG/1.1/DTD/svg11.dtd">
<!-- Creator: CorelDRAW -->
<svg xmlns="http://www.w3.org/2000/svg" xml:space="preserve" width="62.9902mm" height="22.7349mm" version="1.1" style="shape-rendering:geometricPrecision; text-rendering:geometricPrecision; image-rendering:optimizeQuality; fill-rule:evenodd; clip-rule:evenodd"
viewBox="0 0 66.22 23.9"
 xmlns:xlink="http://www.w3.org/1999/xlink"
 xmlns:xodm="http://www.corel.com/coreldraw/odm/2003">
 <defs>
  <style type="text/css">
   <![CDATA[
    .fil0 {fill:#46B592;fill-rule:nonzero}
    .fil1 {fill:#FFEB7A;fill-rule:nonzero}
   ]]>
  </style>
 </defs>
 <g id="Layer_x0020_1">
  <metadata id="CorelCorpID_0Corel-Layer"/>
  <path class="fil0" d="M25.51 19.5c-0.51,0.63 -1.07,1.11 -1.68,1.41 -0.61,0.3 -1.35,0.46 -2.22,0.46 -0.56,0 -1.1,-0.11 -1.58,-0.33 -0.49,-0.22 -0.92,-0.52 -1.27,-0.89 -0.36,-0.38 -0.66,-0.83 -0.89,-1.33 -0.2,-0.44 -0.32,-0.91 -0.36,-1.4l-2.12 2.2c0.36,0.87 0.84,1.63 1.44,2.26 0.61,0.64 1.34,1.15 2.16,1.5 0.82,0.35 1.71,0.53 2.63,0.53 1.23,0 2.34,-0.23 3.31,-0.68 0.96,-0.45 1.92,-1.22 2.83,-2.29l0.15 -0.18 -2.29 -1.4 -0.11 0.14z"/>
  <path class="fil0" d="M27.86 13.67c-0.36,-0.89 -0.85,-1.66 -1.46,-2.3 -0.52,-0.54 -1.12,-0.99 -1.79,-1.32l-1.9 1.98c0.16,0.04 0.31,0.09 0.46,0.16 0.45,0.2 0.84,0.46 1.16,0.77 0.32,0.31 0.59,0.67 0.79,1.05 0.16,0.31 0.29,0.63 0.39,0.95l-5.61 0 -2.38 2.47 10.88 0 0 -0.79c0,-1.07 -0.18,-2.07 -0.54,-2.96z"/>
  <path class="fil0" d="M11.2 11.21c-0.58,-0.59 -1.22,-1.04 -1.91,-1.34 -0.82,-0.35 -1.71,-0.53 -2.65,-0.53 -0.92,0 -1.8,0.18 -2.61,0.53 -0.8,0.35 -1.51,0.85 -2.11,1.5 -0.6,0.64 -1.07,1.42 -1.41,2.3 -0.34,0.89 -0.51,1.88 -0.51,2.95 0,1.07 0.17,2.07 0.51,2.95 0.34,0.89 0.81,1.66 1.41,2.3 0.6,0.64 1.31,1.15 2.11,1.5 0.8,0.35 1.68,0.53 2.61,0.53 0.95,0 1.84,-0.18 2.65,-0.53 0.7,-0.3 1.35,-0.76 1.94,-1.37l0 1.41 2.67 0 0 -23.41 -2.67 0 -0.03 11.21zm-1.11 1.95c0.76,0.86 1.15,2.02 1.15,3.46 0,1.44 -0.39,2.6 -1.15,3.46 -0.75,0.85 -1.87,1.28 -3.3,1.28 -0.52,0 -1.03,-0.12 -1.52,-0.36 -0.49,-0.24 -0.94,-0.57 -1.32,-0.99 -0.38,-0.42 -0.69,-0.93 -0.93,-1.51 -0.23,-0.58 -0.35,-1.21 -0.35,-1.89 0,-0.72 0.12,-1.38 0.35,-1.95 0.23,-0.58 0.54,-1.08 0.92,-1.49 0.38,-0.41 0.82,-0.73 1.32,-0.96 0.49,-0.23 1.01,-0.34 1.53,-0.34 1.44,0 2.55,0.43 3.3,1.28z"/>
  <path class="fil0" d="M36.91 9.34c-0.95,0 -1.82,0.18 -2.58,0.53 -0.63,0.29 -1.17,0.72 -1.62,1.29l0 -1.33 -2.67 0 0 13.57 2.67 0 0 -7.38c0,-1.45 0.36,-2.52 1.07,-3.17 0.71,-0.65 1.64,-0.99 2.76,-0.99 0.96,0 1.61,0.27 2,0.84 0.4,0.58 0.6,1.36 0.6,2.33l0 8.37 2.67 0 0 -8.6c0,-1.69 -0.42,-3.03 -1.25,-4 -0.84,-0.97 -2.06,-1.47 -3.64,-1.47z"/>
  <polygon class="fil0" points="43.44,23.41 46.11,23.41 46.11,9.84 43.44,9.84 "/>
  <path class="fil0" d="M65.93 12.36c-0.19,-0.58 -0.48,-1.1 -0.86,-1.55 -0.38,-0.45 -0.85,-0.81 -1.39,-1.07 -0.55,-0.26 -1.2,-0.4 -1.92,-0.4 -1.02,0 -1.88,0.23 -2.56,0.69 -0.58,0.39 -1.13,0.88 -1.65,1.45 -0.33,-0.72 -0.78,-1.26 -1.33,-1.59 -0.61,-0.37 -1.41,-0.56 -2.37,-0.56 -0.56,0 -1.2,0.18 -1.92,0.53 -0.58,0.29 -1.09,0.71 -1.52,1.27l0 -1.31 -2.67 0 0 13.57 2.67 0 0 -8.1c0,-0.43 0.08,-0.85 0.25,-1.24 0.17,-0.39 0.39,-0.75 0.66,-1.05 0.27,-0.3 0.59,-0.54 0.94,-0.71 0.35,-0.17 0.72,-0.26 1.11,-0.26 0.72,0 1.27,0.24 1.67,0.72 0.41,0.49 0.62,1.18 0.62,2.05l0 8.6 2.67 0 0 -8.27c0,-0.43 0.08,-0.84 0.25,-1.2 0.17,-0.37 0.39,-0.7 0.67,-0.98 0.28,-0.28 0.6,-0.5 0.96,-0.67 0.35,-0.16 0.71,-0.24 1.08,-0.24 0.68,0 1.21,0.24 1.64,0.72 0.43,0.49 0.65,1.18 0.65,2.04l0 8.6 2.67 0 0 -9.19c0,-0.65 -0.1,-1.28 -0.29,-1.86z"/>
  <path class="fil1" d="M44.77 3.25c-1.03,0 -1.86,0.84 -1.86,1.86 0,1.03 0.84,1.86 1.86,1.86 1.03,0 1.86,-0.84 1.86,-1.86 0,-1.03 -0.84,-1.86 -1.86,-1.86z"/>
 </g>
</svg>
