<?xml version="1.0" encoding="UTF-8"?>
<!DOCTYPE svg PUBLIC "-//W3C//DTD SVG 1.1//EN" "http://www.w3.org/Graphics/SVG/1.1/DTD/svg11.dtd">
<!-- Creator: CorelDRAW -->
<svg xmlns="http://www.w3.org/2000/svg" xml:space="preserve" width="111.393mm" height="14.8522mm" version="1.1" style="shape-rendering:geometricPrecision; text-rendering:geometricPrecision; image-rendering:optimizeQuality; fill-rule:evenodd; clip-rule:evenodd"
viewBox="0 0 194.23 25.9"
 xmlns:xlink="http://www.w3.org/1999/xlink"
 xmlns:xodm="http://www.corel.com/coreldraw/odm/2003">
 <defs>
  <style type="text/css">
   <![CDATA[
    .fil0 {fill:black;fill-rule:nonzero}
   ]]>
  </style>
 </defs>
 <g id="Layer_x0020_1">
  <metadata id="CorelCorpID_0Corel-Layer"/>
  <path class="fil0" d="M144.76 8.48l1.55 0c1.86,0 2.84,0.59 2.84,2.12 0,0.98 -1.06,2.14 -2.99,2.14l-1.39 0 0 -4.26zm0 6.15c0,0 0.2,0 0.34,0 0.74,-0.01 1.44,-0.06 1.85,-0.11l2.83 4.89 2.53 0 -3.12 -5.41c0.79,-0.46 2.15,-1.8 2.15,-3.53 0,-3.66 -3.09,-4 -5.49,-4l-3.27 0 0 12.94 2.19 0 0 -4.79z"/>
  <path class="fil0" d="M186.69 8.48l1.55 0c1.86,0 2.84,0.59 2.84,2.12 0,0.98 -1.06,2.14 -2.99,2.14l-1.39 0 0 -4.26zm0 6.15c0,0 0.2,0 0.34,0 0.74,-0.01 1.44,-0.06 1.85,-0.11l2.82 4.89 2.53 0 -3.12 -5.41c0.79,-0.46 2.15,-1.8 2.15,-3.53 0,-3.66 -3.09,-4 -5.49,-4l-3.27 0 0 12.94 2.19 0 0 -4.79z"/>
  <path class="fil0" d="M118.96 17.44c1.44,0 2.15,-0.7 2.15,-1.9 0,-1.32 -0.71,-2 -2.22,-2l-2.77 0 0 3.9 2.84 0zm-0.89 -5.78c1.44,0 2.33,-0.39 2.33,-1.59 0,-1.32 -0.87,-1.61 -2.07,-1.61l-2.21 0 0 3.2 1.95 0zm-4.14 7.76l0 -12.94 3.98 0c2.62,0 4.79,0.84 4.79,3.13 0,1.77 -1.15,2.45 -1.92,2.79 1.25,0.31 2.65,1.15 2.65,3.37 0,2.24 -1.77,3.66 -4.87,3.66l-4.63 0z"/>
  <polygon class="fil0" points="71.22,19.42 71.22,14.39 66.65,6.48 69.18,6.48 72.35,11.97 75.45,6.48 77.97,6.48 73.41,14.39 73.41,19.42 "/>
  <polygon class="fil0" points="49.97,19.42 48.95,12.61 44.72,19.92 40.5,12.61 39.47,19.42 37.13,19.42 39.27,6.12 44.71,15.53 50.16,6.12 52.31,19.42 "/>
  <path class="fil0" d="M95.71 8.48l1.55 0c1.86,0 2.84,0.59 2.84,2.12 0,0.98 -1.06,2.14 -2.99,2.14l-1.39 0 0 -4.26zm0 6.15c0,0 0.2,0 0.34,0 0.74,-0.01 1.44,-0.06 1.85,-0.11l2.83 4.89 2.53 0 -3.12 -5.41c0.79,-0.46 2.15,-1.8 2.15,-3.53 0,-3.66 -3.09,-4 -5.49,-4l-3.27 0 0 12.94 2.19 0 0 -4.79z"/>
  <path class="fil0" d="M162.85 14.48l0 -1.86 5.61 0c-0.05,5.04 -3.15,7.11 -6.34,7.11 -3.92,0 -6.99,-2.98 -6.99,-6.72 0,-3.78 3.01,-6.82 6.96,-6.82 3.13,0 4.87,1.62 4.98,1.73l-1.11 1.64c-0.09,-0.12 -1.45,-1.39 -3.83,-1.39 -2.82,0 -4.67,2.12 -4.67,4.86 0,2.29 1.79,4.72 4.68,4.72 2.2,0 3.88,-1.39 4.03,-3.27l-3.32 0z"/>
  <polygon class="fil0" points="56.23,19.42 56.23,6.48 63.9,6.48 63.9,8.47 58.43,8.47 58.43,11.55 62.81,11.55 62.81,13.54 58.43,13.54 58.43,17.43 64.47,17.43 64.47,19.42 "/>
  <path class="fil0" d="M135.63 6.48l0 6.99c0,3.05 -0.51,4.27 -2.8,4.27 -2.29,0 -3.29,-1.22 -3.29,-4.27l0 -6.99 -2.19 0 0 8.19c0,3.37 2.14,5.06 5.48,5.06 3.34,0 4.98,-1.69 4.98,-5.06l0 -8.19 -2.19 0z"/>
  <polygon class="fil0" points="81.23,19.42 81.23,6.48 88.9,6.48 88.9,8.47 83.42,8.47 83.42,11.55 87.8,11.55 87.8,13.54 83.42,13.54 83.42,17.43 89.46,17.43 89.46,19.42 "/>
  <polygon class="fil0" points="172.35,19.42 172.35,6.48 180.02,6.48 180.02,8.47 174.55,8.47 174.55,11.55 178.93,11.55 178.93,13.54 174.55,13.54 174.55,17.43 180.59,17.43 180.59,19.42 "/>
  <polygon class="fil0" points="9.96,23.52 2.07,21.41 5.4,15.64 4.61,14.27 -0,22.26 10.92,25.19 "/>
  <path class="fil0" d="M24.4 21.41l-9.75 2.61 4.84 -8.38 -0.79 -1.36 -5.47 9.47 -6.26 -10.83 5.47 -9.47 -0.2 -0.35 -1.39 0.37 -4.66 8.08 -4.12 -7.14 10.84 -2.9 11.49 19.91zm0 -17l-4.12 7.14 -5.63 -9.75 9.75 2.61zm2.07 -0.86l-13.24 -3.55 -13.23 3.55 12.91 22.35 13.56 -3.63 -5.4 -9.36 5.4 -9.36z"/>
 </g>
</svg>
