<?xml version="1.0" encoding="UTF-8"?>
<!DOCTYPE svg PUBLIC "-//W3C//DTD SVG 1.1//EN" "http://www.w3.org/Graphics/SVG/1.1/DTD/svg11.dtd">
<!-- Creator: CorelDRAW -->
<svg xmlns="http://www.w3.org/2000/svg" xml:space="preserve" width="727.855mm" height="198.436mm" version="1.1" style="shape-rendering:geometricPrecision; text-rendering:geometricPrecision; image-rendering:optimizeQuality; fill-rule:evenodd; clip-rule:evenodd"
viewBox="0 0 1996.57 544.33"
 xmlns:xlink="http://www.w3.org/1999/xlink"
 xmlns:xodm="http://www.corel.com/coreldraw/odm/2003">
 <defs>
  <style type="text/css">
   <![CDATA[
    .fil0 {fill:#727272}
    .fil1 {fill:#727272;fill-rule:nonzero}
   ]]>
  </style>
 </defs>
 <g id="Layer_x0020_1">
  <metadata id="CorelCorpID_0Corel-Layer"/>
  <g id="_105553293252576">
   <path class="fil0" d="M7.42 398.67c-29.03,-72.32 29.71,-163.82 131.08,-204.54 101.38,-40.59 207.11,-15.02 236.03,57.32 29.05,72.31 -29.71,163.82 -131.07,204.52 -101.37,40.59 -207.11,14.92 -236.05,-57.3z"/>
   <path class="fil0" d="M413.23 255.25c-53.94,-22.09 -75.02,-95.76 -46.87,-164.5 28.03,-68.74 94.64,-106.53 148.69,-84.44 54.04,22.1 75.02,95.65 46.87,164.39 -28.04,68.84 -94.64,106.64 -148.69,84.55z"/>
   <path class="fil0" d="M253.78 529.3c-16.81,-26.35 17.72,-78.38 77.03,-116.18 59.32,-37.77 120.99,-46.97 137.81,-20.62 16.71,26.46 -17.72,78.38 -77.03,116.17 -59.32,37.78 -120.99,46.98 -137.81,20.63z"/>
   <g>
    <path class="fil1" d="M515.55 261.47l-0.54 0c-11.32,0.04 -23.4,1.4 -35.74,4.16 -51.47,11.54 -87.91,43.74 -81.63,71.76 6.39,28.15 53.15,41.5 104.49,29.96 51.38,-11.68 87.93,-43.74 81.54,-71.9 -4.75,-21.18 -32.62,-33.99 -68.12,-33.99z"/>
   </g>
   <path class="fil1" d="M711.03 323.18l-80.71 0c-5.26,0 -7.8,1.82 -7.8,5.35l0 6.09c0,3.54 2.54,5.25 7.8,5.25l61.94 0c14.06,0 21.13,5.63 21.13,16.78l0 9.25c0,11.25 -7.07,16.97 -21.13,16.97l-80.81 0 0 -12.88 80.81 0c5.07,0 7.71,-1.82 7.71,-5.45l0 -6.25c0,-3.63 -2.63,-5.54 -7.71,-5.54l-61.94 0c-14.24,0 -21.31,-5.07 -21.31,-15.15l0 -10.42c0,-11.25 7.07,-16.87 21.31,-16.87l80.71 0 0 12.87z"/>
   <path class="fil1" d="M765.79 323.18c-12.97,0 -19.86,2.18 -19.86,10.43l0 19.5c0,10.16 0.55,16.87 13.88,16.87l50.07 0c12.78,0 19.85,-1.91 19.85,-10.25l0 -19.59c0,-10.25 -0.63,-16.96 -13.87,-16.96l-50.07 0zm77.45 36.55c0,15.42 -9.07,23.13 -27.39,23.13l-56.05 0c-18.33,0 -27.39,-7.71 -27.39,-23.13l0 -26.12c0,-15.51 9.07,-23.3 27.39,-23.3l56.05 0c18.32,0 27.39,7.79 27.39,23.3l0 26.12z"/>
   <path class="fil1" d="M966.11 382.86l-14.96 0c-10.25,0 -16.51,-3.27 -22.68,-10.25l-37.81 -42.9c-3.46,-3.8 -7.9,-6.53 -13.25,-6.53l-1.72 0 0 59.68 -13.15 0 0 -72.56 14.88 0c9.88,0 15.87,2.99 21.95,9.88l38.35 43.27c3.45,3.89 7.9,6.53 13.43,6.53l1.72 0 0 -59.68 13.25 0 0 72.56z"/>
   <path class="fil1" d="M1093.06 382.86l-14.96 0c-10.25,0 -16.51,-3.27 -22.68,-10.25l-37.81 -42.9c-3.46,-3.8 -7.9,-6.53 -13.25,-6.53l-1.72 0 0 59.68 -13.15 0 0 -72.56 14.88 0c9.88,0 15.87,2.99 21.95,9.88l38.36 43.27c3.44,3.89 7.89,6.53 13.42,6.53l1.72 0 0 -59.68 13.25 0 0 72.56z"/>
   <path class="fil1" d="M1216.56 323.18l-78.72 0c-5.53,0 -8.44,2.45 -8.44,6.99l0 9.69 86.79 0 0 12.88 -86.79 0 0 10.26c0,4.72 2.81,6.98 8.44,6.98l78.99 0 0 12.88 -78.99 0c-14.69,0 -21.95,-5.9 -21.95,-17.87l0 -36.83c0,-11.88 7.26,-17.86 21.95,-17.86l78.72 0 0 12.87z"/>
   <path class="fil1" d="M1342.6 382.86l-14.96 0c-10.25,0 -16.51,-3.27 -22.67,-10.25l-37.82 -42.9c-3.46,-3.8 -7.9,-6.53 -13.25,-6.53l-1.72 0 0 59.68 -13.15 0 0 -72.56 14.87 0c9.88,0 15.87,2.99 21.95,9.88l38.36 43.27c3.44,3.89 7.89,6.53 13.42,6.53l1.72 0 0 -59.68 13.25 0 0 72.56z"/>
   <path class="fil1" d="M1469.37 319.19l-81.44 0c-7.71,0 -11.43,2.72 -11.43,8.07l0 6.43c0,5.36 3.72,7.99 11.43,7.99l63.3 0c13.7,0 20.59,5.43 20.59,16.22l0 8.53c0,10.89 -6.89,16.42 -20.59,16.42l-81.43 0 0 -8.89 81.43 0c7.53,0 11.34,-2.81 11.34,-8.43l0 -6.53c0,-5.63 -3.81,-8.44 -11.34,-8.44l-63.3 0c-13.88,0 -20.77,-4.99 -20.77,-14.88l0 -9.34c0,-10.71 6.89,-16.06 20.77,-16.06l81.44 0 0 8.89z"/>
   <polygon class="fil1" points="1589.06,319.19 1543.35,319.19 1543.35,382.86 1534.1,382.86 1534.1,319.19 1487.39,319.19 1487.39,310.3 1589.06,310.3 "/>
   <path class="fil1" d="M1614.26 319.19l0 26.67 78.54 0c7.98,0 11.97,-3.55 11.97,-10.44l0 -6.16c0,-6.71 -4.08,-10.07 -12.24,-10.07l-78.27 0zm99.4 15.6c0,12.33 -7.07,18.6 -21.13,18.6l-7.17 0 31.02 29.48 -12.97 0 -30.11 -29.03 -59.04 0 0 29.03 -9.34 0 0 -72.56 87.61 0c14.06,0 21.13,5.99 21.13,17.96l0 6.53z"/>
   <path class="fil1" d="M1766.23 319.19c-14.51,0 -22.22,3.99 -22.22,14.51l0 21.5c0,11.88 3.35,18.77 18.23,18.77l52.06 0c14.42,0 22.13,-3.89 22.13,-14.33l0 -21.58c0,-11.97 -3.36,-18.87 -18.15,-18.87l-52.05 0zm79.53 40.45c0,15.52 -9.15,23.22 -27.48,23.22l-56.04 0c-18.41,0 -27.57,-7.71 -27.57,-23.22l0 -25.94c0,-15.6 9.16,-23.4 27.57,-23.4l56.04 0c18.33,0 27.48,7.8 27.48,23.4l0 25.94z"/>
   <path class="fil1" d="M1996.57 382.86l-8.89 0 0 -63.67 -3.44 0c-7.54,0 -12.16,2.9 -15.33,8.97l-28.75 54.7 -16.59 0 -28.75 -54.7c-3.17,-6.07 -7.89,-8.97 -15.42,-8.97l-3.44 0 0 63.67 -8.89 0 0 -72.56 12.33 0c12.42,0 18.78,3.63 24.21,14.06l25.85 49.6 4.9 0 25.76 -49.51c5.44,-10.52 12.06,-14.16 24.03,-14.16l12.42 0 0 72.56z"/>
   <path class="fil1" d="M713.52 427.1l-81.38 0c-8.61,0 -13.2,3.74 -13.2,10.77l0 13.76 94.02 0 0 9.18 -94.02 0 0 32.02 -9.64 0 0 -56.37c0,-12.37 7.58,-18.54 22.84,-18.54l81.38 0 0 9.17z"/>
   <path class="fil1" d="M782.68 431.97c-2.25,-3.47 -4.31,-4.87 -8.9,-4.87l-3.56 0c-4.68,0 -6.83,1.58 -8.89,4.87l-21.45 33.33 64.24 0 -21.44 -33.33zm49.44 60.87l-11.14 0 -11.99 -18.82 -73.88 0 -11.89 18.82 -11.14 0 42.88 -68.45c2.81,-4.49 4.78,-6.45 12.27,-6.45l9.46 0c6.74,0 9.73,1.96 12.55,6.45l42.88 68.45z"/>
   <path class="fil1" d="M855.94 458.84l0 24.82 73.97 0c10.87,0 17.61,-1.68 17.61,-10.58l0 -8.06c0,-3.18 -2.15,-6.18 -6.27,-6.18l-85.31 0zm0 -31.74l0 23.41 85.21 0c3.75,0 5.9,-3.65 5.9,-6.92l0 -4.59c0,-7.97 -3.47,-11.89 -12.64,-11.89l-78.47 0zm100.29 15.82c0,5.06 -2.81,9.74 -6.66,11.43 4.41,1.12 7.49,5.25 7.49,10.3l0 9.65c0,12.36 -7.58,18.54 -22.66,18.54l-88.11 0 0 -74.91 88.11 0c14.52,0 21.82,6.18 21.82,18.54l0 6.46z"/>
   <path class="fil1" d="M985.86 427.1l0 27.53 81.09 0c8.24,0 12.36,-3.66 12.36,-10.77l0 -6.37c0,-6.92 -4.22,-10.39 -12.65,-10.39l-80.81 0zm102.62 16.1c0,12.74 -7.3,19.2 -21.82,19.2l-7.4 0 32.02 30.43 -13.39 0 -31.09 -29.97 -60.95 0 0 29.97 -9.64 0 0 -74.91 90.45 0c14.51,0 21.82,6.17 21.82,18.54l0 6.74z"/>
   <polygon class="fil1" points="1122.62,492.84 1112.98,492.84 1112.98,417.92 1122.62,417.92 "/>
   <polygon class="fil1" points="1214.93,452.66 1257.44,492.84 1244.05,492.84 1207.16,457.81 1158.84,457.81 1158.84,492.84 1149.19,492.84 1149.19,417.93 1158.84,417.93 1158.84,448.92 1206.6,448.92 1241.24,417.93 1254.64,417.93 "/>
  </g>
 </g>
</svg>
