<?xml version="1.0" encoding="UTF-8"?>
<!DOCTYPE svg PUBLIC "-//W3C//DTD SVG 1.1//EN" "http://www.w3.org/Graphics/SVG/1.1/DTD/svg11.dtd">
<!-- Creator: CorelDRAW -->
<svg xmlns="http://www.w3.org/2000/svg" xml:space="preserve" width="68.8438mm" height="19.2142mm" version="1.1" style="shape-rendering:geometricPrecision; text-rendering:geometricPrecision; image-rendering:optimizeQuality; fill-rule:evenodd; clip-rule:evenodd"
viewBox="0 0 218.23 60.91"
 xmlns:xlink="http://www.w3.org/1999/xlink"
 xmlns:xodm="http://www.corel.com/coreldraw/odm/2003">
 <defs>
  <style type="text/css">
   <![CDATA[
    .fil0 {fill:#434343}
   ]]>
  </style>
 </defs>
 <g id="Layer_x0020_1">
  <metadata id="CorelCorpID_0Corel-Layer"/>
  <g id="_105553438489792">
   <path class="fil0" d="M1.41 16.81l12.4 0.06c0.22,-0 0.62,0 0.83,-0.03l0.36 -0.08c1.1,-0.3 -0.01,-4.4 5.27,-6.31 3.01,-1.09 6.76,-0.91 9.31,0.43 2.94,1.55 3.13,5.17 0.33,7.12 -4.9,3.42 -22.83,3.25 -28.16,17.16 -0.78,2.05 -2.02,7.02 -1.69,9.5l43.32 0.03c3.52,-0 2.52,0.79 2.62,-7.75 0.03,-2.71 0.42,-1.94 -5.98,-2.02 -8.13,-0.1 -17.33,0.17 -25.23,-0.03 0.76,-3.25 13.24,-5.85 15.46,-6.41 5.52,-1.39 11.41,-3.22 13.97,-7.46 2.92,-4.85 2.09,-12.11 -2.67,-16.22 -7.43,-6.42 -26.39,-6.01 -33.3,-1.1 -1.77,1.26 -3.78,3.15 -4.76,5.07 -1,1.96 -2.13,5.43 -2.07,8.04z"/>
   <path class="fil0" d="M175.78 28.57c0.52,4.27 -0.74,6.29 -3.76,7.8 -2.43,1.21 -7.38,1.73 -9.46,-0.09 -0.93,-0.81 -1.57,-2.87 -0.83,-4.33 0.72,-1.43 2.41,-1.53 4.06,-1.79 1.49,-0.24 3.47,-0.63 4.9,-0.74 2.38,-0.18 4,-0.77 5.08,-0.85zm-24.09 -7.24l10.61 0.08c0.84,-1.69 0.81,-2.57 2.77,-3.35 1.83,-0.73 8.57,-1.27 10.26,1.46 0.42,0.68 0.48,1.73 0.16,2.5 -0.33,0.8 -1.06,1.05 -1.92,1.23 -3.15,0.66 -13.2,0.5 -15.09,1.29 -1.75,0.72 -3.95,0.77 -6.02,2.75 -3.89,3.73 -7.57,19.07 14.91,17.18 1.82,-0.15 3.33,-0.64 4.97,-1.3 2.6,-1.04 2.79,-2.17 3.85,-2.45 0.39,0.99 0.56,2.69 0.95,3.84l10.39 0c-0.06,-1.75 -1.01,-2.74 -0.95,-8.67l0.02 -13.42c-0,-9.14 -4.9,-9.92 -10.11,-11.41 -1.96,-0.56 -4.47,-0.49 -6.81,-0.51 -4.56,-0.05 -9.06,0.3 -12.48,1.97 -2.79,1.36 -5.63,5.14 -5.49,8.81z"/>
   <path class="fil0" d="M63.12 33.6l-13.18 -0c-0.21,4.31 2.89,7.22 5.71,8.68 3.25,1.68 7.87,2.24 12.27,2.3 8.96,0.11 18.43,-0.88 19.94,-9.26 0.35,-1.97 -0.08,-4.32 -0.84,-5.92 -1.67,-3.52 -5.83,-4.53 -9.37,-5.25 -2.09,-0.43 -4.64,-0.42 -6.62,-0.8 -1.9,-0.37 -4.47,-0.26 -6.31,-0.84 -4.33,-1.35 -2.11,-6.02 5.19,-4.75 3.68,0.64 3.47,1.84 4.09,3.15 1.88,0.22 10.44,0.2 12.76,0.08 0.17,-3.81 -2.98,-6.91 -5.58,-8.19 -3.36,-1.65 -7.41,-2.2 -11.8,-2.26 -8.86,-0.13 -17.42,1.24 -18.46,9.65 -0.88,7.12 4.67,10.02 10.48,10.46 1.49,0.11 11.21,1.34 12.32,1.77 2.06,0.78 1.71,3.28 -0.27,4.22 -1.65,0.78 -7.11,0.84 -9.11,-0.72 -0.93,-0.72 -0.85,-1.35 -1.23,-2.3z"/>
   <path class="fil0" d="M108.56 19.03c2.43,-0.68 5.43,-0.12 7.07,1.03 3.52,2.47 3.78,9.1 2.13,12.63 -0.83,1.78 -2.6,3.03 -4.6,3.55 -2.34,0.62 -5.32,0.21 -6.86,-0.98 -1.97,-1.52 -2.25,-2.5 -2.93,-5.25 -0.56,-2.27 -0.16,-5.47 0.7,-7.25 0.97,-1.98 2.24,-3.12 4.49,-3.74zm-0.36 -8.34c-4.78,0.76 -8.87,1.11 -12.61,5.47 -3.02,3.53 -4.2,8.52 -3.55,14.09 1.29,11.13 9.77,15.07 21.82,14.27 4.96,-0.33 10.12,-2.45 12.47,-5.59 1.54,-2.05 2.23,-3.07 3.03,-5.95 0.63,-2.23 0.85,-5.82 0.42,-8.2 -0.97,-5.4 -2.27,-8.52 -6.71,-11.33 -3.28,-2.08 -9.77,-3.58 -14.87,-2.77z"/>
   <path class="fil0" d="M202.21 28.81c0.02,-2.76 2.23,-5.19 4.46,-6.25 1.4,-0.66 2.91,-0.8 4.73,-0.82 2.06,-0.02 3.64,0.35 5.22,0.44l1.18 0.12 -0.11 -11.15c-1.71,-0.15 -3.08,-0.34 -4.83,-0.19 -1.77,0.15 -2.79,0.64 -4.18,0.83 -1.62,0.32 -5.75,3.68 -5.98,5.03 -0.13,0.42 -0.02,0.52 -0.59,0.81 -1.37,0.69 0.92,-0.05 -0.36,0.09 -0.38,-1.31 -0.06,-5.3 -0.16,-7l-10.99 0.01c-0.18,3.18 -0.25,32.54 0.12,33.65l10.85 -0.02c0.31,-0.99 0.12,-9.62 0.11,-11.81 -0,-1.68 0.02,-2.73 0.34,-3.42 0.02,-0.05 0.07,-0.12 0.1,-0.16 0.02,-0.04 0.07,-0.11 0.1,-0.16z"/>
   <path class="fil0" d="M145.54 0l-11.46 0.04 -0.01 44.29c0.98,0.27 10.1,0.24 11.39,0.08l0.08 -44.41z"/>
   <path class="fil0" d="M145.54 0l-0.08 44.41c-1.29,0.15 -10.41,0.19 -11.39,-0.08l0.01 -44.29c-0.59,0.25 -0.31,-0.07 -0.39,1.01 -0.03,0.34 0.02,1.09 0.03,1.49 0.01,0.92 -0.04,1.81 -0.04,2.73l-0 28.32c-0,1.89 0.08,3.77 0.03,5.66 -0.04,1.4 -0.52,4.49 0.35,5.42 0.61,0.37 10.49,0.36 11.78,0.13 0.37,-1.74 0,-18.9 0.1,-22.53 0.15,-5.77 -0.07,-11.39 -0.01,-16.99l0.08 -4.22c-0.04,-1.01 0.19,-0.82 -0.46,-1.04z"/>
   <path class="fil0" d="M202.21 28.81c-0.04,0.05 -0.08,0.11 -0.1,0.16 -0.02,0.04 -0.07,0.11 -0.1,0.16 -0.32,0.68 -0.34,1.74 -0.34,3.42 0,2.18 0.2,10.81 -0.11,11.81l-10.85 0.02c-0.37,-1.11 -0.3,-30.47 -0.12,-33.65l10.99 -0.01c0.1,1.7 -0.22,5.7 0.16,7 1.28,-0.14 -1.01,0.61 0.36,-0.09 0.58,-0.29 0.46,-0.39 0.59,-0.81 -0.19,0.09 -0.54,0.19 -0.79,0.29l0 -6.5c-1.1,-0.35 -10.03,-0.27 -11.54,-0.11 -0.34,2.36 -0.24,33.26 0.13,34.34 1.25,0.08 10.93,0.21 11.36,-0.19 0.47,-0.45 0.28,-6.93 0.28,-7.68 -0,-2.65 0.11,-5.54 0.06,-8.14z"/>
   <path class="fil0" d="M201.6 56.69l-2.79 -0.01c0.06,-2.1 2.67,-2.16 2.79,0.01zm0.92 1.94c-1.5,-0.03 -0.49,1.19 -2.24,1.15 -1.09,-0.02 -1.58,-0.8 -1.62,-1.88l4.06 -0.08c0.63,-4.38 -4.52,-5.01 -5.14,-1.14 -0.82,5.11 5.31,4.98 4.94,1.95z"/>
   <path class="fil0" d="M157.28 59.49c-0.82,-1.51 0.91,-1.95 2.42,-1.92 0.14,1.69 -0.72,2.36 -2.42,1.92zm-0.9 -3.22c1.74,-0.07 0.27,-0.88 1.97,-1.1 1.08,-0.14 1.41,0.32 1.32,1.28 -1.19,0.74 -4.55,0.46 -3.53,3.26 0.67,1.86 2.8,0.42 3.73,0.66 0.58,0.15 0.07,0.45 1.33,0.21 0.15,-1.08 -0.08,-0.55 -0.33,-1.17 -0.43,-1.08 0.28,-3.59 -0.44,-4.65 -0.68,-1 -4.16,-1.23 -4.05,1.51z"/>
   <path class="fil0" d="M52.91 55.46c0.48,-0.38 1.27,-0.48 1.88,-0.18 1.23,0.59 -0.1,0.85 1.63,0.8 -0.2,-3.09 -5.7,-2.31 -4.61,0.5 0.4,0.87 1.18,1 2.13,1.26 1.14,0.31 1.7,0.25 1.57,1.53 -2.58,1.35 -2.97,-1.54 -3.78,-0.65 -0.79,2 3.83,2.88 4.81,0.99 1.75,-3.36 -3.77,-2.06 -3.65,-4.26z"/>
   <path class="fil0" d="M140.71 56.66l0.26 -1.12c-0.21,0.04 -0.25,-0.15 -0.96,0.54l-1.02 3.21 -0.48 -2.02c-0.72,-0.91 -0.29,-1.13 -0.93,-1.77 -1.17,0.2 -0.84,1.26 -1.53,3.07 -0.48,1.24 -0.14,0.56 -0.54,0.82l-0.26 -1.2 -0.82 -2.74 -0.98 0.04c0.03,0.54 0.61,2.09 0.85,2.78 0.57,1.59 0.58,2.54 1.59,2.32 1.03,-0.23 0.5,-1.97 1.47,-3.49 0.42,0.64 0.48,1.1 0.69,2.05 0.27,1.2 0.19,1.35 1.36,1.43 0.27,-0.43 1.37,-3.31 1.31,-3.9z"/>
   <path class="fil0" d="M73.53 59.6c-0.58,-0.7 -0.99,-1.2 -0.9,-2.5 0.28,-3.77 5.23,-1.43 2.44,2.54l-1.54 -0.03zm-1.82 -1.26c0.92,3.84 5.65,3.2 5.13,-1.7 -0.45,-4.29 -6.18,-2.67 -5.13,1.7z"/>
   <path class="fil0" d="M208.69 11.78c1.39,-0.19 2.41,-0.68 4.18,-0.83 1.75,-0.14 3.11,0.04 4.83,0.19l0.11 11.15 -1.18 -0.12c0.6,0.59 0.55,0.56 1.44,0.45 0.22,-1.19 0.25,-10.69 -0.01,-11.69 -2.22,-0.75 -5.93,-0.58 -8.27,0.2 -1.16,0.38 -0.77,0.26 -1.08,0.65z"/>
   <path class="fil0" d="M116.51 54.36l-0.53 0.7c-0.02,-0.04 -0.1,0.09 -0.15,0.14 0.05,0.04 0.12,0.08 0.16,0.11l0.28 0.23c0.4,0.4 -0.12,-0.44 0.28,0.44 0.01,0.74 -0.4,4.29 0.32,4.51l1.39 0.21c-0.57,-0.92 0.04,-0.04 -0.42,-0.56 -0.42,-0.48 -0.07,0.13 -0.48,-0.58l0.12 -3.74c0.94,-0.46 0.64,0.19 0.83,-0.82 -0.66,-0.94 -0.37,0.3 -0.89,-0.84 -0,-0.96 0.23,-0.92 -0.41,-1.28 -0.65,0.32 -0.28,-0.27 -0.49,1.5z"/>
   <path class="fil0" d="M95.1 53.73l-0.01 1.04c-0.86,0.62 -0.54,-0.26 -0.75,0.84 0.47,0.72 0.11,0.05 0.79,0.63 0.06,0.85 0.06,1.67 0.05,2.52 -0.02,2.15 -0.09,1.81 0.43,2.05 0.73,-0.34 0.4,-2.87 0.47,-4.6 0.31,-0.19 0.41,-0.18 0.81,-0.39l-0.12 -0.63c-1.37,-0.07 -0.49,-0.04 -0.93,-0.42 0.11,-2.08 0.77,-0.3 0.96,-1.72 -1.16,-0.26 -0.83,0.17 -1.69,0.68z"/>
   <path class="fil0" d="M177.84 60.74c0.56,-0.37 0.48,-0.57 0.46,-1.77 -0.01,-0.59 -0.04,-1.51 0.05,-2.07 0.37,-2.15 1.61,-0.51 1.66,-2.66 -0.93,0.04 -1.12,0.26 -1.54,0.72 -0.62,-0.72 -0.01,-0.6 -1.04,-0.6l-0.05 3.35c-0.01,1.6 -0.23,2.59 0.47,3.03z"/>
   <path class="fil0" d="M135.23 58.18l0.26 1.2c0.4,-0.26 0.06,0.42 0.54,-0.82 0.69,-1.8 0.36,-2.87 1.53,-3.07 0.64,0.64 0.21,0.86 0.93,1.77 -0.03,-0.71 -0.2,-1.45 -0.72,-2.01 -1.99,0.09 -1.04,1.12 -2.1,3.33 -0.29,-0.69 -0.13,-0.05 -0.44,-0.4z"/>
   <path class="fil0" d="M95.1 53.73c0.87,-0.52 0.54,-0.94 1.69,-0.68 -0.19,1.42 -0.85,-0.36 -0.96,1.72 0.44,0.38 -0.44,0.35 0.93,0.42 -0.24,-0.3 -0.4,-0.27 -0.61,-0.84 0.57,-1.02 0.98,-0.05 0.88,-1.43 -1.05,-0.39 -1.61,-0.08 -1.93,0.81z"/>
   <path class="fil0" d="M116.87 60.48c0.29,0.35 -0.18,0.39 0.76,0.43 0.82,0.03 0.58,-0.19 0.7,-0.26 0.02,-1.11 -0.18,-0.8 -0.97,-1.1 0.41,0.71 0.06,0.1 0.48,0.58 0.46,0.52 -0.14,-0.36 0.42,0.56l-1.39 -0.21z"/>
   <path class="fil0" d="M140 56.08c0.72,-0.69 0.76,-0.5 0.96,-0.54l-0.26 1.12c0.48,-0.47 0.5,-0.45 0.58,-1.26l-1.14 -0.07 -0.14 0.75z"/>
   <path class="fil0" d="M116.55 55.97c-0.4,-0.88 0.12,-0.04 -0.28,-0.44l-0.28 -0.23c-0.04,-0.03 -0.11,-0.07 -0.16,-0.11 0.05,-0.05 0.13,-0.18 0.15,-0.14l0.53 -0.7c-0.91,0.37 -0.43,0.01 -0.89,0.62 0.19,0.94 0.03,0.62 0.92,0.99z"/>
  </g>
 </g>
</svg>
