<?xml version="1.0" encoding="UTF-8"?>
<!DOCTYPE svg PUBLIC "-//W3C//DTD SVG 1.1//EN" "http://www.w3.org/Graphics/SVG/1.1/DTD/svg11.dtd">
<!-- Creator: CorelDRAW -->
<svg xmlns="http://www.w3.org/2000/svg" xml:space="preserve" width="35.1308mm" height="30.8592mm" version="1.1" style="shape-rendering:geometricPrecision; text-rendering:geometricPrecision; image-rendering:optimizeQuality; fill-rule:evenodd; clip-rule:evenodd"
viewBox="0 0 69.14 60.73"
 xmlns:xlink="http://www.w3.org/1999/xlink"
 xmlns:xodm="http://www.corel.com/coreldraw/odm/2003">
 <defs>
  <style type="text/css">
   <![CDATA[
    .fil0 {fill:#434343}
   ]]>
  </style>
 </defs>
 <g id="Layer_x0020_1">
  <metadata id="CorelCorpID_0Corel-Layer"/>
  <g id="_105553437964928">
   <path class="fil0" d="M20.83 5.01c-0.13,0.32 -0.74,0.77 -0.98,1.03 -0.18,0.2 -0.74,0.84 -0.95,0.95 -0.1,0.21 -0.27,0.37 -0.46,0.58 -0.4,0.45 -0.98,1.34 -1.3,1.84 -0.48,0.74 -1.33,1.94 -0.95,3.09 0.34,1.02 1.26,1.8 2.61,1.57 1.49,-0.25 1.71,-1.87 2.91,-3.35 0.32,-0.4 0.63,-0.76 0.95,-1.12 2,-2.23 4.81,-3.9 7.74,-4.66 1.54,-0.4 4.1,-0.62 5.73,-0.35 1.61,0.27 1.94,0.34 3.39,0.81 0.52,0.17 1.04,0.42 1.45,0.62 1.56,0.78 1.31,0.71 2.59,1.56 0.69,0.46 0.93,0.74 1.43,1.24 0.16,0.16 0.14,0.09 0.3,0.23 0.57,0.48 1.84,2.16 2.28,2.86 0.92,1.48 1.37,2.61 1.87,4.33 0.08,0.28 0.15,0.54 0.2,0.86 0.16,1.11 0.78,0.85 -4.26,0.84l-26.31 -0c-0.73,0 -1.47,-0 -2.2,-0 -2.14,0.01 -2.8,2.56 -1.52,3.82 0.87,0.86 2.32,0.63 3.79,0.63 2.92,0 5.83,-0 8.75,0 7.97,0.01 16.14,0.06 24.1,0 2.74,-0.02 2.5,-2.29 2.35,-4.16 -0.17,-2.17 -0.94,-4.94 -1.9,-6.85 -1.7,-3.37 -4.06,-6.08 -7.17,-8.12 -1.14,-0.75 -3.03,-1.74 -4.38,-2.16 -1.1,-0.34 -2.26,-0.74 -3.51,-0.89 -3.97,-0.48 -7.65,-0.18 -11.25,1.44 -1.02,0.46 -2.03,1 -2.87,1.54 -0.77,0.5 -2.23,1.69 -2.44,1.82z"/>
   <path class="fil0" d="M19.05 33.51c0.2,0.1 0.07,-0.01 0.22,0.16 0.03,0.03 0.07,0.11 0.11,0.15 0.16,0.19 0.14,0.09 0.24,0.36 0.17,0.11 0.79,0.76 0.94,0.92 2.8,2.89 7.71,5.22 11.81,5.52 5.83,0.43 10.12,-0.72 14.73,-4.19 0.83,-0.63 1.44,-1.25 2.03,-1.85 1.17,-1.17 2.45,-2.87 3.24,-4.44 0.44,-0.86 1.05,-1.94 0.44,-2.99 -0.42,-0.74 -1.31,-1.49 -2.57,-1.14 -1.13,0.31 -1.42,1.15 -1.84,1.96 -0.88,1.68 -1.05,1.69 -2.01,2.85 -0.21,0.26 -0.2,0.3 -0.42,0.52 -0.34,0.33 -0.58,0.59 -0.95,0.92 -4.72,4.24 -11.82,5.18 -17.36,2.34 -2.8,-1.43 -4.45,-2.95 -6.16,-5.4l-1.04 -1.84c-1.36,-2.73 -4.9,-1.17 -4.3,1.43 0.11,0.47 0.98,2 1.31,2.5l1.57 2.18z"/>
   <path class="fil0" d="M16.68 57.17c-0.22,-0.09 -0.83,-0.94 -1.01,-1.14l-1.82 -2.38c-0.33,-0.4 -0.62,-0.75 -0.92,-1.15 -0.27,-0.35 -1.65,-2.19 -1.91,-2.31 -0.63,-0.29 -1.28,-0.02 -1.46,0.51 -0.15,0.46 -0.09,7.15 -0.07,8.33 0.01,0.69 0.01,1.24 0.57,1.47 0.61,0.25 1.2,-0.19 1.26,-0.74l0.01 -6.23c0.24,0.07 0.17,0.04 0.33,0.24l3.46 4.42c0.33,0.41 1.55,2.14 1.91,2.3 0.65,0.29 1.17,-0.02 1.42,-0.51 0.2,-0.4 0.08,-1.42 0.08,-1.95l0 -6.34c0,-0.67 0.04,-1.31 -0.53,-1.52 -0.65,-0.24 -1.27,0.15 -1.3,0.78 -0.07,1.84 0.07,4.19 -0.01,6.23z"/>
   <path class="fil0" d="M7.25 58.85c-0.91,-0.05 -1.86,-0 -2.78,-0.02 -0.59,-0.01 -2.18,0.08 -2.66,-0.04l0.01 -2.75c0.83,-0.26 2.96,0.15 3.98,-0.15 0.38,-0.09 0.59,-0.66 0.42,-1.09 -0.43,-1.1 -2.22,-0.44 -4.36,-0.64 -0.01,-0.24 -0.14,-2.13 0.09,-2.26 0.21,-0.12 3.99,0.05 4.64,-0.05 0.9,-0.13 1.38,-1.75 -0.32,-1.75l-3.47 0.01c-2.58,0.01 -2.83,-0.35 -2.79,1.84l0 7.01c-0.01,0.56 -0.03,1.44 0.73,1.59l5.87 0.02c1.47,0 1.36,-1.34 0.65,-1.72z"/>
   <path class="fil0" d="M68.62 58.84c-1.24,-0.05 -4.19,0.06 -5.07,-0l-0.31 -0.1c-0.14,-0.21 -0.09,-2.27 -0.05,-2.68 0.75,-0.23 3,0.02 4.04,-0.16 0.8,-0.48 0.41,-1.63 -0.23,-1.6 -0.53,0.03 -3.5,0.08 -3.77,-0.06 -0.16,-0.16 -0.07,-1.37 -0.08,-1.83 -0,-0.29 -0.06,-0.42 0.12,-0.57 0.23,-0.19 4.27,-0.06 4.96,-0.09 0.47,-0.07 0.69,-0.77 0.44,-1.23 -0.27,-0.49 -0.73,-0.48 -1.36,-0.47 -1.22,0.02 -2.52,0.02 -3.74,-0 -1.77,-0.03 -2.15,-0.12 -2.14,1.63l-0 7.55c-0.01,0.63 0.05,1.09 0.59,1.28 0.38,0.14 4.97,0.05 5.63,0.06 0.71,0.01 1.13,0.02 1.4,-0.47 0.27,-0.49 -0.01,-1.05 -0.41,-1.25z"/>
   <path class="fil0" d="M32.14 60.52c0.01,-0.02 0.03,-0.06 0.04,-0.05l0.12 -0.12c0.51,-0.47 0.34,-0.91 0.34,-1.86 -0,-0.77 -0.04,-1.7 0.02,-2.45 0.34,-0.11 4.53,-0.1 4.97,-0.01l0.03 3.91c0.16,0.45 0.59,0.75 1.22,0.52 0.57,-0.21 0.52,-0.77 0.51,-1.37l0 -7.48c0,-0.66 0.08,-1.15 -0.46,-1.42 -0.22,-0.11 -0.62,-0.12 -0.85,-0.02 -0.23,0.09 -0.33,0.29 -0.4,0.52 0.1,0.54 0.01,1.22 0.01,1.79 -0,0.31 -0,0.62 0.01,0.93 0.01,0.18 0.05,0.71 -0.1,0.83 -0.4,0.15 -4,0.05 -4.77,0.05 -0.23,-0.07 -0.07,0.04 -0.19,-0.17 0.07,-0.29 0.01,-1.73 0.02,-2.18 0.01,-0.69 0.13,-1.48 -0.47,-1.77 -0.67,-0.32 -1.31,0.15 -1.33,0.76 -0.03,0.71 0.02,1.48 0.01,2.21 -0.02,1.45 -0.03,2.96 -0.01,4.41 0.02,1.24 -0.29,2.38 0.44,2.87 0.35,0.23 0.47,0.1 0.83,0.1z"/>
   <path class="fil0" d="M44.48 56.4c-0.02,-0.35 0.67,-1.76 0.87,-2.28 0.07,-0.17 0.1,-0.26 0.16,-0.38 0.04,-0.09 0.04,-0.09 0.09,-0.17 0.01,-0.02 0.05,-0.07 0.06,-0.08 0.01,-0.01 0.03,-0.02 0.03,-0.04 0.01,-0.03 0.02,-0.03 0.03,-0.04l0.67 1.49c0.13,0.34 0.59,1.15 0.58,1.51l-2.49 -0.01zm4.04 3.51c0.28,0.64 0.99,0.95 1.52,0.36 0.5,-0.56 -0.05,-1.37 -0.24,-1.9 -0.21,-0.56 -0.51,-1.23 -0.74,-1.74l-1.26 -3.11c-0.06,-0.14 -0.1,-0.17 -0.2,-0.4l-1.11 -2.62c-0.33,-0.51 -1.25,-0.64 -1.61,0.14l-1.09 2.58c-0.26,0.56 -0.49,1.16 -0.73,1.74l-1.47 3.47c-0.22,0.53 -0.73,1.28 -0.2,1.85 0.21,0.22 0.58,0.35 0.93,0.23 0.47,-0.16 0.67,-0.83 0.97,-1.49 0.11,-0.24 0.21,-0.6 0.36,-0.86l4.14 0.03 0.72 1.72z"/>
   <path class="fil0" d="M55.27 58.96c-0.66,0 -1.49,-0.33 -1.96,-0.71 -0.27,-0.22 -0.4,-0.48 -0.84,-0.49 -0.42,-0.01 -0.69,0.21 -0.84,0.49 -0.89,1.62 4.51,3.9 6.76,1.28 0.97,-1.13 0.85,-2.79 -0.24,-3.78 -1.04,-0.95 -2.39,-1.26 -3.5,-1.83 -2.16,-1.12 -0.55,-2.46 1.14,-2.14 0.99,0.19 1.33,0.72 1.72,0.95 0.69,0.4 1.58,-0.24 1.33,-1.01 -0.29,-0.91 -2.16,-1.74 -3.57,-1.74 -1.68,0 -2.63,0.61 -3.26,1.84 -0.61,1.21 0.01,2.51 1.14,3.31 0.71,0.5 2.2,0.99 3.29,1.58 1.46,0.79 0.9,2.24 -1.17,2.24z"/>
   <path class="fil0" d="M25.88 54.82c-0.35,0.23 -2.65,0.11 -2.91,0.06 -0.14,-0.32 -0.12,-2.72 -0.01,-3.05 0.42,-0.1 1.87,-0.03 2.53,-0.05 0.15,-0 0.25,-0.01 0.41,0.02 0.32,0.06 0.28,0.11 0.33,0.16 0.31,0.02 0.61,0.26 0.78,0.48 0.23,0.3 0.27,0.68 0.24,1.12 -0.06,0.68 -0.62,1.28 -1.37,1.26zm-2.93 5.01l0.02 -3.19c0.45,-0.1 1.23,-0.03 1.72,-0.03 0.6,0 1.16,-0.05 1.72,-0.05 1.63,-0.05 3.33,-2.32 2.39,-4.57 -0.97,-2.31 -3.51,-1.87 -5.64,-1.87 -1.92,0 -1.93,-0.1 -1.95,1.84l0 7.48c0.01,1.68 1.68,1.24 1.75,0.4z"/>
   <path class="fil0" d="M18.9 7c0.22,-0.12 0.77,-0.76 0.95,-0.95 0.23,-0.26 0.85,-0.71 0.98,-1.03 -0.31,0.16 -0.38,0.3 -0.58,0.49 -0.24,0.22 -0.28,0.19 -0.48,0.45 -0.19,0.25 -0.76,0.7 -0.87,1.04z"/>
   <path class="fil0" d="M19.62 34.19c-0.11,-0.27 -0.08,-0.17 -0.24,-0.36 -0.04,-0.05 -0.08,-0.12 -0.11,-0.15 -0.15,-0.17 -0.02,-0.07 -0.22,-0.16 0.14,0.28 0.3,0.51 0.58,0.68z"/>
  </g>
 </g>
</svg>
