<?xml version="1.0" encoding="UTF-8"?>
<!DOCTYPE svg PUBLIC "-//W3C//DTD SVG 1.1//EN" "http://www.w3.org/Graphics/SVG/1.1/DTD/svg11.dtd">
<!-- Creator: CorelDRAW -->
<svg xmlns="http://www.w3.org/2000/svg" xml:space="preserve" width="86.9284mm" height="23.6994mm" version="1.1" style="shape-rendering:geometricPrecision; text-rendering:geometricPrecision; image-rendering:optimizeQuality; fill-rule:evenodd; clip-rule:evenodd"
viewBox="0 0 317.42 86.54"
 xmlns:xlink="http://www.w3.org/1999/xlink"
 xmlns:xodm="http://www.corel.com/coreldraw/odm/2003">
 <defs>
  <style type="text/css">
   <![CDATA[
    .fil0 {fill:#727272}
    .fil1 {fill:#727272;fill-rule:nonzero}
   ]]>
  </style>
 </defs>
 <g id="Layer_x0020_1">
  <metadata id="CorelCorpID_0Corel-Layer"/>
  <g id="_105553438840032">
   <path class="fil0" d="M1.18 63.38c-4.62,-11.5 4.72,-26.05 20.84,-32.52 16.12,-6.45 32.93,-2.39 37.53,9.11 4.62,11.5 -4.72,26.04 -20.84,32.52 -16.12,6.45 -32.93,2.37 -37.53,-9.11z"/>
   <path class="fil0" d="M65.7 40.58c-8.57,-3.51 -11.93,-15.22 -7.45,-26.15 4.46,-10.93 15.05,-16.94 23.64,-13.42 8.59,3.51 11.93,15.21 7.45,26.13 -4.46,10.94 -15.05,16.95 -23.64,13.44z"/>
   <path class="fil0" d="M40.35 84.15c-2.67,-4.19 2.82,-12.46 12.25,-18.47 9.43,-6 19.24,-7.47 21.91,-3.28 2.66,4.21 -2.82,12.46 -12.25,18.47 -9.43,6.01 -19.24,7.47 -21.91,3.28z"/>
   <g>
    <path class="fil1" d="M81.96 41.57l-0.09 0c-1.8,0.01 -3.72,0.22 -5.68,0.66 -8.18,1.83 -13.98,6.95 -12.98,11.41 1.02,4.47 8.45,6.6 16.61,4.76 8.17,-1.86 13.98,-6.95 12.96,-11.43 -0.75,-3.37 -5.19,-5.4 -10.83,-5.4z"/>
   </g>
   <path class="fil1" d="M113.04 51.38l-12.83 0c-0.84,0 -1.24,0.29 -1.24,0.85l0 0.97c0,0.56 0.4,0.83 1.24,0.83l9.85 0c2.23,0 3.36,0.89 3.36,2.67l0 1.47c0,1.79 -1.12,2.7 -3.36,2.7l-12.85 0 0 -2.05 12.85 0c0.81,0 1.23,-0.29 1.23,-0.87l0 -0.99c0,-0.58 -0.42,-0.88 -1.23,-0.88l-9.85 0c-2.26,0 -3.39,-0.81 -3.39,-2.41l0 -1.66c0,-1.79 1.12,-2.68 3.39,-2.68l12.83 0 0 2.05z"/>
   <path class="fil1" d="M121.75 51.38c-2.06,0 -3.16,0.35 -3.16,1.66l0 3.1c0,1.62 0.09,2.68 2.21,2.68l7.96 0c2.03,0 3.16,-0.3 3.16,-1.63l0 -3.12c0,-1.63 -0.1,-2.7 -2.21,-2.7l-7.96 0zm12.31 5.81c0,2.45 -1.44,3.68 -4.35,3.68l-8.91 0c-2.91,0 -4.36,-1.23 -4.36,-3.68l0 -4.15c0,-2.47 1.44,-3.7 4.36,-3.7l8.91 0c2.91,0 4.35,1.24 4.35,3.7l0 4.15z"/>
   <path class="fil1" d="M153.59 60.87l-2.38 0c-1.63,0 -2.62,-0.52 -3.61,-1.63l-6.01 -6.82c-0.55,-0.6 -1.26,-1.04 -2.11,-1.04l-0.27 0 0 9.49 -2.09 0 0 -11.54 2.37 0c1.57,0 2.52,0.48 3.49,1.57l6.1 6.88c0.55,0.62 1.26,1.04 2.14,1.04l0.27 0 0 -9.49 2.11 0 0 11.54z"/>
   <path class="fil1" d="M173.78 60.87l-2.38 0c-1.63,0 -2.62,-0.52 -3.61,-1.63l-6.01 -6.82c-0.55,-0.6 -1.26,-1.04 -2.11,-1.04l-0.27 0 0 9.49 -2.09 0 0 -11.54 2.37 0c1.57,0 2.52,0.48 3.49,1.57l6.1 6.88c0.55,0.62 1.25,1.04 2.13,1.04l0.27 0 0 -9.49 2.11 0 0 11.54z"/>
   <path class="fil1" d="M193.41 51.38l-12.52 0c-0.88,0 -1.34,0.39 -1.34,1.11l0 1.54 13.8 0 0 2.05 -13.8 0 0 1.63c0,0.75 0.45,1.11 1.34,1.11l12.56 0 0 2.05 -12.56 0c-2.34,0 -3.49,-0.94 -3.49,-2.84l0 -5.85c0,-1.89 1.15,-2.84 3.49,-2.84l12.52 0 0 2.05z"/>
   <path class="fil1" d="M213.45 60.87l-2.38 0c-1.63,0 -2.62,-0.52 -3.6,-1.63l-6.01 -6.82c-0.55,-0.6 -1.26,-1.04 -2.11,-1.04l-0.27 0 0 9.49 -2.09 0 0 -11.54 2.36 0c1.57,0 2.52,0.48 3.49,1.57l6.1 6.88c0.55,0.62 1.25,1.04 2.13,1.04l0.27 0 0 -9.49 2.11 0 0 11.54z"/>
   <path class="fil1" d="M233.6 50.75l-12.95 0c-1.23,0 -1.82,0.43 -1.82,1.28l0 1.02c0,0.85 0.59,1.27 1.82,1.27l10.06 0c2.18,0 3.27,0.86 3.27,2.58l0 1.36c0,1.73 -1.1,2.61 -3.27,2.61l-12.95 0 0 -1.41 12.95 0c1.2,0 1.8,-0.45 1.8,-1.34l0 -1.04c0,-0.89 -0.61,-1.34 -1.8,-1.34l-10.06 0c-2.21,0 -3.3,-0.79 -3.3,-2.37l0 -1.48c0,-1.7 1.1,-2.55 3.3,-2.55l12.95 0 0 1.41z"/>
   <polygon class="fil1" points="252.63,50.75 245.36,50.75 245.36,60.87 243.89,60.87 243.89,50.75 236.47,50.75 236.47,49.33 252.63,49.33 "/>
   <path class="fil1" d="M256.64 50.75l0 4.24 12.49 0c1.27,0 1.9,-0.56 1.9,-1.66l0 -0.98c0,-1.07 -0.65,-1.6 -1.95,-1.6l-12.44 0zm15.8 2.48c0,1.96 -1.12,2.96 -3.36,2.96l-1.14 0 4.93 4.69 -2.06 0 -4.79 -4.61 -9.39 0 0 4.61 -1.49 0 0 -11.54 13.93 0c2.23,0 3.36,0.95 3.36,2.86l0 1.04z"/>
   <path class="fil1" d="M280.8 50.75c-2.31,0 -3.53,0.63 -3.53,2.31l0 3.42c0,1.89 0.53,2.98 2.9,2.98l8.28 0c2.29,0 3.52,-0.62 3.52,-2.28l0 -3.43c0,-1.9 -0.53,-3 -2.89,-3l-8.28 0zm12.64 6.43c0,2.47 -1.46,3.69 -4.37,3.69l-8.91 0c-2.93,0 -4.38,-1.23 -4.38,-3.69l0 -4.12c0,-2.48 1.46,-3.72 4.38,-3.72l8.91 0c2.91,0 4.37,1.24 4.37,3.72l0 4.12z"/>
   <path class="fil1" d="M317.42 60.87l-1.41 0 0 -10.12 -0.55 0c-1.2,0 -1.93,0.46 -2.44,1.43l-4.57 8.7 -2.64 0 -4.57 -8.7c-0.5,-0.97 -1.25,-1.43 -2.45,-1.43l-0.55 0 0 10.12 -1.41 0 0 -11.54 1.96 0c1.98,0 2.99,0.58 3.85,2.24l4.11 7.89 0.78 0 4.1 -7.87c0.86,-1.67 1.92,-2.25 3.82,-2.25l1.97 0 0 11.54z"/>
   <path class="fil1" d="M113.44 67.9l-12.94 0c-1.37,0 -2.1,0.59 -2.1,1.71l0 2.19 14.95 0 0 1.46 -14.95 0 0 5.09 -1.53 0 0 -8.96c0,-1.97 1.21,-2.95 3.63,-2.95l12.94 0 0 1.46z"/>
   <path class="fil1" d="M124.43 68.68c-0.36,-0.55 -0.68,-0.77 -1.41,-0.77l-0.57 0c-0.74,0 -1.09,0.25 -1.41,0.77l-3.41 5.3 10.21 0 -3.41 -5.3zm7.86 9.68l-1.77 0 -1.91 -2.99 -11.75 0 -1.89 2.99 -1.77 0 6.82 -10.88c0.45,-0.71 0.76,-1.03 1.95,-1.03l1.5 0c1.07,0 1.55,0.31 2,1.03l6.82 10.88z"/>
   <path class="fil1" d="M136.08 72.95l0 3.95 11.76 0c1.73,0 2.8,-0.27 2.8,-1.68l0 -1.28c0,-0.51 -0.34,-0.98 -1,-0.98l-13.56 0zm0 -5.05l0 3.72 13.55 0c0.6,0 0.94,-0.58 0.94,-1.1l0 -0.73c0,-1.27 -0.55,-1.89 -2.01,-1.89l-12.47 0zm15.94 2.52c0,0.81 -0.45,1.55 -1.06,1.82 0.7,0.18 1.19,0.83 1.19,1.64l0 1.54c0,1.96 -1.2,2.95 -3.6,2.95l-14.01 0 0 -11.91 14.01 0c2.31,0 3.47,0.98 3.47,2.95l0 1.03z"/>
   <path class="fil1" d="M156.73 67.9l0 4.38 12.89 0c1.31,0 1.97,-0.58 1.97,-1.71l0 -1.01c0,-1.1 -0.67,-1.65 -2.01,-1.65l-12.85 0zm16.32 2.56c0,2.03 -1.16,3.05 -3.47,3.05l-1.18 0 5.09 4.84 -2.13 0 -4.94 -4.76 -9.69 0 0 4.76 -1.53 0 0 -11.91 14.38 0c2.31,0 3.47,0.98 3.47,2.95l0 1.07z"/>
   <polygon class="fil1" points="178.48,78.35 176.94,78.35 176.94,66.44 178.48,66.44 "/>
   <polygon class="fil1" points="193.15,71.96 199.91,78.35 197.78,78.35 191.92,72.78 184.23,72.78 184.23,78.35 182.7,78.35 182.7,66.44 184.23,66.44 184.23,71.37 191.83,71.37 197.33,66.44 199.46,66.44 "/>
  </g>
 </g>
</svg>
