<?xml version="1.0" encoding="UTF-8"?>
<!DOCTYPE svg PUBLIC "-//W3C//DTD SVG 1.1//EN" "http://www.w3.org/Graphics/SVG/1.1/DTD/svg11.dtd">
<!-- Creator: CorelDRAW -->
<svg xmlns="http://www.w3.org/2000/svg" xml:space="preserve" width="65.4725mm" height="22.0889mm" version="1.1" style="shape-rendering:geometricPrecision; text-rendering:geometricPrecision; image-rendering:optimizeQuality; fill-rule:evenodd; clip-rule:evenodd"
viewBox="0 0 298.25 100.62"
 xmlns:xlink="http://www.w3.org/1999/xlink"
 xmlns:xodm="http://www.corel.com/coreldraw/odm/2003">
 <defs>
  <style type="text/css">
   <![CDATA[
    .fil0 {fill:#434343}
   ]]>
  </style>
 </defs>
 <g id="Layer_x0020_1">
  <metadata id="CorelCorpID_0Corel-Layer"/>
  <g id="_105553435313952">
   <path class="fil0" d="M59.31 26.49c0.32,-0.07 2.89,1.97 3.83,2.45 1.72,0.86 3.27,1.32 5.15,1.86 2,0.58 10.94,1.66 11.47,1.97 2.27,0.07 6.46,0.56 8.49,1.18 2.41,0.74 4.73,3.42 2.07,5.44 -1.83,1.38 -5.21,1.57 -8.06,1.28 -4.03,-0.42 -4.73,-2.3 -5.64,-3.93 -1.77,-0.44 -18.72,-0.34 -21.28,-0.11 -0.54,14.18 15.7,16.81 26.65,16.81 9.27,-0 23.23,-0.62 28.39,-9.32 4.25,-7.16 2.34,-15.67 -2.96,-19.69 -9.15,-6.93 -36.11,-4 -32.18,-10.87 1.53,-2.68 9.39,-2.67 12.47,-0.58 1.56,1.06 1.64,1.51 2.32,3.34l20.35 -0.01c0.37,-6.52 -4.88,-11.91 -10.8,-13.82 -6.11,-1.98 -15.52,-2.78 -22.93,-2.1 -12.14,1.1 -20.85,3.57 -20.78,16.44 0.04,6.7 2.46,7.32 3.46,9.67z"/>
   <path class="fil0" d="M155.17 36.12c-2.38,3.18 -14.86,2.85 -17.54,2.37 -0.43,-1.6 -0.4,-22.98 0.06,-24.48 1.75,-0.26 4.7,-0.09 6.59,-0.09 1.15,-0 2.35,-0.04 3.49,-0.01l2.09 0.31c0.63,0.24 0.16,0 0.53,0.35 0.67,-0.02 -0.02,-0.18 0.69,0.04 0.59,0.18 0.19,0.09 0.52,0.4l0.38 0.04c8.66,1.01 8.45,17.79 3.17,21.05zm7.36 13.74c1.63,0.02 5.91,-2.64 7.02,-3.49 10.81,-8.26 11.46,-29.99 0.45,-38.86 -3.94,-3.18 -10.92,-5.97 -16.15,-5.72l-33.65 -0.08c-0.39,1.76 -0.46,47.84 -0.06,49.98 6.51,0.12 31.13,0.4 37.63,-0.67 1.57,-0.26 3.39,-1.01 4.76,-1.16z"/>
   <path class="fil0" d="M120.53 62.1c-0.51,1.62 -0.21,4.66 -0.21,6.56 -0,1 -0.09,2.58 0.03,3.51 0.14,1.04 -0.04,0.07 0.16,0.66l0.48 1.47 165.63 -0.05c0.38,-0.15 0.22,-0.62 0.71,-1.16 0.43,-0.47 0.67,-0.22 1.62,-1.02l1.54 -1.51c1.55,-2.47 0.31,-0.3 1.8,-1.91l2.06 -1.85 0.1 -4.88c-2.54,-0.36 -84.66,-0.08 -87.05,-0.08 -9.1,0 -85.15,-0.47 -86.87,0.25z"/>
   <path class="fil0" d="M240.09 13.88c-0.79,2.76 -2.03,4.69 -2.21,9.12 -0.08,1.85 -0.06,3.79 -0.05,5.65 0.04,4.14 0.31,2.75 0.57,5.1 1.4,12.52 13.29,18.82 25.64,19.4 4.41,0.21 11.29,0.09 15.51,-0.95 1.51,-0.37 2.78,-1 4.51,-1.29 2.08,-1.77 5.77,-1.09 11.23,-9.3l0.63 -0.77c0.66,-2.19 2.78,-6.42 2.19,-8.89l-19.99 0.04c-0.56,1.08 -0.71,2.32 -1.31,3.5 -3.24,6.43 -16.39,7.44 -19.57,-3.73 -1.44,-5.07 -0.33,-12.04 2.72,-15.27 4.8,-5.07 13.34,-3.01 13.9,-1.57 3.37,1.25 3.67,6.17 4.23,7.73 0.33,0.06 19.34,0.58 20.05,-0.24 0.56,-0.98 -1.13,-7.1 -1.69,-8.49 -1.04,-2.57 -2.87,-4.74 -4.42,-6.27 -4.86,-4.81 -8.9,-5.11 -13.6,-6.53l-1.02 -0.49c-0.72,0.03 -2.53,-0.13 -2.82,-0.28 -3.6,-0.16 -8.22,-0.69 -11.84,-0.04 -3.42,0.61 -6.91,0.98 -9.81,2.18 -5.76,2.4 -10.21,5.55 -12.85,11.38z"/>
   <path class="fil0" d="M43.77 51.69l6.34 -6.12c0.21,-1.52 0.41,-5.48 -0.08,-6.51 -6.38,-0.59 -28.55,0.57 -31.84,-0.28l-0.05 -6.3c3.16,-0.87 19.54,0.36 24.51,-0.29 0.46,-1.44 0.07,-9.91 0.14,-12.13 -3.54,-0.23 -23.07,0.54 -24.37,-0.33 -0.8,-0.98 -0.51,-4.31 -0.25,-5.75 4.09,-0.95 24.35,0.52 30.26,-0.28l-0.1 -11.89 -47.78 0.03 0.08 49.91 43.13 -0.07z"/>
   <path class="fil0" d="M228.15 51.63c0.64,-0.28 2.67,-2.5 3.34,-3.18 0.64,-0.65 1.08,-1.11 1.74,-1.75l1.56 -1.5c0.02,-0.02 0.08,-0.06 0.12,-0.09 0.35,-8.01 2.6,-6.23 -15.97,-6.23 -2.61,0 -14.51,0.45 -15.84,-0.3 -0.51,-1.29 -0.24,-4.49 -0.15,-6.06 3.7,-0.82 23.16,0.43 24.43,-0.35l-0.11 -11.86c-2.55,-0.92 -23.85,0.72 -24.34,-0.59 -0.36,-0.98 -0.21,-1.71 -0.21,-2.9 -0.01,-2.14 -0.28,-2.25 0.35,-2.78 0.6,-0.51 26.79,-0.15 30.03,-0.22l0.05 -11.94 -47.55 0.06 0.12 49.67 42.43 0.02z"/>
   <path class="fil0" d="M120.53 62.1c1.72,-0.73 77.77,-0.25 86.87,-0.25 2.39,0 84.51,-0.27 87.05,0.08l-0.1 4.88 -2.06 1.85c-1.5,1.6 -0.26,-0.56 -1.8,1.91l-1.54 1.51c-0.95,0.8 -1.19,0.55 -1.62,1.02 -0.49,0.54 -0.33,1.01 -0.71,1.16l-165.63 0.05 -0.48 -1.47c-0.2,-0.59 -0.02,0.38 -0.16,-0.66 -0.13,-0.93 -0.03,-2.51 -0.03,-3.51 0,-1.89 -0.29,-4.93 0.21,-6.56zm-0.67 12.43c2.87,0.53 163.88,0.15 164.33,0.15 3.88,-0.01 2.87,0.47 8.22,-5.07 1.03,-1.07 2.67,-2.06 2.78,-3.9 0.3,-5.3 -0.25,-4.53 -2.14,-4.53l-168.37 0c-5.49,-0.01 -4.89,-1.09 -4.89,4.24 0,2.88 -0.17,6.29 0.06,9.1z"/>
   <path class="fil0" d="M228.25 51.98l-0.09 -0.36 -42.43 -0.02 -0.12 -49.67 47.55 -0.06 -0.05 11.94c-3.24,0.07 -29.43,-0.29 -30.03,0.22 -0.63,0.53 -0.36,0.65 -0.35,2.78 0,1.19 -0.15,1.91 0.21,2.9 0.48,1.31 21.79,-0.33 24.34,0.59l0.11 11.86c0.22,-0.24 0.36,-0.05 0.44,-1.36l-0.03 -4.85c0,-1.58 0.19,-4.89 -0.18,-6.25l-24.33 -0.13 -0.08 -5.47 30.24 -0.08c-0.2,-3.72 0.55,-8.76 -0.1,-12.59l0.1 0.12c-3.5,-0.33 -30.41,-0.09 -36.25,-0.09 -1.96,0 -11.6,-0.81 -11.97,0.7 -0.33,1.36 -0.13,23.14 -0.13,24.6 -0,3.65 -0.25,23.19 0.13,25.11 2.53,0.68 17.57,0.19 21.37,0.19 6.6,0 15.32,0.49 21.66,-0.09z"/>
   <path class="fil0" d="M43.77 51.69l-43.13 0.07 -0.08 -49.91 47.78 -0.03 0.1 11.89c-5.91,0.8 -26.17,-0.67 -30.26,0.28 -0.27,1.44 -0.55,4.77 0.25,5.75 1.3,0.86 20.83,0.1 24.37,0.33l-0.52 -0.32c-2.39,-0.92 -22.71,0.55 -23.65,-0.44 -0.17,-0.18 -0.67,-4.52 0.24,-5.02l29.75 -0.22c0.66,-1.49 0.42,-11.03 0.04,-12.85 -1.88,0.45 -36.88,0.14 -42.65,0.14 -7.47,-0 -5.85,-2.09 -5.85,12.8 0,5.28 -0.29,36.91 0.17,37.57 0.35,0.33 0.05,0.17 0.62,0.38 1.1,0.41 35.34,0.08 40.24,0.15 0.18,0 1.25,0.01 1.36,-0.01l1 -0.39c0.05,-0.12 0.18,-0.08 0.23,-0.16z"/>
   <path class="fil0" d="M271.64 100.13l2.17 0.07c0.45,-1.6 -0.06,-4.74 0.21,-5.99 0.02,-0.07 0.05,-0.15 0.06,-0.21l0.17 -0.39c0.57,0.44 1.35,4.47 2.15,6.44l2.49 0.12c0.33,-1.42 1.65,-5.94 2.34,-6.77 0.82,1.31 0.25,4.85 0.28,6.65l2.56 0.03 -0.02 -11.05c-0.79,-0.29 -2.78,-0.54 -3.57,0.08 -0.77,0.76 -1.89,7.2 -3.01,7.63 -0.9,-2.6 -1.44,-5.94 -2.62,-7.97 -0.73,0 -2.52,-0.22 -2.99,0.35 -0.69,1.25 -0.2,8.95 -0.22,11.02z"/>
   <path class="fil0" d="M127.16 99.32l1.94 -5.82c0.65,-1.13 -0.14,-0.27 0.84,-0.89l-0.18 7.34 2.27 0.18 -0.01 -11.12c-2.03,-0.07 -2.42,-0.28 -3.75,0.54 0,0.23 -1.56,6.17 -2.54,7.06 -0.31,-0.79 -1.7,-5.14 -1.71,-6.03l-0.89 -1.8 -3.03 -0.01 -0.15 11.41 2.04 -0.03c0.46,-1.21 0.01,-4.42 0.19,-5.45 0,-0 -0.6,0.4 0.34,-0.91l0.29 0.66c0.09,0.25 0.18,0.63 0.25,0.86l1.51 4.84 2.38 0.07 0.2 -0.91z"/>
   <path class="fil0" d="M161.9 100.17c3.29,0.32 1.86,0.09 2.22,-7.15 1.59,0.83 3.14,5.35 4.61,7.15l3.27 -0.08c0.03,-2.24 0,-4.5 0,-6.75 0,-4.89 0.49,-4.75 -2.26,-4.52l-0.05 7.38c-1.28,-0.44 -3.59,-5.9 -4.73,-7.34 -0.16,-0.09 -2.55,-0.3 -2.99,0.15 -0.5,0.52 -0.24,10.59 -0.08,11.15z"/>
   <path class="fil0" d="M194.87 89.17l-3.22 -0.15 -0.09 10.94 2.09 0.1 -0.11 -7.71c0.89,0.43 1.87,2.09 2.29,3.13 0.08,0.88 2,3.71 2.5,4.73l3.33 -0.08c-0.01,-2.02 0.26,-9.47 -0.03,-10.76 -0.16,-0.71 -0.76,-0.99 -1.66,-0.7 -1.24,0.41 -0.51,4.28 -0.68,7.64 -0.96,-0.81 -3.68,-5.62 -4.44,-7.13z"/>
   <path class="fil0" d="M139.42 91.15c4.13,-2.28 5.12,5.7 2.39,6.75 -4.46,1.72 -5.35,-5.12 -2.39,-6.75zm-0.67 -2.29c-1.61,0.62 -2.34,0.67 -3.02,2.46 -4.39,11.46 12.87,12.54 10.1,1.06 -0.68,-2.83 -3.79,-4.79 -7.07,-3.52z"/>
   <path class="fil0" d="M207.75 100.08c1.9,0.05 4.35,0.49 5.98,-0.54l0.13 -5.4c-0.88,-0.13 -1.6,-0.12 -2.45,-0.12 -1.89,-0.01 -1.54,-0.35 -1.84,0.96 0.45,0.88 0.03,0.47 1.03,0.72 0.28,0.07 1.32,-0.37 1.23,1.16 -0.08,1.43 0.01,0.66 -0.41,0.97 -0.81,0.79 -2.55,0.33 -3.13,-0.26 -1.47,-1.48 -1.55,-5.34 0.9,-6.42 1.82,-0.8 2.57,0.05 4.16,0.14 0.28,-1.02 0.45,-0.82 0.52,-2.02 -10.54,-3.86 -11.49,9.29 -6.13,10.83z"/>
   <path class="fil0" d="M158.31 97.75c-0.85,-4.47 0.91,-8.66 -0.88,-8.9 -1.48,-0.2 -1.54,0.29 -1.55,1.53 -0.02,1.49 0.22,5.2 -0.1,6.42 -0.39,1.49 -2.97,2.36 -3.74,0.68 -1.12,-0.96 -0.12,-6.75 -0.66,-8.78l-2.33 -0.02c-0.29,1.49 -0.13,3.91 -0.14,5.48 -0.01,3.93 0.07,6.56 5.87,6.08 2.64,-0.22 2.35,-1.38 3.53,-2.49z"/>
   <path class="fil0" d="M152.34 52c1.74,-0.19 2.9,-0.1 4.71,-0.43 1.18,-0.22 3.39,-0.81 4.44,-0.79 0.05,-0.05 0.14,-0.18 0.17,-0.13 0.04,0.06 0.17,-0.13 0.34,-0.28 0.48,-0.43 0.01,0.09 0.53,-0.5 -1.38,0.15 -3.2,0.91 -4.76,1.16 -6.5,1.06 -31.12,0.79 -37.63,0.67 -0.4,-2.14 -0.33,-48.22 0.06,-49.98l33.65 0.08c-0.86,-0.93 -7.06,-0.57 -8.21,-0.57l-23.64 -0.02c-1.07,-0.01 -1.44,-0.15 -2.12,0.35 -0.32,0.56 -0.74,47.06 -0.16,50.34 1.56,0.52 29.67,0.45 32.63,0.11z"/>
   <path class="fil0" d="M286.71 97.5l-0.04 2.21c2.24,1.26 6.89,1.29 7.44,-1.82 0.37,-2.1 -0.48,-3.09 -1.77,-3.85 -1.48,-0.87 -2.96,-0.8 -2.72,-2.76 2.04,-0.9 1.6,-0 3.69,0.01 0.48,-0.76 0.53,-0.81 0.67,-1.68l-1.09 -0.68c-1.24,-0.52 -3.26,-0.51 -4.41,0.12 -1.66,0.91 -2.33,3.25 -1.05,4.84 1.15,1.44 3.6,1.84 4.05,2.92 0.97,2.29 -4.34,0.68 -4.77,0.69z"/>
   <path class="fil0" d="M264.76 95.61c1.03,-0.97 3.19,0.13 3.42,-0.78 0.35,-1.42 -0.04,-1.48 -1.7,-1.47 -0.31,0 -0.77,0.03 -1.07,-0 -1.22,-0.13 -0.97,-0.9 -0.84,-2.56l3.81 -0.02c0.4,-0.58 0.25,-1.05 0.14,-1.89 -1.11,-0.19 -2.26,-0.11 -3.39,-0.11 -0.61,-0 -2.58,-0.14 -2.98,0.26 -0.56,0.58 -0.32,10.38 -0.1,11.2l6.43 -0.05c0.82,-3.25 -1.36,-1.86 -3.88,-2.29l0.17 -2.28z"/>
   <path class="fil0" d="M242.91 94.17c1.08,0.7 1.31,0.84 2.34,1.32 3.13,1.45 1.08,3.49 -1.08,2.84 -0.99,-0.3 -0.49,-0.15 -0.85,-0.52l0.06 0.14 -1.39 -0.36 -0.03 1.96c0.52,0.37 0.16,0.12 0.71,0.41l0.87 0.44c1.59,-0.15 3.14,0.12 4.38,-0.61 1.85,-1.09 2.56,-4.08 -0.77,-5.93 -0.59,-0.32 -1.09,-0.49 -1.59,-0.79 -0.96,-0.56 -0.88,-0.61 -0.92,-1.68 2.47,-1.4 4.59,1.55 4.37,-2.05 -5.41,-2.97 -9.12,2.43 -6.1,4.83z"/>
   <path class="fil0" d="M15.33 96.58c-0.75,-0.59 -4.73,-6.9 -4.89,-7.54l-1.95 -0.28c-0.28,1.63 -0.36,10.16 0.06,11.42l1.07 0.03 0.17 -8.49c0.76,0.3 0.47,0.18 0.98,0.92 0.28,0.41 0.58,0.88 0.84,1.27 0.6,0.91 1.07,1.66 1.58,2.47 2.55,4.01 2.15,4.1 4.33,3.67 0.01,-1.86 0.27,-9.2 -0,-10.47 -0.11,-0.52 -1.64,-2.77 -1.59,2.16 0.02,1.77 0.04,3.61 -0.02,5.37 -1.11,0.19 -0.09,0.14 -0.58,-0.53z"/>
   <path class="fil0" d="M40.19 90.14c4.65,-2.17 7.27,6.27 3.25,8.46 -5.46,2.98 -7.47,-6.49 -3.25,-8.46zm4.6 9.59l1.04 -1.03c0.83,-2.53 1.55,-2.97 0.86,-5.99 -0.37,-1.63 -0.82,-2.39 -1.92,-3.22l-0.98 -0.78c-2.16,-0.05 -4.04,-0.49 -5.87,1.11 -2.2,1.94 -2.76,8.06 0.98,10.09 2.21,1.2 3.98,0.4 5.89,-0.18z"/>
   <path class="fil0" d="M223.45 89.18c-1.89,0.36 -2.19,3.27 -0.92,4.88 1.39,1.77 3.94,1.15 3.74,3.59 -0.93,0.62 -2.07,0.44 -3.3,0.22l-1.22 -0.15c0.09,1.56 -0.31,2.09 1.21,2.35 4.41,0.78 6.08,-0.51 5.9,-4.52 -0.15,-0.28 -0.22,-0.34 -0.45,-0.65l-0.49 -0.67c-0.75,-0.21 -0.92,-0.35 -1.42,-0.47 -1.19,-0.31 -1.78,-0.5 -2.4,-1.75 0.93,-2.61 2.45,-0.89 3.99,-0.94 0.61,-0.95 0.45,-0.52 0.73,-1.7 -2.56,-0.47 -2.59,-0.54 -5.36,-0.2z"/>
   <path class="fil0" d="M174.44 91.04l2.66 -0.13c1.02,8.15 -2,9.72 2.76,9.3 0.62,-2.58 -0.53,-6.91 0.35,-9.05 0.87,-0.42 1.63,-0.13 2.81,-0.35 0.71,-2.76 -0.84,-2.16 -3.01,-2.15 -1.78,0.01 -3.73,-0.08 -5.59,0.04l0.02 2.34z"/>
   <path class="fil0" d="M31.43 100.16c0.03,-1.98 -0.01,-4.01 -0.01,-6 -0,-1.41 0.51,-4.34 -0.45,-5.26 -0.58,0.38 -0.64,-0.47 -0.61,2.04 0.02,1.53 0.27,6.17 -0.2,6.83 -0.63,-0.25 -1.32,-1.69 -1.61,-2.25 -0.56,-1.48 -1.99,-2.77 -2.27,-4.08 -2,-1.58 -0.65,-2.76 -3.37,-2.46 -0.42,0.82 -0.49,10.29 0,11.17 1.49,-0.03 1.11,0.63 1.09,-3.56 -0.01,-1.58 -0.04,-3.21 0.03,-4.78 0.96,0.27 2.36,3 2.94,3.96 0.79,1.3 2.38,3.19 2.81,4.39l1.65 0.01z"/>
   <path class="fil0" d="M232.36 92.85l1.46 2.62c0.31,0.23 0.47,-0.46 0.45,2.18 -0.01,0.78 -0.03,1.57 0,2.34l2.2 0.05c0.08,-1.32 -0.5,-3.86 0.51,-4.71 0.96,-1.86 2.87,-4.33 3.07,-6.42 -2.37,-0.04 -2.36,-0.41 -3.2,1.45 -0.45,1 -0.8,1.97 -1.59,2.65l-1.16 -2.53 -0.7 -0.82c-0.62,-0.85 -0.17,-0.62 -2.56,-0.75 0.39,1.99 1.45,2.39 1.52,3.93z"/>
   <path class="fil0" d="M65.52 95.07c-0.22,-0.88 0.01,-0.96 0.41,-1.98 0.27,-0.69 0.37,-1.27 0.75,-1.82 0.72,0.36 1.51,3.24 1.52,3.9l-2.27 0.04c-0.05,-0.01 -0.17,0.01 -0.21,-0.07 -0.04,-0.08 -0.13,-0.05 -0.2,-0.08zm-0.77 -3.92c0.2,1.4 -0.81,3.28 -1.39,4.51 -0.59,1.26 -1.21,3.04 -1.69,4.35l1.4 0.27c0.74,-1.04 0.86,-2.18 1.47,-3.36l4.36 -0.15c0.49,1.17 0.79,2.24 1.28,3.39l1.49 0.08c0.15,-1.06 -2.58,-7.27 -3.27,-9.11 -0.69,-1.82 -1.62,-3.82 -2.71,-1.16 -0.55,1.33 -0.05,0.98 -0.93,1.18z"/>
   <path class="fil0" d="M42.79 20.06c-0.07,2.22 0.31,10.68 -0.14,12.13 -4.97,0.66 -21.35,-0.58 -24.51,0.29l0.05 6.3c3.29,0.85 25.47,-0.32 31.84,0.28 -0.44,-0.71 0.06,-0.27 -0.81,-0.54 -0.11,-0.03 -0.9,-0.07 -1.05,-0.07 -0.62,0 -1.26,0.04 -1.9,0.04 -5.51,0.01 -24.98,0.29 -27.43,-0.1 -0.53,-1.39 -0.15,-4.1 -0.26,-5.73 3.43,-0.24 23.13,0.52 24.33,-0.33 0.38,-0.32 0.38,-0.62 0.39,-1.5 0.01,-0.5 -0.03,-1.11 -0.04,-1.64 -0.02,-2.61 0.53,-8.58 -0.44,-9.46 -0.74,-0.84 -21.1,-0.06 -24.21,-0.41 0.04,-1.6 -0.27,-3.61 0.23,-5.03 -0.91,0.5 -0.41,4.84 -0.24,5.02 0.93,1 21.25,-0.48 23.65,0.44l0.52 0.32z"/>
   <path class="fil0" d="M51.29 93.14c0.75,1.16 1.76,5.34 2.65,7.08l1.59 -0.04 3.58 -9.86 0.09 -1.31c-0.79,-0.01 -0.34,-0.26 -1.34,0.42l-0.36 0.31c-0.1,0.55 0.02,0.44 -0.39,0.94l-2.24 6.59c-0.83,-0.2 -0.21,0.27 -0.67,-0.84 -0.62,-1.51 -1.72,-5.99 -2.94,-7.83l-1.32 0.34c0.11,0.82 1.05,2.96 1.36,4.2z"/>
   <path class="fil0" d="M254.22 100.14l2.45 -0.18 0.13 -8.75c0.55,-1.16 0.79,-0.16 2.51,-0.66l0.07 -1.43 -8.16 -0.11 -0.04 1.54 2.8 0.2c0.58,1.63 0.21,7.31 0.25,9.38z"/>
   <path class="fil0" d="M92.68 91.01c-0.01,0.84 1.97,5.72 2.55,7.6 0.42,1.37 0.31,1.74 2.07,1.47 0.53,-0.81 2.6,-6.45 2.45,-7.19 0.37,-1.26 1.14,-2.65 1.18,-3.91 -1.04,0.09 -1.02,-0.16 -1.37,0.96 -0.35,1.12 0.05,1.16 -0.83,1.43 -0.08,1.06 -0.54,2.04 -0.95,2.97 -1.02,2.33 -0.28,2.03 -1.28,2.59l-0.24 -0.36c-0.04,-0.06 -0.17,-0.29 -0.21,-0.37l-1.7 -5.29c-1.17,-0.7 -0.43,-0.5 -0.83,-1.3 -0.4,-0.81 -0.37,-0.53 -1.36,-0.68l0.53 2.06z"/>
   <path class="fil0" d="M105.16 100.26l6.45 -0.06 -0.19 -0.01c-0.12,-2.3 -2.09,-0.16 -4.96,-1.27l0.19 -4.07 4.42 -0.26c0.01,-1.03 -0.49,-0.78 -1.68,-0.76 -1.17,0.02 -1.82,0.19 -2.94,-0.28l0.09 -3.32c1.45,-0.66 3.7,0.29 4.91,-0.62 -0.5,-1.1 -1.43,-0.63 -2.88,-0.64 -0.97,-0 -2.47,-0.18 -3.11,0.19 -0.7,0.57 -0.33,10.38 -0.3,11.1z"/>
   <path class="fil0" d="M187.87 100.16c-0.25,-2.44 0.28,-9.56 -0.3,-11.15l-1.75 -0.07c-0.51,1.4 -0.27,9.14 -0.21,11.1l2.26 0.12z"/>
   <path class="fil0" d="M155.17 36.12c-2.76,0.84 -1.87,1.61 -7.67,2.15 -2.71,0.25 -6.81,0.08 -9.62,0l-0.05 -23.85c2.07,-0.12 4.18,-0.04 6.19,-0.04 1.54,-0 5.34,0.34 6.39,0.21 -0.37,-0.35 0.1,-0.11 -0.53,-0.35l-2.09 -0.31c-1.14,-0.03 -2.35,0 -3.49,0.01 -1.89,0 -4.84,-0.17 -6.59,0.09 -0.46,1.5 -0.49,22.88 -0.06,24.48 2.68,0.48 15.16,0.8 17.54,-2.37z"/>
   <path class="fil0" d="M79.17 90.25c1.33,-0.58 2.01,-0.13 3.39,-0.39l-0.09 -0.8c-1.13,-0.35 -4.94,-0.13 -6.4,-0.14 -0.54,-0.01 -2.91,0.24 -1.43,0.96 0.42,0.2 2.03,-0.02 3.06,0.3 0.35,0.98 0.18,6.11 0.16,7.75 -0.03,2.65 0.04,1.78 0.38,2.18 1.26,-0.22 0.91,-0.29 0.88,-1.9l0.06 -7.95z"/>
   <path class="fil0" d="M105.16 100.26c-0.03,-0.72 -0.39,-10.53 0.3,-11.1 0.65,-0.37 2.14,-0.19 3.11,-0.19 1.45,0 2.38,-0.46 2.88,0.64 -1.2,0.91 -3.46,-0.04 -4.91,0.62l-0.09 3.32c1.12,0.47 1.77,0.3 2.94,0.28 1.19,-0.02 1.68,-0.26 1.68,0.76l-4.42 0.26 -0.19 4.07c2.87,1.1 4.84,-1.03 4.96,1.27 0.28,-0.35 0.64,0.63 0.27,-1.19 -1.03,-0.68 -3.45,-0.2 -4.84,-0.36l0.1 -3.27c1.59,-0.29 3.31,0.28 4.67,-0.47l-0.08 -1.18c-1.36,-0.65 -3.01,-0.11 -4.69,-0.4l0.04 -2.83c1.08,-0.18 2.22,-0.07 3.33,-0.08 1.66,-0.01 1.45,-0.12 1.68,-1.59 -1.1,-0.46 -5.71,-0.66 -6.83,-0.06 -0.67,0.6 -0.37,7.33 -0.37,8.63 -0,1.28 -0.21,2.13 0.47,2.87z"/>
   <path class="fil0" d="M86.54 90.13l0.09 10.04c1.99,0.24 1.51,-0.02 1.51,-4.39l-0.16 -6.99 -1.18 -0.01 -0.26 1.36z"/>
   <path class="fil0" d="M82.47 89.06l0.09 0.8c-1.38,0.26 -2.07,-0.19 -3.39,0.39l-0.06 7.95c0.03,1.61 0.38,1.69 -0.88,1.9 -0.34,-0.4 -0.41,0.47 -0.38,-2.18 0.02,-1.64 0.19,-6.77 -0.16,-7.75 -1.02,-0.32 -2.64,-0.1 -3.06,-0.3 -1.49,-0.71 0.88,-0.96 1.43,-0.96 1.47,0.02 5.27,-0.21 6.4,0.14zm-8.22 1.44l3.17 -0.05 0.15 9.86 1.84 0 0.1 -9.87 3.4 -0.04 0.08 -1.61c-0.91,-0.55 -7.84,-0.51 -8.88,-0.09 -0.27,0.85 -0.1,1.18 0.14,1.79z"/>
   <path class="fil0" d="M251.01 88.72c-0.49,0.87 -0.43,0.91 -0.23,2.07 1.32,0.57 1.59,0.22 2.9,0.39 0.4,1.26 0.19,6.41 0.18,8.09 -0.04,1.55 -0.08,0.39 0.37,0.87 -0.04,-2.07 0.32,-7.75 -0.25,-9.38l-2.8 -0.2 0.04 -1.54 8.16 0.11 -0.07 1.43c-1.71,0.5 -1.95,-0.51 -2.51,0.66l2.96 -0.23 -0.16 -2.31c-1.16,-0.3 -7.73,-0.29 -8.59,0.06z"/>
   <path class="fil0" d="M2.51 88.97c0.65,0.87 0.28,6.87 0.31,8.96 0.02,1.67 0.47,2.02 -0.89,2.04l0 -8.49c-0,-0.32 -0.05,-1.1 -0.02,-1.37 0.12,-1.38 -0.08,-0.72 0.6,-1.14zm-0.91 -0.27c-0.42,1.52 -0.2,5.06 -0.2,6.81 0.01,4.31 -0.58,5.36 1.87,4.69l-0.13 -11.59 -1.54 0.09z"/>
   <path class="fil0" d="M28.56 95.53c0.29,0.56 0.98,1.99 1.61,2.25 0.47,-0.66 0.22,-5.31 0.2,-6.83 -0.03,-2.51 0.03,-1.65 0.61,-2.04 0.96,0.92 0.45,3.85 0.45,5.26 0,1.99 0.04,4.02 0.01,6 0.69,-0.46 0.45,0.05 0.43,-2.77 -0.02,-2.45 0.25,-7.07 -0.26,-8.85l-1.65 0.11 -0.01 7.97c-0.53,-0.4 -0.21,-0.22 -0.59,-0.54 -0.76,-0.66 -0.04,-0.14 -0.8,-0.56z"/>
   <path class="fil0" d="M2.51 88.97c-0.69,0.43 -0.49,-0.24 -0.6,1.14 -0.02,0.27 0.02,1.04 0.02,1.37l-0 8.49c1.36,-0.02 0.91,-0.37 0.89,-2.04 -0.03,-2.09 0.34,-8.09 -0.31,-8.96z"/>
   <path class="fil0" d="M223.45 89.18c2.77,-0.34 2.79,-0.28 5.36,0.2 -0.28,1.18 -0.12,0.75 -0.73,1.7 -1.54,0.06 -3.06,-1.67 -3.99,0.94 0.63,1.25 1.21,1.44 2.4,1.75 -0.87,-1.09 -1.85,-0.83 -1.94,-1.75 0.57,-2.02 2.13,-0.53 3.79,-0.61 0.84,-1.07 0.75,-0.86 0.73,-2.3 -1.03,-0.23 -4.86,-1.53 -5.62,0.07z"/>
   <path class="fil0" d="M264.76 95.61l3.06 0.07c1.02,-0.24 0.36,-0.14 0.8,-0.34l-0.11 -2.07c-0.84,-0.58 -2.25,-0.4 -3.64,-0.35l0.08 -1.78 2.84 0.03c0.73,-0.18 0.19,0.26 0.58,-0.39l-3.81 0.02c-0.13,1.65 -0.39,2.43 0.84,2.56 0.3,0.03 0.76,0 1.07,0 1.66,-0.01 2.05,0.06 1.7,1.47 -0.23,0.92 -2.39,-0.18 -3.42,0.78z"/>
   <path class="fil0" d="M222.97 97.87c-0.71,-0.78 -0.19,-0.6 -1.34,-0.48 -0.47,0.86 -0.28,1.69 -0.07,2.72l0.65 0.15c2.71,0.7 7.16,0.69 7.17,-3.15 0,-0.39 0,-0.45 -0.11,-0.83 -0.15,-0.54 -0.2,-0.48 -0.43,-0.73 0.19,4.01 -1.48,5.29 -5.9,4.52 -1.52,-0.27 -1.11,-0.8 -1.21,-2.35l1.22 0.15z"/>
   <path class="fil0" d="M236.98 95.34c-1.01,0.85 -0.43,3.39 -0.51,4.71l-2.2 -0.05c-0.03,-0.78 -0.01,-1.56 -0,-2.34 0.02,-2.64 -0.13,-1.96 -0.45,-2.18 0.03,1.49 -0.25,3.38 0.25,4.77 1.45,0.31 2.76,0.55 2.85,-0.95 0.08,-1.28 -0.05,-2.57 0.06,-3.95z"/>
   <path class="fil0" d="M99.07 89.52c0.01,1.21 -0.17,0.74 -0.34,1.86 0.89,-0.26 0.49,-0.3 0.83,-1.43 0.35,-1.13 0.33,-0.87 1.37,-0.96 -0.04,1.26 -0.81,2.65 -1.18,3.91 0.93,-0.68 0.81,-0.74 1.43,-2.69 0.44,-1.39 0.49,-1.73 -1.23,-1.64 -0.36,0.39 -0.39,0.54 -0.88,0.95z"/>
   <path class="fil0" d="M243.32 97.79c0.37,0.37 -0.14,0.22 0.85,0.52 2.16,0.66 4.21,-1.39 1.08,-2.84 -1.03,-0.48 -1.27,-0.61 -2.34,-1.32 0.47,1.01 0.45,0.89 2.02,1.64 1.07,0.51 1.44,0.56 1.54,1.58 -0.98,0.92 -1.78,0.43 -3.15,0.41z"/>
   <path class="fil0" d="M232.17 92.96l0.19 -0.11c-0.07,-1.54 -1.13,-1.94 -1.52,-3.93 2.39,0.13 1.95,-0.1 2.56,0.75l0.7 0.82c-0.21,-1.07 -0.35,-1.1 -0.94,-1.93l-2.66 0.04c-0.27,1.6 0.63,1.67 1.66,4.36z"/>
   <path class="fil0" d="M92.68 91.01l-0.53 -2.06c0.99,0.15 0.96,-0.13 1.36,0.68 0.4,0.8 -0.34,0.6 0.83,1.3 -0.72,-2.13 -0.2,-2.18 -2.42,-2.52 -0.15,0.49 -0.25,0.68 -0.11,1.36 0.02,0.08 0.16,0.52 0.19,0.57 0.31,0.52 0.18,0.34 0.68,0.68z"/>
   <path class="fil0" d="M243.54 100.39l-0.87 -0.44c-0.55,-0.29 -0.2,-0.04 -0.71,-0.41l0.03 -1.96 1.39 0.36c-0.87,-0.9 -0.77,-0.92 -1.96,-0.47l0.17 0.31 0.12 2.11c0.72,0.43 0.82,0.49 1.83,0.51z"/>
  </g>
 </g>
</svg>
