<?xml version="1.0" encoding="UTF-8"?>
<!DOCTYPE svg PUBLIC "-//W3C//DTD SVG 1.1//EN" "http://www.w3.org/Graphics/SVG/1.1/DTD/svg11.dtd">
<!-- Creator: CorelDRAW -->
<svg xmlns="http://www.w3.org/2000/svg" xml:space="preserve" width="68.2899mm" height="22.1342mm" version="1.1" style="shape-rendering:geometricPrecision; text-rendering:geometricPrecision; image-rendering:optimizeQuality; fill-rule:evenodd; clip-rule:evenodd"
viewBox="0 0 234.84 76.12"
 xmlns:xlink="http://www.w3.org/1999/xlink"
 xmlns:xodm="http://www.corel.com/coreldraw/odm/2003">
 <defs>
  <style type="text/css">
   <![CDATA[
    .fil0 {fill:#434343}
   ]]>
  </style>
 </defs>
 <g id="Layer_x0020_1">
  <metadata id="CorelCorpID_0Corel-Layer"/>
  <g id="_105553438966720">
   <path class="fil0" d="M28.91 76.12c3.48,-0.81 14.92,-6.81 19.48,-8.84 1.81,-0.81 5.35,-2.56 7.07,-2.96l0 -52.52c-1.88,-0.44 -4.54,-1.87 -6.66,-2.78 -5.1,-2.18 -15.89,-8.09 -19.89,-9.02l0 76.12z"/>
   <path class="fil0" d="M-0 76.12l25.96 -11.8c-1.23,-1.68 -4.32,-2.59 -6.33,-4.29 -1.42,-1.21 -4.12,-3.89 -5.24,-5.38 -9.08,-12.01 -6.83,-27.73 4.93,-38.27 2.09,-1.88 5.42,-2.91 6.64,-4.57 -2.03,-1.07 -4.38,-1.88 -6.49,-2.95 -2.07,-1.05 -4.2,-2.02 -6.42,-3.02 -3.02,-1.36 -10.26,-5.19 -13.05,-5.83l0 76.12z"/>
   <path class="fil0" d="M208.29 29.5l-2.36 0 0 3.54 2.36 0c0,12.94 -1.11,14.16 8.85,14.16l0 -4.72c-3.71,-0.08 -2.95,0.34 -2.95,-9.44l2.95 0c0,-3.12 0,-0.88 0.59,-1.77 0.58,2.51 1.56,5.1 2.53,7.51 3.7,9.19 4.18,9.02 -1.34,9.02l0 4.72c10.08,0 8.63,-0.68 13.94,-16.15 0.74,-2.15 1.8,-4.67 1.99,-6.86l-5.9 0 -2.4 8.81c-0.05,0.13 -0.13,0.3 -0.17,0.42l-0.37 0.81c-0.31,-3.73 -2.17,-6.67 -2.95,-10.03l-8.85 0 0 -5.31 -5.9 0 0 5.31z"/>
   <path class="fil0" d="M143.38 33.04l0 -3.54c-5.49,0 -3.16,-0.06 -5.9,1.77l0 -1.77 -5.31 0 0 17.7c7.2,0 5.92,0.55 5.86,-7.71 -0.03,-4.34 0.66,-4.93 4.76,-5.27 -0.06,2.72 -0.59,1.98 -0.59,4.13 0,9.54 11.22,10.68 15.25,6.99 2.08,-1.9 1.76,-2.24 2.45,-5.22l-5.9 0c-0.22,2.6 -0.5,2.38 -2.95,2.95 -4.26,-2.85 -3.54,-9.44 0.59,-9.44 4.31,0 -2.65,2.36 7.67,2.36 0,-5.19 -4.79,-7.08 -7.67,-7.08 -4.99,0 -5.47,2.26 -8.26,4.13z"/>
   <path class="fil0" d="M176.43 43.07c-3.89,0 -1.3,0.23 -2.95,-0.59 0.42,-3.83 0.98,-1.46 5.31,-3.54 0,2.38 -0.04,4.13 -2.36,4.13zm-7.67 -7.67l5.31 0c0.79,-2.95 2.81,-3.44 4.72,-0.59 -3.66,2.45 -8.08,1.11 -10.06,4.13 -1.68,2.57 -1.44,11.21 8.99,7.2l1.26 -0.18c1.95,0.37 -2.77,0.65 5.71,0.65 0,-10.39 1.62,-17.7 -8.26,-17.7 -4.44,0 -7.57,2.05 -7.67,6.49z"/>
   <path class="fil0" d="M121.55 43.07c-3.89,0 -1.3,0.23 -2.95,-0.59 0.2,-2.42 -0.47,-1.49 1.63,-2.5 0.41,-0.2 2.87,-0.85 3.68,-1.04 -0.05,2.11 -0.26,4.13 -2.36,4.13zm-7.67 -7.67l5.31 0c0.79,-2.95 2.81,-3.44 4.72,-0.59 -2.27,1.52 -2.47,1.12 -5.38,1.7 -1.9,0.38 -3.86,1.01 -4.76,2.35 -1.36,2.01 -2.32,8.35 6.01,8.35 3.07,0 1.8,-1.08 3.61,-1.21l2.83 0.61c1.01,0.09 2.53,0.01 3.59,0.01 -0.06,-2.56 -0.53,-2.41 -0.61,-5.29 -0.06,-2.12 0.14,-4.45 0.05,-6.54 -0.35,-8.34 -15.19,-7.9 -15.38,0.62z"/>
   <path class="fil0" d="M91.46 37.76c0,-3.05 1.56,-3.67 3.54,-4.72l1.73 1.22c2.31,2.44 1.74,8.81 -2.32,8.81 -2.31,0 -2.95,-2.92 -2.95,-5.31zm-5.9 0c0,13.48 18.29,11.32 18.29,1.77 0,-5.58 -1.93,-10.62 -8.85,-10.62 -5.31,0 -9.44,3.48 -9.44,8.85z"/>
   <path class="fil0" d="M69.04 34.22c0,8.87 9.56,3.14 10.03,8.85 -9.74,0 0.94,-2.36 -10.62,-2.36 0.2,8.83 16.52,8.76 16.52,0.59 0,-2.83 -1.51,-4.19 -3.88,-4.97 -4.77,-1.57 -5.75,0.02 -6.74,-2.7 3,-1.69 3.93,0.27 5.13,0.78 1.55,0.66 2.97,0.4 4.9,0.4 -0.67,-8.11 -15.34,-7.6 -15.34,-0.59z"/>
   <polygon class="fil0" points="105.03,46.61 111.52,46.61 111.52,23.01 105.03,23.01 "/>
   <polygon class="fil0" points="160.5,46.61 166.4,46.61 166.4,23.01 160.5,23.01 "/>
   <path class="fil0" d="M186.46 45.43c0,2.35 1.67,1.77 5.9,1.77 0,-8.47 -1.24,-12.82 5.9,-12.98l0 -4.72c-5.49,0 -3.16,-0.06 -5.9,1.77l0 -1.77 -5.9 0 0 15.93z"/>
   <polygon class="fil0" points="198.85,46.61 204.75,46.61 204.75,29.5 198.85,29.5 "/>
   <polygon class="fil0" points="198.85,27.73 204.75,27.73 204.75,23.01 198.85,23.01 "/>
  </g>
 </g>
</svg>
