<?xml version="1.0" encoding="UTF-8"?>
<!DOCTYPE svg PUBLIC "-//W3C//DTD SVG 1.1//EN" "http://www.w3.org/Graphics/SVG/1.1/DTD/svg11.dtd">
<!-- Creator: CorelDRAW -->
<svg xmlns="http://www.w3.org/2000/svg" xml:space="preserve" width="80.3242mm" height="22.4064mm" version="1.1" style="shape-rendering:geometricPrecision; text-rendering:geometricPrecision; image-rendering:optimizeQuality; fill-rule:evenodd; clip-rule:evenodd"
viewBox="0 0 386.57 107.83"
 xmlns:xlink="http://www.w3.org/1999/xlink"
 xmlns:xodm="http://www.corel.com/coreldraw/odm/2003">
 <defs>
  <style type="text/css">
   <![CDATA[
    .fil0 {fill:#434343}
   ]]>
  </style>
 </defs>
 <g id="Layer_x0020_1">
  <metadata id="CorelCorpID_0Corel-Layer"/>
  <path class="fil0" d="M15.42 39.39c11.5,-5.68 19.05,-0.25 19.06,12.4 0.01,12.54 -6.44,17.54 -19.12,15.26l0.06 -27.66zm-15.27 37.92c5.77,3.33 25.45,4.05 32.4,1.8 23.52,-7.63 21.82,-43.63 5.09,-52.2 -9.37,-4.8 -16.03,-1.48 -22.29,-0.45l-0.03 -26.42 -15.32 0 0.15 77.26z"/>
  <path class="fil0" d="M169.48 67.15l-0.13 -27.79c11.85,-5.13 19.03,-0.54 19.06,12.44 0.03,12.9 -6.15,17.09 -18.93,15.35zm-15.36 -50.87l0.04 61.3c7.94,2.5 23.41,4.32 32.09,1.64 24.91,-7.69 23.51,-50.05 -0.92,-54.44 -7.91,-1.42 -10.06,1.05 -15.92,1.58l-0.11 -26.36 -13.94 9.3c-1.84,1.61 -1.24,3.93 -1.24,6.97z"/>
  <path class="fil0" d="M335.63 46.6c-0.23,-0.57 -0.22,-0.14 -0.28,-1.35 -0.07,-1.32 -0.12,0.4 0.03,-0.92 1.05,-9.41 19.19,-11.64 19.16,2.51 -4.35,0.18 -15.61,0.8 -18.91,-0.25zm28.76 18.77c-2.06,0.03 -5.82,1.33 -8.72,1.74 -8.09,1.15 -20.92,0.03 -20.61,-9.65l34.26 -0.25c0.75,-16.16 -2.67,-27.64 -15.5,-31.83 -14.13,-4.61 -27.04,2.72 -31.95,13.35 -5.9,12.77 -2.53,28.9 6.46,36.18 9.07,7.34 25.94,7.22 37.98,2.6l-1.93 -12.15z"/>
  <path class="fil0" d="M243.7 68.07c-3.55,0.69 -9.47,1.02 -12.8,-0.26 -3.51,-1.34 -5.24,-6.39 -2,-9.49 2.53,-2.43 8.83,-2.33 12.62,-2 3.4,0.3 2.43,3.84 2.18,11.74zm-24.7 -29.41c5.07,-0.26 9.66,-2.34 16.37,-1.76 5.67,0.49 8.73,3.56 8.26,9.65 -6.77,-0.06 -15.43,-2.4 -24.2,2.79 -6.38,3.77 -9.53,12.32 -6.04,20.92 5.74,14.13 29.67,10.38 44.95,7.52 0.27,-8.04 0.06,-16.41 0.06,-24.49 -0,-7.57 0.34,-15.52 -3.13,-20.91 -3.12,-4.84 -8.71,-7.67 -16.38,-8.13 -5.4,-0.32 -17.52,0.33 -21.7,2.56l1.81 11.85z"/>
  <path class="fil0" d="M307.81 26.82c-13.88,-4.53 -33.19,-4.27 -36.95,9.43 -5.09,18.55 16.47,20.76 24.03,26.47 0.26,3.13 0.3,4.49 -2.82,5.2 -7.74,1.78 -15.69,-2.04 -20.6,-2.61l-2.43 11.98c5.19,3.69 22.08,4.22 29.01,2.19 9.02,-2.65 14.95,-9.83 11.53,-20.86 -2.65,-8.54 -12.3,-9.96 -20.14,-13.86 -5.32,-2.65 -5.82,-7.58 0.93,-8.17 7.08,-0.61 9.5,1.31 15.06,1.89l2.38 -11.68z"/>
  <path class="fil0" d="M93.51 51.47c-0.68,13.1 2.21,23.25 11.97,27.18 7.14,2.88 27.72,1.96 34.37,-1.34l0.03 -57.2c-2.85,1.1 -12.4,8.06 -15.15,10.17 -0.73,7.49 0.37,30.38 -0.16,34.98 -0.41,3.57 -7.21,2.57 -10.05,1.81 -7.83,-2.11 -5.76,-16.91 -5.83,-25.75 -2.01,0.69 -12.87,8.41 -15.19,10.14z"/>
  <path class="fil0" d="M61.7 0.05c0.16,17.05 0.02,34.18 0.02,51.24 0,14.61 -2.56,29.41 21.51,28.93l2.06 -12.48c-7.02,-1.12 -8.28,-3.05 -8.31,-10.44l0.02 -57.27 -15.29 0.01z"/>
  <path class="fil0" d="M135.88 97.18c4.69,-1.68 5.65,6.42 2.03,7.79 -4.5,1.7 -6.46,-6.21 -2.03,-7.79zm-5.33 5.64c1.29,7.4 14.21,6.79 12.52,-3.31 -1.32,-7.91 -14.28,-6.79 -12.52,3.31z"/>
  <path class="fil0" d="M224.42 97.16c4.55,-1.69 5.88,6.3 2.07,7.77 -4.62,1.78 -6.46,-6.14 -2.07,-7.77zm-5.41 5.16c0.85,7.86 13.88,7.52 12.67,-2.38 -1,-8.19 -13.75,-7.57 -12.67,2.38z"/>
  <path class="fil0" d="M336.35 97.09c4.79,-1.53 5.64,6.96 1.82,7.95 -4.98,1.29 -5.95,-6.63 -1.82,-7.95zm-5.31 6.23c1.94,7.38 14.71,5.44 12.3,-4.37 -1.85,-7.52 -14.93,-5.64 -12.3,4.37z"/>
  <path class="fil0" d="M189.85 107.5c1,-1.72 0.34,-5.16 0.66,-8.04 6.43,7.81 3.74,7.96 8.04,8.05 0.02,-2.23 0.01,-4.46 0.02,-6.7l-0.14 -4.95c-0.31,-1.24 0.03,-0.44 -0.58,-1.24l-1.5 0c-1.7,2.29 -0.58,1.25 -0.67,1.69l-0.07 5.3c-1.7,-1.42 -4.82,-7.65 -7.26,-7 -1.31,0.91 -0.84,0.15 -0.92,2.64l0.41 10.17 2 0.07z"/>
  <path class="fil0" d="M149.54 99.49c1.33,1.57 2.12,2.41 3.31,4.32 1.7,2.72 1.01,3.66 4.72,3.7 0.02,-2.23 0.01,-4.46 0.02,-6.69 0.01,-1.98 0.48,-4.64 -0.75,-6.18l-1.9 0.8c-1.14,3.45 0.39,-2.59 -0.25,0.89l-0.04 5.3c-2.71,-2.13 -3.58,-7.25 -8.1,-6.92l0.16 12.81 2.64 -0.19 0.19 -7.84z"/>
  <path class="fil0" d="M121.31 97.13c2.91,-0.12 3.62,0.28 3.18,3l-3.6 0.18 0.42 -3.18zm4.41 5.19c4.53,-4.82 1.4,-8.01 -4.94,-7.85 -3.88,0.1 -2.82,1.38 -2.78,5.34 0.03,2.48 -0.29,5.24 0.2,7.67l2.62 -0.16 0.48 -4.44c2.33,0.25 2.4,2.26 4,4.55l3.21 -0.01 -2.8 -5.11z"/>
  <path class="fil0" d="M349.8 97.02c3.43,0.08 3.72,0.2 3.6,2.95l-3.61 0.52 0.01 -3.47zm4.71 5.88c0.29,-0.74 8.21,-9.66 -7.66,-8.14l-0 12.75 2.84 -0.1 0.14 -4.58c2.32,0.33 2.08,1.01 3.19,2.91 1.42,2.43 0.94,1.72 4.24,1.82 -0.85,-2.39 -1.39,-3.15 -2.75,-4.66z"/>
  <path class="fil0" d="M264.47 100.49c-0.66,-1.07 -0.36,1.31 -0.61,-1.65 -0.09,-1.12 0.09,-0.93 0.31,-1.78 1.87,-0.58 1.43,-0.66 2.66,0.38 1.21,0.47 1.49,-0.23 0.96,2.48l-3.33 0.58zm4.47 1.84c1.87,-1.85 3.5,-4.69 0.71,-6.75 -2.01,-1.49 -5.76,-1.01 -8.38,-0.84 -0.05,2.51 -0.56,11.11 0.63,12.77l1.5 0c1.25,-1.55 0.47,-2.95 1,-4.55 2.06,0.16 2.11,1.13 3.06,2.8 1.39,2.46 0.82,1.76 4.14,1.77 -0.7,-2.52 -1.84,-3.27 -2.65,-5.19z"/>
  <path class="fil0" d="M374.91 19.66l2.55 0.02c1.05,-1.39 0.35,-1.4 1,-2.98 0.88,1.13 0.82,2.56 2.79,1.91 1.37,-0.45 1.16,-1.6 2.07,-2.84l0.25 3.87 2.84 0.08c0.36,-2.27 0.03,-3.97 -0.17,-6.19 -0.31,-3.47 0.1,-3.54 -3.27,-3.23l-2.1 4.31 -2.23 -4.44 -2.97 0.17 -0.75 9.32z"/>
  <path class="fil0" d="M252.27 97.95l1.51 4.43 -3.43 -0.13 1.92 -4.3zm-6.5 9.57c4.87,-0.07 2.06,0.37 4.12,-2.77l4.5 0.09c2.04,2.92 -0.41,2.54 4.2,2.74 -0.56,-2.58 -1.56,-4.9 -2.57,-7.36 -0.78,-1.91 -1.42,-5.88 -4.08,-5.58 -2.55,0.29 -5.52,10.45 -6.17,12.88z"/>
  <path class="fil0" d="M291.39 96.8c-0.47,5.57 -0.44,11.06 5.5,10.97 5.83,-0.08 5.11,-5.33 5.15,-9.48 0.03,-3.66 -0.08,-4 -3.04,-3.52 -0.01,3.12 1.33,10.66 -2.52,10.39 -3.43,-0.24 -2.13,-7.43 -2.13,-10.45l-2.45 -0.05 -0.52 2.13z"/>
  <path class="fil0" d="M170.85 97.32c0.79,-1.62 0.37,0.26 0.5,-2 -11.38,-6.44 -16.8,16.11 0.32,11.81 0.16,-2.04 0.37,-4.97 -0.33,-6.44l-2 -0 -0.64 4.53c-3.66,-0.02 -5.59,-1.6 -4.61,-5.62 1.1,-4.48 5.13,-1.78 6.75,-2.29z"/>
  <path class="fil0" d="M321.63 97.04c5.11,-0.02 5.1,3.54 -0.24,3.67l0.24 -3.67zm-0.23 6.17c3.84,-0.05 8,-0.89 6.77,-5.61 -0.95,-3.62 -5.85,-3.3 -9.68,-2.78 -0.04,1.99 -0.42,10.97 0.44,12.65l2 -0.02c0.31,-0.64 0.16,-0.05 0.36,-1.19l0.11 -3.05z"/>
  <path class="fil0" d="M308.7 97.08c1.62,-0.05 2.55,0.18 3.63,0.78l-0.05 1.99c-1.47,0.93 -1.59,0.91 -3.71,0.76l0.13 -3.53zm-0.12 6.3c3.74,-0.59 8.57,-0.75 6.61,-6.31 -1.08,-3.05 -6.35,-2.9 -9.63,-2.09l0.23 12.51 2.58 0.08 0.21 -4.19z"/>
  <path class="fil0" d="M96.93 97.4c4.18,-1.87 4.12,2.27 5.36,-2.27 -3.08,-0.94 -8.07,-1.45 -8.43,2.74 -0.47,5.45 5.9,2.53 5.89,6.95 -1.03,0.34 -1.95,0.34 -3.31,0.23 -2.98,-0.25 -2.1,-0.12 -2.39,0.58 -0.48,2.15 1.66,2.17 3.76,2.15 2.58,-0.02 3.69,-0.41 4.62,-1.91 3.01,-6.4 -5.1,-4.53 -5.51,-8.47z"/>
  <path class="fil0" d="M287.83 95.26c-7.33,-3.52 -11.7,4.05 -5.83,6.5 2.41,1.01 3,0.44 3.38,2.57 -2.76,2.44 -3.84,-0.52 -5.78,1 -1.79,3.08 7.64,3.65 8.71,-0.16 1.66,-5.9 -5.37,-3.93 -5.87,-7.85 1.99,-0.67 2.74,-0.15 4.8,-0.05l0.59 -2z"/>
  <path class="fil0" d="M210.35 97.25c2.4,-1.65 4.55,2.14 5.21,-1.93 -3.19,-1.88 -8.43,-1.18 -8.3,2.99 0.15,5.07 6.15,2.29 5.9,6.33 -3.1,1.7 -3.8,-0.72 -5.68,0.68 -0.37,2.64 1.85,2.58 4.36,2.44 2.32,-0.13 3.84,-0.93 4.35,-2.64 1.71,-5.74 -5.39,-3.91 -5.85,-7.87z"/>
  <path class="fil0" d="M115.32 94.7c-2.9,-0.14 -8.18,-0.57 -10.76,0.34l0.1 2.02 3.82 0.16c-0.05,3.03 -0.67,7.71 0.33,10.24l2.59 -0.01 -0.03 -10.21 3.89 -0.43 0.07 -2.12z"/>
  <path class="fil0" d="M365.62 97.34l3.86 -0.52 0.05 -2.19 -10.68 0.01c0.07,4.16 0.24,1.79 3.87,2.84l0.02 10.01 2.23 0.01 0.78 -2.65c0.04,-0.59 -0.03,-1.86 -0.04,-2.53 -0.02,-1.65 0.01,-3.25 -0.07,-4.99z"/>
  <path class="fil0" d="M235.38 94.73c-1.28,3.05 -0.3,8.89 -0.4,12.6 2.56,0.33 6.27,0.53 8.71,-0.16l-0.11 -2.08 -5.58 -0.24 -0.04 -10.23 -2.57 0.11z"/>
  <path class="fil0" d="M367.79 13.27l0.13 6.42 2.98 -0.01 0.23 -6.42c2.73,-1.46 2.83,1.16 2.73,-2.99l-8.76 -0.07c-0.12,4.04 0.17,1.69 2.69,3.05z"/>
  <path class="fil0" d="M183.44 107.42c0.6,-2.56 0.72,-10.46 -0.09,-12.72l-2.65 -0.04 0.25 12.81 2.49 -0.04z"/>
  <path class="fil0" d="M264.47 100.49l-0.06 -3.25 2.42 0.2c-1.24,-1.04 -0.8,-0.96 -2.66,-0.38 -0.22,0.85 -0.4,0.66 -0.31,1.78 0.25,2.96 -0.05,0.58 0.61,1.65z"/>
 </g>
</svg>
