<svg xmlns="http://www.w3.org/2000/svg" version="1.1" viewBox="-5.0 -10.0 110.0 135.0">
 <g>
  <path fill="#FFFFFF" d="m50 6.25c-24.125 0-43.75 19.625-43.75 43.75s19.625 43.75 43.75 43.75 43.75-19.625 43.75-43.75-19.625-43.75-43.75-43.75zm0 81.25c-20.68 0-37.5-16.82-37.5-37.5s16.82-37.5 37.5-37.5 37.5 16.82 37.5 37.5-16.82 37.5-37.5 37.5z"/>
  <path fill="#FFFFFF" d="m63.414 38.414-16.539 16.539-7.1641-7.1641c-1.2227-1.2227-3.1953-1.2227-4.418 0-1.2227 1.2227-1.2227 3.1953 0 4.418l9.375 9.375c0.60938 0.60938 1.4102 0.91406 2.2109 0.91406 0.80078 0 1.6016-0.30469 2.2109-0.91406l18.75-18.75c1.2227-1.2227 1.2227-3.1953 0-4.418-1.2227-1.2227-3.1953-1.2227-4.418 0z"/>
 </g></svg>