<?xml version="1.0" encoding="UTF-8"?>
<svg width="1200pt" height="1200pt" version="1.1" viewBox="0 0 1200 1200" xmlns="http://www.w3.org/2000/svg">
 <path fill="#224C86" d="m512.57 808.75c55.492 12.492 113.61 13.105 174.6 0l-43.895 73.105h-34.641l34.641 28.613 14.238 177.01h-115.49l13.812-206.73zm87.293-735.89c-13.199 0-26.309 0.96094-39.359 2.707-85.094 9.8672-166.19 48.535-213 101.03-24.375 20.762-37.707 50.492-40.906 87.574v4.375c-0.066406 1.8125 0 3.5586 0 5.2812v89.52l0.066407-0.082032c0 0.97266-0.13281 1.9453-0.13281 2.9336v1.3867c-6.3203-0.49219-12.508 1.0273-17.973 3.8789-16.613 8.7617-20.078 52.293-7.8008 97.293 6.7461 24.867 16.945 44.652 27.508 56.172 3.4141 31.254 11.719 61.32 24.508 89.398 3.5352 7.8398 11.398 12.895 20.066 12.895h97.012c7.3594 12.094 20.559 20.215 35.906 20.215h33.961c23.398 0 42.227-18.828 42.227-42.227 0-23.414-18.828-42.227-42.227-42.227h-33.961c-15.281 0-28.547 8.1211-35.906 20.215h-79.867c-11.105-28.559-19.441-58.348-19.441-89.945v-110.56c6.6016-20.414 17.227-42.559 31.945-60.332 17.16-20.691 39.105-35.066 66.121-35.066h215.35c39.094 0 62.84-8.7461 78.055-18.691 7.5469-4.9219 12.988-10.199 17.012-14.508 2-2.2266 2.6914-2.8398 4.0938-4.375 7.6406 28.121 22.359 48.199 39.586 66.535 17.266 18.387 35.055 38.066 46.453 71.719v105.28c0 89.105-47.441 171.25-124.59 215.84-77.16 44.52-172.15 44.52-249.29 0-23.895-13.828-44.961-31.172-62.652-51.32-19.32-22.012-52.441 7-33.055 29.027 10.414 11.879 21.801 22.922 34.105 32.988 1.1719 1.0547 2.5586 1.8789 3.7617 2.8398h-68.559c-26.52 0-53.734 6.9453-79.852 19.375-6.5352 3.0664-12.973 6.5352-19.387 10.281-19.094 11.254-37.215 25.426-53.746 41.812-43.961 43.746-76.172 104.72-76.172 173.27l-0.007812 139.71c0 1.3477 0.12109 2.6523 0.41406 3.8945 0 0.13281 0 0.21484 0.066407 0.28125 0.48047 2.375 1.4531 4.5859 2.707 6.6016 0.066406 0.066406 0.14844 0.21484 0.21484 0.26562h0.066406c0.55859 0.90625 1.2383 1.7461 1.9336 2.5078 0.22656 0.13281 0.35938 0.34766 0.50781 0.48047 0.83984 0.76172 1.6523 1.4531 2.5586 2.1055 0.13281 0.054687 0.21484 0.12109 0.28125 0.1875 0.90625 0.625 1.8672 1.1211 2.9219 1.6016 0.21484 0.078124 0.33203 0.14844 0.55859 0.22656 0.90625 0.39844 1.8789 0.69141 2.9219 0.97266 0.28125 0.054688 0.54688 0.054688 0.83984 0.12109 1.1875 0.28125 2.4258 0.35938 3.6133 0.35938h921.12c2.5586 0 5.2148-0.48047 7.5742-1.5352h0.054688c1.1875-0.49219 2.293-1.1211 3.332-1.8789h0.066406c0.83984-0.625 1.668-1.2539 2.4414-2.0117 0.19922-0.13281 0.33203-0.33203 0.54688-0.48047 0.83984-0.83984 1.5352-1.7461 2.1484-2.707 0.625-0.97266 1.1719-1.9609 1.6797-2.9336 0.066407-0.19922 0.12109-0.41406 0.26563-0.625 0.97266-2.3594 1.4531-4.8516 1.4531-7.4414l-0.007812-139.7c0-69.652-38.547-130.62-87.988-174.03-49.508-43.414-110.13-70.707-163.2-70.707h-46.52c61.039-48.465 100.36-119.43 108.96-197.21 10.707-11.465 21.121-31.465 27.973-56.668 12.309-45 8.8281-88.547-7.6914-97.293-5.4258-2.7734-11.465-4.3086-17.641-3.8789 1.6523-199.31-26.812-213.4-114.45-234.93-44.906-37.984-101.21-55.969-159.21-59.023-6.7344-0.49219-13.559-0.76172-20.359-0.76172z"/>
</svg>
