<?xml version="1.0" encoding="UTF-8"?>
<svg width="1200pt" height="1200pt" version="1.1" viewBox="0 0 1200 1200" xmlns="http://www.w3.org/2000/svg">
 <g>
  <path fill="#224C86" d="m60.055 59.324c-13.59-13.59-13.59-35.551 0-49.141 13.59-13.59 35.551-13.59 49.141 0l565.3 565.23c13.555 13.59 13.52 35.551-0.070313 49.141-13.59 13.59-35.551 13.59-49.105 0.070312z"/>
  <path fill="#224C86" d="m109.3 1189.9c-13.59 13.59-35.586 13.52-49.176-0.070312-13.555-13.59-13.59-35.551 0-49.141l565.26-565.3c13.555-13.52 35.551-13.52 49.105 0.070312 13.59 13.59 13.625 35.551 0.070312 49.141z"/>
  <path fill="#224C86" d="m525.51 59.324c-13.59-13.59-13.59-35.551 0-49.141 13.59-13.59 35.551-13.59 49.141 0l565.3 565.23c13.555 13.59 13.52 35.551-0.070312 49.141-13.59 13.59-35.551 13.59-49.105 0.070312z"/>
  <path fill="#224C86" d="m574.75 1189.9c-13.59 13.59-35.586 13.52-49.176-0.070312-13.555-13.59-13.59-35.551 0-49.141l565.27-565.3c13.555-13.52 35.551-13.52 49.105 0.070312 13.59 13.59 13.625 35.551 0.070313 49.141z"/>
 </g>
</svg>
