<?xml version="1.0" encoding="UTF-8"?>
<svg width="1200pt" height="1200pt" version="1.1" viewBox="0 0 1200 1200" xmlns="http://www.w3.org/2000/svg">
 <g>
  <path fill="#f8452d" d="m676.24 327.73c50.043 0.46484 138.48 6.3281 131.26 75.906-3.8633 24.824-198.86 3.0391-177.3 7.4219 0 0 15.793 5.25 108.39 5.4805 327.93 0.81641 435.26-2.4883 434.28 61.32-0.91797 59.496-101.72 55.184-332.47 57.594-20.383 0.21484-21.43 0-51.102 9.6133 10.59 13.969 23.16 30.801 24.109 48.305 0.49609 22.305-13.527 44.016-27.879 61.098 13.824 36.824 2.8789 78.359-27.289 103.59 4.5469 29.488 10.906 74.656-46.344 99.602-19.824 8.457-49.703 14.75-71.254 14.52l-168.07 0.082031c-29.008 0-57.469-10.02-82.344-24.953l-55.664-5.9609v-377.42c28.082-11.625 54.352-26.961 82.57-38.297 23.176-11.41 99.793-95.711 228.8-97.555 15.629-0.28516 5.5273-0.13281 30.309-0.34375z"/>
  <path fill="#f8452d" d="m289.46 416.14c16.422 1.0547 20.879 4.1992 26.406 19.129v409.83c-0.64062 20.117-13.91 24.695-31.109 25.656h-232.06c-22.543-0.050781-25.52-8.9062-25.559-31.449v-391.72c0.039062-22.547 4.9766-31.41 27.52-31.449z"/>
 </g>
</svg>
