<?xml version="1.0" encoding="UTF-8"?>
<svg width="1200pt" height="1200pt" version="1.1" viewBox="0 0 1200 1200" xmlns="http://www.w3.org/2000/svg">
 <g>
  <path fill="#000000" d="m653.83 570.17c-61.371 0-111.26-49.887-111.26-111.26 0-61.371 49.887-111.26 111.26-111.26s111.26 49.887 111.26 111.26c0 61.371-49.887 111.26-111.26 111.26zm0-196.8c-47.145 0-85.543 38.398-85.543 85.543 0 47.145 38.398 85.543 85.543 85.543s85.543-38.398 85.543-85.543c0-47.145-38.398-85.543-85.543-85.543z"/>
  <path fill="#000000" d="m883.2 598.11c-61.371 0-111.26-49.887-111.26-111.26 0-61.371 49.887-111.26 111.26-111.26 61.371 0 111.26 49.887 111.26 111.26 0 61.375-49.887 111.26-111.26 111.26zm0-196.8c-47.145 0-85.543 38.398-85.543 85.543s38.398 85.543 85.543 85.543 85.543-38.398 85.543-85.543c0-47.141-38.398-85.543-85.543-85.543z"/>
  <path fill="#000000" d="m769.03 842.91c-7.0273 0-12.855-5.8281-12.855-12.855v-133.2c0-53.484 43.543-97.199 97.199-97.199h104.57c7.0273 0 12.855 5.8281 12.855 12.855s-5.8281 12.855-12.855 12.855h-104.57c-39.43 0-71.484 32.059-71.484 71.484v133.2c0 7.0312-5.8281 12.859-12.859 12.859z"/>
  <path fill="#000000" d="m731.48 961.03c-9.9414 0-20.23-1.7148-30.855-5.3125-66.344-21.941-129.43-48.855-172.46-135.6-17.828-36.172-27.43-78.172-27.43-121.54 0-63.77 51.941-115.71 115.71-115.71h81.086c14.57 0 28.457 1.7148 40.801 5.1445 30 8.0586 53.484 20.57 70.801 30.516 6.1719 3.6016 8.2305 11.484 4.8008 17.484-3.6016 6.1719-11.484 8.2305-17.484 4.8008-15.941-9.0859-37.543-20.57-64.629-27.941-10.285-2.7422-21.77-4.1133-34.113-4.1133h-81.086c-49.543 0-90 40.285-90 90 0 39.43 8.5703 77.484 24.688 110.06 38.57 77.828 96.516 102.52 157.37 122.57 9.4297 3.0859 18.344 4.457 26.398 3.9414 16.285-1.0273 25.543-7.543 28.629-20.059 1.8867-7.543 0.51562-15.602-3.9414-22.629-5.1445-8.0586-13.543-13.887-22.973-15.77-48.855-9.9414-94.973-25.715-123.94-110.91-2.2305-6.6875 1.3711-14.059 8.0586-16.285 6.6875-2.2305 14.059 1.3711 16.285 8.0586 24.688 72.516 60.516 85.027 104.74 93.941 16.285 3.2578 30.855 13.199 39.602 27.258 8.2305 13.027 10.801 28.113 7.1992 42.516-3.4297 13.715-14.742 37.027-51.941 39.43-1.8945-0.007812-3.6094 0.16406-5.3242 0.16406z"/>
  <path fill="#000000" d="m545.66 965.31c-7.0273 0-12.855-5.8281-12.855-12.855v-126.69c0-7.0273 5.8281-12.855 12.855-12.855s12.855 5.8281 12.855 12.855v126.69c0.003906 7.0273-5.8242 12.855-12.855 12.855z"/>
  <path fill="#000000" d="m793.03 888.17c-6.6875 0-12.344-5.1445-12.855-11.828-0.51562-7.0273 4.8008-13.199 11.828-13.715 68.57-5.1445 106.46-34.113 122.57-93.941 1.8867-6.8555 8.9141-10.973 15.77-9.0859 6.8555 1.8867 10.973 8.9141 9.0859 15.77-18.855 69.941-66.516 106.97-145.54 112.8h-0.85547z"/>
  <path fill="#000000" d="m1011.3 719.66c-7.7148 0-15.602-1.3711-23.145-4.2852l-5.1445-1.8867c-33.77-12.688-50.914-50.57-38.23-84.344l9.0859-24.172c5.3125-14.059 20.914-21.086 34.973-15.77l76.973 28.973c14.059 5.3125 21.086 20.914 15.77 34.973l-9.0859 24.172c-6.1719 16.285-18.344 29.312-34.285 36.516-8.5664 3.9375-17.652 5.8242-26.91 5.8242zm-14.059-28.285c9.9414 3.7695 20.742 3.4297 30.344-1.0273 9.6016-4.457 17.145-12.344 20.742-22.285l9.0859-24.172c0.34375-0.6875-0.17188-1.543-0.85547-1.7148l-76.973-28.973c-0.6875-0.34375-1.543 0.17188-1.7148 0.85547l-9.0859 24.172c-3.7695 9.9414-3.4297 20.742 1.0273 30.344 4.457 9.6016 12.344 17.145 22.285 20.742z"/>
  <path fill="#000000" d="m811.2 955.2c-4.1133 0-8.3984-0.17188-12.516-0.34375-7.0273-0.34375-12.516-6.5156-12.172-13.543s6.5156-12.516 13.543-12.172c56.23 2.9141 109.54-16.629 150.17-55.199 44.398-42.172 68.914-103.2 68.914-171.6 0-7.0273 5.8281-12.855 12.855-12.855s12.855 5.8281 12.855 12.855c0 75.602-27.43 143.14-76.973 190.29-42.852 40.633-98.051 62.574-156.68 62.574z"/>
  <path fill="#000000" d="m981.6 965.31c-7.0273 0-12.855-5.8281-12.855-12.855v-94.113c0-7.0273 5.8281-12.855 12.855-12.855 7.0273 0 12.855 5.8281 12.855 12.855v94.113c0 7.0273-5.6562 12.855-12.855 12.855z"/>
  <path fill="#000000" d="m500.74 871.2h-317.14c-7.0273 0-12.855-5.8281-12.855-12.855s5.8281-12.855 12.855-12.855h317.14c7.0273 0 12.855 5.8281 12.855 12.855 0.003906 7.0273-5.6562 12.855-12.855 12.855z"/>
  <path fill="#000000" d="m183.6 598.11c-3.9414 0-7.8867-1.8867-10.457-5.3125l-54.172-74.57c-2.0586-2.7422-2.9141-6.1719-2.2305-9.6016 0.51562-3.4297 2.3984-6.3438 5.1445-8.3984l127.71-92.059v-106.46c0-7.0273 5.8281-12.855 12.855-12.855h111.43c7.0273 0 12.855 5.8281 12.855 12.855v4.2852l106.97-69.258c4.457-2.9141 10.113-2.7422 14.398 0.34375l105.26 74.23c5.8281 4.1133 7.1992 12.172 3.0859 18s-12.172 7.1992-18 3.0859l-97.887-69.258-119.66 77.312c-3.9414 2.5703-8.9141 2.7422-13.199 0.51562-4.1133-2.2305-6.6875-6.5156-6.6875-11.312v-14.914h-85.715v100.11c0 4.1133-2.0586 8.0586-5.3125 10.457l-122.57 88.285 39.086 53.828 306.86-217.2c4.1133-2.9141 9.6016-3.0859 13.887-0.51562l34.113 20.059c6.1719 3.6016 8.2305 11.484 4.457 17.656-3.6016 6.1719-11.484 8.2305-17.656 4.457l-26.914-15.941-310.29 219.77c-2.2305 1.543-4.8008 2.3984-7.3711 2.3984z"/>
  <path fill="#000000" d="m214.63 871.2c-7.0273 0-12.855-5.8281-12.855-12.855l-0.003907-295.03c0-7.0273 5.8281-12.855 12.855-12.855s12.855 5.8281 12.855 12.855v295.03c0.003906 7.0312-5.8242 12.859-12.852 12.859z"/>
  <path fill="#000000" d="m461.48 668.57h-119.31c-7.0273 0-12.855-5.8281-12.855-12.855v-119.31c0-7.0273 5.8281-12.855 12.855-12.855h119.31c7.0273 0 12.855 5.8281 12.855 12.855v119.31c0.003906 7.0273-5.8242 12.855-12.855 12.855zm-106.46-25.715h93.602v-93.602h-93.602z"/>
 </g>
</svg>
