<?xml version="1.0" encoding="UTF-8"?>
<svg width="1200pt" height="1200pt" version="1.1" viewBox="0 0 1200 1200" xmlns="http://www.w3.org/2000/svg">
 <g>
  <path fill="#ED1D24" d="m662.07 662.07c0-22.816-18.562-41.379-41.379-41.379h-41.383v82.758h41.383c22.812 0 41.379-18.566 41.379-41.379z"/>
  <path fill="#ED1D24" d="m868.96 827.59h82.758v41.379h-82.758z"/>
  <path fill="#ED1D24" d="m620.69 1075.9h82.758v41.379h-82.758z"/>
  <path fill="#ED1D24" d="m620.69 993.1h82.758v41.379h-82.758z"/>
  <path fill="#ED1D24" d="m868.96 744.83h82.758v41.379h-82.758z"/>
  <path fill="#ED1D24" d="m496.55 993.1h82.758v41.379h-82.758z"/>
  <path fill="#ED1D24" d="m620.69 744.83h82.758v41.379h-82.758z"/>
  <path fill="#ED1D24" d="m620.69 827.59h82.758v41.379h-82.758z"/>
  <path fill="#ED1D24" d="m620.69 910.34h82.758v41.379h-82.758z"/>
  <path fill="#ED1D24" d="m868.96 910.34h82.758v41.379h-82.758z"/>
  <path fill="#ED1D24" d="m703.45 351.72v-103.45h-206.9v103.45c0 34.227 27.844 62.07 62.07 62.07h82.758c34.223-0.003906 62.07-27.848 62.07-62.074z"/>
  <path fill="#ED1D24" d="m475.86 206.9h351.73 0.027344l-0.03125-41.383h-455.17v41.379h82.758z"/>
  <path fill="#ED1D24" d="m744.83 331.04c22.816 0 41.379-18.562 41.379-41.379s-18.562-41.379-41.379-41.379z"/>
  <path fill="#ED1D24" d="m496.55 1075.9h82.758v41.379h-82.758z"/>
  <path fill="#ED1D24" d="m641.38 0h-82.758c-72.832 0-133.25 54.051-143.32 124.14h369.41c-10.074-70.086-70.496-124.14-143.33-124.14z"/>
  <path fill="#ED1D24" d="m558.62 468.85 41.379 40.227 41.379-40.227v-13.676h-82.758z"/>
  <path fill="#ED1D24" d="m868.96 993.1h82.758v41.379h-82.758z"/>
  <path fill="#ED1D24" d="m868.96 1075.9h82.758v41.379h-82.758z"/>
  <path fill="#ED1D24" d="m342.11 703.45h195.82v-82.758h-89.859c-16.582 0-32.168 6.457-43.891 18.18l-17.141 17.141-29.262-29.262 17.141-17.141c19.543-19.539 45.523-30.301 73.156-30.301h303.86c27.633 0 53.609 10.762 73.152 30.301l17.141 17.141-29.262 29.262-17.141-17.141c-11.723-11.723-27.309-18.18-43.891-18.18h-59.613c7.0664 12.184 11.133 26.312 11.133 41.379 0 15.066-4.0664 29.195-11.133 41.379h165.57c28.922 0 52.457-23.535 52.457-52.461 0-14.012-5.457-27.188-15.363-37.094-60.879-60.879-140.75-101.28-225.77-114.39l-69.211 67.289-69.207-67.285c-85.023 13.113-164.89 53.516-225.77 114.39-9.9062 9.9062-15.363 23.082-15.363 37.094-0.003906 28.922 23.531 52.457 52.453 52.457z"/>
  <path fill="#ED1D24" d="m455.17 331.04v-82.758c-22.816 0-41.379 18.562-41.379 41.379 0 22.812 18.562 41.379 41.379 41.379z"/>
  <path fill="#ED1D24" d="m993.1 827.59h82.758v41.379h-82.758z"/>
  <path fill="#ED1D24" d="m124.14 827.59h82.758v41.379h-82.758z"/>
  <path fill="#ED1D24" d="m124.14 744.83h82.758v41.379h-82.758z"/>
  <path fill="#ED1D24" d="m124.14 910.34h82.758v41.379h-82.758z"/>
  <path fill="#ED1D24" d="m993.1 910.34h82.758v41.379h-82.758z"/>
  <path fill="#ED1D24" d="m993.1 744.83h82.758v41.379h-82.758z"/>
  <path fill="#ED1D24" d="m993.1 1075.9h82.758v41.379h-82.758z"/>
  <path fill="#ED1D24" d="m993.1 993.1h82.758v41.379h-82.758z"/>
  <path fill="#ED1D24" d="m124.14 1075.9h82.758v41.379h-82.758z"/>
  <path fill="#ED1D24" d="m496.55 827.59h82.758v41.379h-82.758z"/>
  <path fill="#ED1D24" d="m248.28 993.1h82.758v41.379h-82.758z"/>
  <path fill="#ED1D24" d="m496.55 744.83h82.758v41.379h-82.758z"/>
  <path fill="#ED1D24" d="m124.14 993.1h82.758v41.379h-82.758z"/>
  <path fill="#ED1D24" d="m248.28 1075.9h82.758v41.379h-82.758z"/>
  <path fill="#ED1D24" d="m496.55 910.34h82.758v41.379h-82.758z"/>
  <path fill="#ED1D24" d="m248.28 744.83h82.758v41.379h-82.758z"/>
  <path fill="#ED1D24" d="m248.28 910.34h82.758v41.379h-82.758z"/>
  <path fill="#ED1D24" d="m1137.9 662.07h-186.88c-1.7969 15.191-7.2109 29.289-15.395 41.379h181.59v455.17h-289.66v-413.79h-82.758v413.79h-289.66v-413.79h-82.758v413.79h-289.66v-455.17h181.59c-8.1836-12.09-13.598-26.188-15.395-41.379h-186.88c-34.223 0-62.07 27.844-62.07 62.07v413.79c0 34.223 27.844 62.07 62.07 62.07h1075.9c34.223 0 62.07-27.844 62.07-62.07l-0.003906-413.8c0-34.223-27.844-62.066-62.07-62.066z"/>
  <path fill="#ED1D24" d="m248.28 827.59h82.758v41.379h-82.758z"/>
 </g>
</svg>
