<?xml version="1.0" encoding="UTF-8"?>
<svg width="1200pt" height="1200pt" version="1.1" viewBox="0 0 1200 1200" xmlns="http://www.w3.org/2000/svg">
 <g>
  <path fill="#FFFFFF" d="m64.801 559.2h78v-181.2h106.8v181.2h289.2v-256.8h-474zm264-169.2h133.2v74.398h-133.2z"/>
  <path fill="#FFFFFF" d="m123.6 102-90 188.4h536.4l-90-188.4zm-26.402 162 27.602-72 7.1992-20.398 21.602-55.199h296.4l21.602 55.199 7.1992 20.398 27.602 72z"/>
  <path fill="#FFFFFF" d="m111.6 254.4h56.398l10.801-62.398h-43.199z"/>
  <path fill="#FFFFFF" d="m202.8 171.6h50.398l3.6016-44.402h-45.602z"/>
  <path fill="#FFFFFF" d="m424.8 192 10.801 62.398h56.398l-24-62.398z"/>
  <path fill="#FFFFFF" d="m160.8 127.2-18 44.402h39.598l8.4023-44.402z"/>
  <path fill="#FFFFFF" d="m188.4 254.4h58.801l4.8008-62.398h-52.801z"/>
  <path fill="#FFFFFF" d="m271.2 192-3.5977 62.398h68.398l-3.6016-62.398z"/>
  <path fill="#FFFFFF" d="m351.6 192 4.7969 62.398h58.801l-10.801-62.398z"/>
  <path fill="#FFFFFF" d="m442.8 127.2h-30l8.3984 44.402h39.602z"/>
  <path fill="#FFFFFF" d="m392.4 127.2h-45.598l3.5977 44.402h50.402z"/>
  <path fill="#FFFFFF" d="m327.6 127.2h-51.602l-2.3984 44.402h56.398z"/>
  <path fill="#FFFFFF" d="m663.6 559.2h78v-181.2h106.8v181.2h289.2v-256.8h-474zm264-169.2h133.2v74.398h-133.2z"/>
  <path fill="#FFFFFF" d="m1078.8 102h-357.6l-90 187.2h536.4zm-356.4 90 7.1992-20.398 21.602-55.199h296.4l21.602 55.199 7.1992 20.398 27.602 72h-409.2z"/>
  <path fill="#FFFFFF" d="m709.2 254.4h56.402l12-62.398h-44.402z"/>
  <path fill="#FFFFFF" d="m801.6 171.6h49.199l3.5977-44.402h-45.598z"/>
  <path fill="#FFFFFF" d="m1066.8 192h-44.402l12 62.398h56.402z"/>
  <path fill="#FFFFFF" d="m758.4 127.2-16.797 44.402h39.598l7.1992-44.402z"/>
  <path fill="#FFFFFF" d="m786 254.4h60l3.6016-62.398h-51.602z"/>
  <path fill="#FFFFFF" d="m870 192-4.8008 62.398h69.602l-4.8008-62.398z"/>
  <path fill="#FFFFFF" d="m950.4 192 3.6016 62.398h60l-12-62.398z"/>
  <path fill="#FFFFFF" d="m1041.6 127.2h-30l7.1992 44.402h39.598z"/>
  <path fill="#FFFFFF" d="m991.2 127.2h-45.598l3.5977 44.402h49.199z"/>
  <path fill="#FFFFFF" d="m925.2 127.2h-50.398l-3.6016 44.402h57.602z"/>
  <path fill="#FFFFFF" d="m64.801 1058.4h78v-181.2h106.8v181.2h289.2v-258h-474zm264-170.4h133.2v74.398h-133.2z"/>
  <path fill="#FFFFFF" d="m123.6 601.2-90 187.2h536.4l-90-187.2zm-26.402 160.8 27.602-72 7.1992-20.398 21.602-55.199h296.4l21.602 55.199 7.1992 20.398 27.602 72z"/>
  <path fill="#FFFFFF" d="m111.6 752.4h56.398l10.801-62.398h-43.199z"/>
  <path fill="#FFFFFF" d="m202.8 669.6h50.398l3.6016-44.402h-45.602z"/>
  <path fill="#FFFFFF" d="m424.8 690 10.801 62.398h56.398l-24-62.398z"/>
  <path fill="#FFFFFF" d="m160.8 625.2-18 44.402h39.598l8.4023-44.402z"/>
  <path fill="#FFFFFF" d="m188.4 752.4h58.801l4.8008-62.398h-52.801z"/>
  <path fill="#FFFFFF" d="m271.2 690-3.5977 62.398h68.398l-3.6016-62.398z"/>
  <path fill="#FFFFFF" d="m351.6 690 4.7969 62.398h58.801l-10.801-62.398z"/>
  <path fill="#FFFFFF" d="m442.8 625.2h-30l8.3984 44.402h39.602z"/>
  <path fill="#FFFFFF" d="m392.4 625.2h-45.598l3.5977 44.402h50.402z"/>
  <path fill="#FFFFFF" d="m327.6 625.2h-51.602l-2.3984 44.402h56.398z"/>
  <path fill="#FFFFFF" d="m663.6 1058.4h78v-181.2h106.8v181.2h289.2v-258h-474zm264-170.4h133.2v74.398h-133.2z"/>
  <path fill="#FFFFFF" d="m1078.8 601.2h-357.6l-90 187.2h536.4zm-356.4 88.801 7.1992-20.398 21.602-55.199h296.4l21.602 55.199 7.1992 20.398 27.602 72h-409.2z"/>
  <path fill="#FFFFFF" d="m709.2 752.4h56.402l12-62.398h-44.402z"/>
  <path fill="#FFFFFF" d="m801.6 669.6h49.199l3.5977-44.402h-45.598z"/>
  <path fill="#FFFFFF" d="m1066.8 690h-44.402l12 62.398h56.402z"/>
  <path fill="#FFFFFF" d="m758.4 625.2-16.797 44.402h39.598l7.1992-44.402z"/>
  <path fill="#FFFFFF" d="m786 752.4h60l3.6016-62.398h-51.602z"/>
  <path fill="#FFFFFF" d="m870 690-4.8008 62.398h69.602l-4.8008-62.398z"/>
  <path fill="#FFFFFF" d="m950.4 690 3.6016 62.398h60l-12-62.398z"/>
  <path fill="#FFFFFF" d="m1041.6 625.2h-30l7.1992 44.402h39.598z"/>
  <path fill="#FFFFFF" d="m991.2 625.2h-45.598l3.5977 44.402h49.199z"/>
  <path fill="#FFFFFF" d="m925.2 625.2h-50.398l-3.6016 44.402h57.602z"/>
 </g>
</svg>
