<?xml version="1.0" encoding="UTF-8"?>
<svg width="1200pt" height="1200pt" version="1.1" viewBox="0 0 1200 1200" xmlns="http://www.w3.org/2000/svg">
 <path fill="#FFFFFF" d="m1145.3 586.95v462.26c0.019531 20.074-7.9219 39.336-22.078 53.566-14.156 14.23-33.375 22.27-53.449 22.359h-939.55c-20.074-0.089844-39.293-8.1289-53.449-22.359-14.156-14.23-22.098-33.492-22.078-53.566v-462.26l442.89 191.39v37.566h-0.003907c0.023438 17.402 6.9492 34.086 19.254 46.391 12.305 12.305 28.988 19.23 46.391 19.254h73.551-0.003906c17.402-0.023437 34.086-6.9492 46.391-19.254 12.305-12.305 19.23-28.988 19.254-46.391v-37.566zm-588.4 228.96c-0.023438 1.6836 0.63672 3.3086 1.8281 4.5 1.1914 1.1914 2.8125 1.8477 4.5 1.8281h73.551-0.003906c1.6875 0.019531 3.3086-0.63672 4.5-1.8281 1.1914-1.1914 1.8516-2.8164 1.8281-4.5 0.003907-11.965-0.003906-62.648 0-73.551 0.15625-1.7227-0.45703-3.4219-1.6797-4.6445-1.2227-1.2227-2.9258-1.8398-4.6484-1.6836h-73.547c-10.043-0.72656-5.2969 17.039-6.3281 22.539zm512.88-495.48c-158.46-0.019532-486.42 0.015624-646.14 0h-293.41c-20.074 0.085937-39.293 8.125-53.449 22.355-14.156 14.23-22.098 33.492-22.078 53.566 0.023437 0.39844-0.015625 125.78 0 126.14l448.42 193.37h-0.003906c5.0156-11.746 13.406-21.734 24.109-28.707 10.699-6.9688 23.23-10.602 36-10.441h73.551-0.003906c12.77-0.16016 25.301 3.4727 36 10.441 10.703 6.9727 19.094 16.961 24.109 28.707l448.42-193.76-0.003907-125.75c0.019531-20.074-7.9219-39.336-22.078-53.566-14.156-14.23-33.375-22.27-53.449-22.355zm-323.07-157.78v98.461h59.316l-0.003907-98.461c0.007813-23.219-9.1836-45.492-25.562-61.945-16.379-16.453-38.609-25.746-61.828-25.844h-237.26c-23.219 0.097657-45.449 9.3906-61.828 25.844-16.379 16.453-25.57 38.727-25.562 61.945v98.461h59.316l-0.003906-98.461c-0.050781-7.5 2.875-14.715 8.1406-20.055s12.438-8.3672 19.938-8.418h237.26-0.003906c7.5 0.050781 14.672 3.0781 19.938 8.418s8.1914 12.555 8.1406 20.055z"/>
</svg>
