<?xml version="1.0" encoding="UTF-8"?>
<svg width="1200pt" height="1200pt" version="1.1" viewBox="0 0 1200 1200" xmlns="http://www.w3.org/2000/svg">
 <g>
  <path fill="#224C86" d="m262.65 827.36c0.64062 5.0312 3.293 9.5938 7.3516 12.637l65.324 48.992-34.875 156.94c-1.2344 5.5586 0.11719 11.375 3.6797 15.812s8.9453 7.0195 14.637 7.0156c5.6914-0.003906 11.074-2.5938 14.629-7.0391l150-187.5c3.1719-3.9648 4.6016-9.043 3.9609-14.078s-3.293-9.5977-7.3555-12.641l-65.324-48.992 34.875-156.94c1.2344-5.5586-0.11719-11.375-3.6797-15.812s-8.9453-7.0195-14.637-7.0156c-5.6914 0.003906-11.074 2.5938-14.629 7.0391l-150 187.5c-3.168 3.9648-4.5977 9.0469-3.957 14.082zm132.77-115.07-19.969 89.887c-0.78125 3.5195-0.53516 7.1914 0.71875 10.574 1.25 3.3828 3.4492 6.332 6.332 8.4961l59.531 44.645-87.449 109.31 19.969-89.887c0.78125-3.5195 0.53516-7.1914-0.71875-10.574-1.25-3.3828-3.4492-6.332-6.332-8.4961l-59.531-44.645z"/>
  <path fill="#224C86" d="m499.71 323.27c-3.5859-3.0742-8.2031-4.6836-12.922-4.5039-4.7227 0.17969-9.1992 2.1367-12.543 5.4766l-56.25 56.25c-3.6914 3.6953-5.6758 8.7578-5.4766 13.973 0.19922 5.2188 2.5664 10.117 6.5273 13.516l25.012 21.395-29.68 29.699-15-12.863c-6.7773-5.8359-15.43-9.0469-24.375-9.0469s-17.598 3.2109-24.375 9.0469l-243.75 208.93c-8.3242 7.1211-13.121 17.523-13.125 28.48v441.38c0 4.9727 1.9766 9.7422 5.4922 13.258 3.5156 3.5156 8.2852 5.4922 13.258 5.4922h525c4.9727 0 9.7422-1.9766 13.258-5.4922 3.5156-3.5156 5.4922-8.2852 5.4922-13.258v-441.38c-0.003906-10.957-4.8008-21.359-13.125-28.48l-18.469-15.824 29.719-29.645 27.188 23.305c3.5859 3.0742 8.2031 4.6836 12.922 4.5039 4.7227-0.17969 9.1992-2.1367 12.539-5.4766l56.25-56.25c3.6914-3.6953 5.6797-8.7578 5.4805-13.973-0.19922-5.2188-2.5664-10.117-6.5273-13.516zm39.883 138.75 29.664-29.664 72.414 62.062-29.668 29.57zm-51.113-98.887 52.219 44.758-29.645 29.547-52.219-44.758zm130.27 743.12h-487.5v-422.64l243.75-208.93 243.75 208.95zm-22.613-491.4-153.19-131.25 29.664-29.645 153.19 131.25zm96.637-21.637-52.219-44.758 29.645-29.645 52.219 44.758z"/>
  <path fill="#224C86" d="m862.5 281.25c29.836 0 58.453-11.852 79.551-32.949 21.098-21.098 32.949-49.715 32.949-79.551s-11.852-58.453-32.949-79.551c-21.098-21.098-49.715-32.949-79.551-32.949s-58.453 11.852-79.551 32.949c-21.098 21.098-32.949 49.715-32.949 79.551 0.03125 29.828 11.891 58.426 32.984 79.516 21.09 21.094 49.688 32.953 79.516 32.984zm0-187.5c19.891 0 38.969 7.9023 53.031 21.969 14.066 14.062 21.969 33.141 21.969 53.031s-7.9023 38.969-21.969 53.031c-14.062 14.066-33.141 21.969-53.031 21.969s-38.969-7.9023-53.031-21.969c-14.066-14.062-21.969-33.141-21.969-53.031s7.9023-38.969 21.969-53.031c14.062-14.066 33.141-21.969 53.031-21.969z"/>
  <path fill="#224C86" d="m637.5 187.5h56.25c6.6992 0 12.887-3.5742 16.238-9.375 3.3477-5.8008 3.3477-12.949 0-18.75-3.3516-5.8008-9.5391-9.375-16.238-9.375h-56.25c-6.6992 0-12.887 3.5742-16.238 9.375-3.3477 5.8008-3.3477 12.949 0 18.75 3.3516 5.8008 9.5391 9.375 16.238 9.375z"/>
  <path fill="#224C86" d="m618.96 328.12c3.2891 0 6.5234-0.86719 9.375-2.5117l97.5-56.25c5.7539-3.375 9.2812-9.5469 9.2656-16.219-0.015625-6.668-3.5703-12.828-9.3398-16.176-5.7656-3.3477-12.879-3.3789-18.676-0.082031l-97.5 56.25c-4.8008 2.7734-8.1289 7.5234-9.0898 12.984-0.96094 5.457 0.53906 11.059 4.1016 15.305 3.5625 4.2461 8.8203 6.6992 14.363 6.6992z"/>
  <path fill="#224C86" d="m787.5 298.65c-4.3047-2.4844-9.4258-3.1602-14.227-1.8711-4.8047 1.2852-8.8984 4.4297-11.387 8.7344l-56.25 97.5c-2.5234 4.3086-3.2266 9.4492-1.9492 14.277 1.2734 4.8281 4.4258 8.9453 8.75 11.445 4.3242 2.4961 9.4688 3.1641 14.289 1.8555 4.8203-1.3086 8.918-4.4844 11.387-8.8281l56.25-97.5c2.4844-4.3047 3.1602-9.4219 1.8711-14.227-1.2852-4.8047-4.4297-8.8984-8.7344-11.387z"/>
  <path fill="#224C86" d="m1087.5 150h-56.25c-6.6992 0-12.887 3.5742-16.238 9.375-3.3477 5.8008-3.3477 12.949 0 18.75 3.3516 5.8008 9.5391 9.375 16.238 9.375h56.25c6.6992 0 12.887-3.5742 16.238-9.375 3.3477-5.8008 3.3477-12.949 0-18.75-3.3516-5.8008-9.5391-9.375-16.238-9.375z"/>
  <path fill="#224C86" d="m1066.7 265.01-48.75-28.125c-4.3086-2.5234-9.4492-3.2266-14.277-1.9492-4.8281 1.2734-8.9492 4.4258-11.445 8.75s-3.1641 9.4688-1.8555 14.289c1.3086 4.8203 4.4844 8.918 8.8281 11.387l48.75 28.125c5.7969 3.2969 12.906 3.2656 18.676-0.082031 5.7695-3.3477 9.3242-9.5078 9.3398-16.176 0.015624-6.6719-3.5156-12.844-9.2656-16.219z"/>
  <path fill="#224C86" d="m963.11 305.51c-2.4688-4.3398-6.5664-7.5195-11.387-8.8281-4.8203-1.3086-9.9648-0.64062-14.289 1.8594-4.3242 2.4961-7.4766 6.6172-8.75 11.445-1.2773 4.8281-0.57422 9.9648 1.9492 14.273l28.125 48.75c3.375 5.7539 9.5469 9.2812 16.219 9.2695 6.668-0.015625 12.828-3.5742 16.176-9.3398 3.3477-5.7695 3.3789-12.883 0.082031-18.68z"/>
  <path fill="#224C86" d="m862.5 318.75c-4.9727 0-9.7422 1.9766-13.258 5.4922-3.5156 3.5156-5.4922 8.2852-5.4922 13.258v56.25c0 6.6992 3.5742 12.887 9.375 16.238 5.8008 3.3477 12.949 3.3477 18.75 0 5.8008-3.3516 9.375-9.5391 9.375-16.238v-56.25c0-4.9727-1.9766-9.7422-5.4922-13.258-3.5156-3.5156-8.2852-5.4922-13.258-5.4922z"/>
 </g>
</svg>
