<?xml version="1.0" encoding="UTF-8"?>
<svg width="1200pt" height="1200pt" version="1.1" viewBox="0 0 1200 1200" xmlns="http://www.w3.org/2000/svg">
 <g>
  <path fill="#224C86" d="m487.5 574.69c-133.12 0-241.88 108.75-241.88 241.88s108.75 242.81 241.88 242.81 241.88-108.75 241.88-241.88-108.75-242.81-241.88-242.81zm0 443.44c-110.62 0-200.62-90-200.62-201.56s90-200.62 200.62-200.62 200.62 90 200.62 201.56-90 200.62-200.62 200.62z"/>
  <path fill="#224C86" d="m140.62 746.25v73.125c0 22.5 18.75 41.25 41.25 41.25h48.75c-2.8125-14.062-3.75-28.125-3.75-43.125 0-24.375 3.75-48.75 10.312-71.25z"/>
  <path fill="#224C86" d="m487.5 634.69c-100.31 0-181.88 81.562-181.88 182.81 0 100.31 81.562 182.81 181.88 182.81s181.88-81.562 181.88-182.81-81.562-182.81-181.88-182.81zm26.25 144.38c5.625 0 9.375 4.6875 9.375 9.375 0 5.625-3.75 9.375-9.375 9.375h-89.062c-0.9375 6.5625-1.875 13.125-1.875 19.688s0.9375 13.125 1.875 19.688h89.062c5.625 0 9.375 4.6875 9.375 9.375s-3.75 9.375-9.375 9.375h-82.5c14.062 30.938 45.938 53.438 82.5 53.438 24.375 0 46.875-9.375 64.688-26.25 3.75-3.75 9.375-3.75 13.125 0s3.75 9.375 0 13.125c-20.625 20.625-48.75 31.875-77.812 31.875-46.875 0-87.188-30-103.12-72.188h-41.25c-5.625 0-9.375-4.6875-9.375-9.375s3.75-9.375 9.375-9.375h35.625c-0.9375-6.5625-1.875-13.125-1.875-19.688s0.9375-13.125 1.875-19.688h-35.625c-5.625 0-9.375-3.75-9.375-9.375 0-4.6875 3.75-9.375 9.375-9.375h41.25c15.938-42.188 55.312-72.188 103.12-72.188 29.062 0 57.188 11.25 77.812 32.812 3.75 3.75 3.75 9.375 0 13.125s-9.375 3.75-13.125 0c-16.875-16.875-40.312-27.188-64.688-27.188-36.562 0-68.438 21.562-82.5 53.438z"/>
  <path fill="#224C86" d="m791.25 165c0-13.125-10.312-24.375-24.375-24.375h-552.19c-41.25 0-74.062 33.75-74.062 75v41.25h650.62z"/>
  <path fill="#224C86" d="m885 274.69h-744.38v114.38h784.69v-73.125c0-22.5-17.812-41.25-40.312-41.25z"/>
  <path fill="#224C86" d="m748.12 817.5c0 15-0.9375 29.062-3.75 43.125h140.62c22.5 0 41.25-18.75 41.25-41.25v-73.125h-187.5c5.625 22.5 9.375 45.938 9.375 71.25z"/>
  <path fill="#224C86" d="m140.62 727.5h102.19c36.562-100.31 132.19-171.56 244.69-171.56s208.12 71.25 244.69 171.56h193.12v-66.562h-107.81c-51.562 0-92.812-42.188-92.812-92.812 0-51.562 42.188-93.75 92.812-93.75h107.81v-66.562h-784.69z"/>
  <path fill="#224C86" d="m1035 493.12h-90.938v149.06h90.938c13.125 0 24.375-11.25 24.375-24.375v-100.31c0-14.062-11.25-24.375-24.375-24.375z"/>
  <path fill="#224C86" d="m834.38 591.56c13.125 0 24.375-11.25 24.375-24.375s-11.25-24.375-24.375-24.375-24.375 11.25-24.375 24.375c0 14.062 11.25 24.375 24.375 24.375z"/>
  <path fill="#224C86" d="m743.44 567.19c0 41.25 33.75 75 74.062 75h107.81v-149.06h-107.81c-41.25 0-74.062 32.812-74.062 74.062zm134.06 0c0 23.438-18.75 43.125-43.125 43.125s-43.125-19.688-43.125-43.125 18.75-43.125 43.125-43.125 43.125 19.688 43.125 43.125z"/>
 </g>
</svg>
