<svg width="100px" height="20px" viewBox="0 0 155 27" fill="none" xmlns="http://www.w3.org/2000/svg">
    <path
    d="M13.5 0.5L16.4187 9.48278H25.8637L18.2225 15.0344L21.1412 24.0172L13.5 18.4656L5.85879 24.0172L8.77747 15.0344L1.13627 9.48278H10.5813L13.5 0.5Z"
    fill="#FBBB13" />
    <path
    d="M45.5 0.5L48.4187 9.48278H57.8637L50.2225 15.0344L53.1412 24.0172L45.5 18.4656L37.8588 24.0172L40.7775 15.0344L33.1363 9.48278H42.5813L45.5 0.5Z"
    fill="#FBBB13" />
    <path
    d="M77.5 0.5L80.4187 9.48278H89.8637L82.2225 15.0344L85.1412 24.0172L77.5 18.4656L69.8588 24.0172L72.7775 15.0344L65.1363 9.48278H74.5813L77.5 0.5Z"
    fill="#FBBB13" />
    <path
    d="M109.5 0.5L112.419 9.48278H121.864L114.223 15.0344L117.141 24.0172L109.5 18.4656L101.859 24.0172L104.777 15.0344L97.1363 9.48278H106.581L109.5 0.5Z"
    fill="#FBBB13" />
    <path
    d="M141.5 0.5L144.419 9.48278H153.864L146.223 15.0344L149.141 24.0172L141.5 18.4656L133.859 24.0172L136.777 15.0344L129.136 9.48278H138.581L141.5 0.5Z"
    fill="#FBBB13" />
</svg>